<svg xmlns="http://www.w3.org/2000/svg" width="285" height="93.155" viewBox="0 0 285 93.155">
  <g id="Logo-Korner" transform="translate(1107.916 -372.288)">
    <path id="Path_533" data-name="Path 533" d="M-1044.777,372.288l20.085.005-51.135,51.609,7.278-4.362,43.857,45.891-21.253.012-44.911-46.881,46.079-46.274" transform="translate(-11.775)" fill="#fff"/>
    <g id="Group_407" data-name="Group 407" transform="translate(-962.854 443.691)">
      <path id="Path_534" data-name="Path 534" d="M-639.69,611.634l1.71-4.736h1.1l1.71,4.736h-.793l-1.574-4.321h.2l-1.557,4.321Zm.888-1.069v-.645h2.748v.645Z" transform="translate(639.69 -605.616)" fill="#fff"/>
      <path id="Path_535" data-name="Path 535" d="M-620.618,611.634V606.9h2.127c.051,0,.115,0,.19.005a1.8,1.8,0,0,1,.216.021,1.658,1.658,0,0,1,.732.27,1.3,1.3,0,0,1,.44.523,1.641,1.641,0,0,1,.146.7,1.533,1.533,0,0,1-.322.975,1.46,1.46,0,0,1-.964.512l-.311.033h-1.491v1.7Zm.763-2.351h1.334c.049,0,.1,0,.162-.007a1.357,1.357,0,0,0,.17-.023.771.771,0,0,0,.376-.183.766.766,0,0,0,.2-.307,1.03,1.03,0,0,0,.062-.349,1.017,1.017,0,0,0-.062-.347.77.77,0,0,0-.2-.306.77.77,0,0,0-.376-.182,1.014,1.014,0,0,0-.17-.026c-.059,0-.114-.006-.162-.006h-1.334Zm2.313,2.351-1.038-1.927.771-.178,1.14,2.1Z" transform="translate(626.527 -605.616)" fill="#fff"/>
      <path id="Path_536" data-name="Path 536" d="M-601.371,611.513a2.714,2.714,0,0,1-1.345-.311,2.1,2.1,0,0,1-.85-.867,2.719,2.719,0,0,1-.294-1.289,2.718,2.718,0,0,1,.294-1.289,2.1,2.1,0,0,1,.85-.867,2.717,2.717,0,0,1,1.345-.311,2.722,2.722,0,0,1,1.343.311,2.087,2.087,0,0,1,.85.867,2.734,2.734,0,0,1,.292,1.289,2.734,2.734,0,0,1-.292,1.289,2.085,2.085,0,0,1-.85.867A2.718,2.718,0,0,1-601.371,611.513Zm0-.654a1.705,1.705,0,0,0,.93-.222,1.423,1.423,0,0,0,.557-.638,2.283,2.283,0,0,0,.186-.952,2.261,2.261,0,0,0-.186-.949,1.418,1.418,0,0,0-.557-.633,1.774,1.774,0,0,0-.93-.23,1.712,1.712,0,0,0-.93.22,1.417,1.417,0,0,0-.557.638,2.324,2.324,0,0,0-.19.954,2.213,2.213,0,0,0,.183.949,1.4,1.4,0,0,0,.561.633A1.8,1.8,0,0,0-601.371,610.859Zm1.93.651-1.469-1.315.49-.441,1.461,1.315Z" transform="translate(614.96 -605.396)" fill="#fff"/>
      <path id="Path_537" data-name="Path 537" d="M-580.993,611.732a2.478,2.478,0,0,1-1.091-.229,1.778,1.778,0,0,1-.74-.641,1.751,1.751,0,0,1-.267-.972V606.9l.775,0v2.957a1.186,1.186,0,0,0,.113.533,1.136,1.136,0,0,0,.3.385,1.338,1.338,0,0,0,.426.233,1.5,1.5,0,0,0,.48.079,1.491,1.491,0,0,0,.484-.081,1.372,1.372,0,0,0,.426-.235,1.113,1.113,0,0,0,.3-.385,1.2,1.2,0,0,0,.112-.529V606.9h.775v2.993a1.755,1.755,0,0,1-.267.97,1.774,1.774,0,0,1-.74.643A2.479,2.479,0,0,1-580.993,611.732Z" transform="translate(600.625 -605.616)" fill="#fff"/>
      <path id="Path_538" data-name="Path 538" d="M-563.653,611.634V606.9h.764v4.736Z" transform="translate(587.21 -605.616)" fill="#fff"/>
      <path id="Path_539" data-name="Path 539" d="M-554.956,611.634v-4.088h-1.75V606.9h4.264v.648h-1.75v4.088Z" transform="translate(582.415 -605.616)" fill="#fff"/>
      <path id="Path_540" data-name="Path 540" d="M-538.7,611.634V606.9h3.361v.648h-2.6v1.328h2.16v.648h-2.16v1.464h2.6v.648Z" transform="translate(569.987 -605.616)" fill="#fff"/>
      <path id="Path_541" data-name="Path 541" d="M-521.7,611.513a2.714,2.714,0,0,1-1.344-.311,2.1,2.1,0,0,1-.85-.867,2.716,2.716,0,0,1-.294-1.289,2.716,2.716,0,0,1,.294-1.289,2.1,2.1,0,0,1,.85-.867,2.717,2.717,0,0,1,1.344-.311,2.588,2.588,0,0,1,1.508.414,2.154,2.154,0,0,1,.831,1.115l-.775.187a1.46,1.46,0,0,0-.546-.779,1.7,1.7,0,0,0-1.018-.283,1.762,1.762,0,0,0-.932.227,1.422,1.422,0,0,0-.561.635,2.249,2.249,0,0,0-.188.951,2.212,2.212,0,0,0,.184.951,1.421,1.421,0,0,0,.563.635,1.774,1.774,0,0,0,.933.227,1.693,1.693,0,0,0,1.018-.285,1.467,1.467,0,0,0,.546-.777l.775.187a2.153,2.153,0,0,1-.831,1.115A2.588,2.588,0,0,1-521.7,611.513Z" transform="translate(559.974 -605.396)" fill="#fff"/>
      <path id="Path_542" data-name="Path 542" d="M-503.322,611.634v-4.088h-1.75V606.9h4.264v.648h-1.75v4.088Z" transform="translate(546.778 -605.616)" fill="#fff"/>
      <path id="Path_543" data-name="Path 543" d="M-484.967,611.732a2.476,2.476,0,0,1-1.091-.229,1.779,1.779,0,0,1-.74-.641,1.751,1.751,0,0,1-.267-.972V606.9l.775,0v2.957a1.186,1.186,0,0,0,.113.533,1.133,1.133,0,0,0,.3.385,1.333,1.333,0,0,0,.426.233,1.5,1.5,0,0,0,.48.079,1.491,1.491,0,0,0,.484-.081,1.365,1.365,0,0,0,.426-.235,1.113,1.113,0,0,0,.3-.385,1.2,1.2,0,0,0,.111-.529V606.9h.775v2.993a1.755,1.755,0,0,1-.266.97,1.775,1.775,0,0,1-.74.643A2.478,2.478,0,0,1-484.967,611.732Z" transform="translate(534.349 -605.616)" fill="#fff"/>
      <path id="Path_544" data-name="Path 544" d="M-467.863,611.634V606.9h2.127c.051,0,.115,0,.19.005a1.8,1.8,0,0,1,.216.021,1.658,1.658,0,0,1,.732.27,1.3,1.3,0,0,1,.441.523,1.645,1.645,0,0,1,.146.7,1.531,1.531,0,0,1-.322.975,1.459,1.459,0,0,1-.964.512l-.311.033H-467.1v1.7Zm.764-2.351h1.334q.073,0,.162-.007a1.357,1.357,0,0,0,.17-.023.769.769,0,0,0,.376-.183.766.766,0,0,0,.2-.307,1.03,1.03,0,0,0,.062-.349,1.017,1.017,0,0,0-.062-.347.77.77,0,0,0-.2-.306.769.769,0,0,0-.376-.182,1.014,1.014,0,0,0-.17-.026q-.089-.006-.162-.006H-467.1Zm2.313,2.351-1.038-1.927.771-.178,1.14,2.1Z" transform="translate(521.097 -605.616)" fill="#fff"/>
      <path id="Path_545" data-name="Path 545" d="M-451.34,611.634l1.711-4.736h1.1l1.71,4.736h-.793l-1.574-4.321h.2l-1.557,4.321Zm.888-1.069v-.645h2.748v.645Z" transform="translate(509.693 -605.616)" fill="#fff"/>
      <path id="Path_546" data-name="Path 546" d="M-425.064,611.634v-1.957l-1.78-2.779h.891l1.275,1.99,1.275-1.99h.892l-1.779,2.779v1.957Z" transform="translate(492.786 -605.616)" fill="#fff"/>
      <path id="Path_547" data-name="Path 547" d="M-401.169,611.513a2.715,2.715,0,0,1-1.345-.311,2.1,2.1,0,0,1-.85-.867,2.719,2.719,0,0,1-.294-1.289,2.719,2.719,0,0,1,.294-1.289,2.1,2.1,0,0,1,.85-.867,2.718,2.718,0,0,1,1.345-.311,2.586,2.586,0,0,1,1.508.414,2.152,2.152,0,0,1,.831,1.115l-.775.187a1.462,1.462,0,0,0-.546-.779,1.7,1.7,0,0,0-1.018-.283,1.763,1.763,0,0,0-.932.227,1.424,1.424,0,0,0-.561.635,2.254,2.254,0,0,0-.188.951,2.211,2.211,0,0,0,.184.951,1.421,1.421,0,0,0,.563.635,1.773,1.773,0,0,0,.933.227,1.693,1.693,0,0,0,1.018-.285,1.468,1.468,0,0,0,.546-.777l.775.187a2.151,2.151,0,0,1-.831,1.115A2.586,2.586,0,0,1-401.169,611.513Z" transform="translate(476.783 -605.396)" fill="#fff"/>
      <path id="Path_548" data-name="Path 548" d="M-381.578,611.513a2.713,2.713,0,0,1-1.344-.311,2.1,2.1,0,0,1-.85-.867,2.716,2.716,0,0,1-.294-1.289,2.716,2.716,0,0,1,.294-1.289,2.1,2.1,0,0,1,.85-.867,2.716,2.716,0,0,1,1.344-.311,2.723,2.723,0,0,1,1.343.311,2.088,2.088,0,0,1,.849.867,2.73,2.73,0,0,1,.292,1.289,2.73,2.73,0,0,1-.292,1.289,2.086,2.086,0,0,1-.849.867A2.72,2.72,0,0,1-381.578,611.513Zm0-.654a1.7,1.7,0,0,0,.93-.222,1.421,1.421,0,0,0,.557-.638,2.277,2.277,0,0,0,.187-.952,2.255,2.255,0,0,0-.187-.949,1.416,1.416,0,0,0-.557-.633,1.773,1.773,0,0,0-.93-.23,1.713,1.713,0,0,0-.93.22,1.417,1.417,0,0,0-.557.638,2.33,2.33,0,0,0-.19.954,2.214,2.214,0,0,0,.182.949,1.407,1.407,0,0,0,.561.633A1.8,1.8,0,0,0-381.578,610.859Z" transform="translate(463.261 -605.396)" fill="#fff"/>
      <path id="Path_549" data-name="Path 549" d="M-363.3,611.634V606.9h.775l2.59,3.519V606.9h.775v4.736h-.775l-2.59-3.522v3.522Z" transform="translate(448.927 -605.616)" fill="#fff"/>
      <path id="Path_550" data-name="Path 550" d="M-342.912,611.52a2.818,2.818,0,0,1-1.021-.176,1.919,1.919,0,0,1-.749-.5,1.6,1.6,0,0,1-.382-.778l.8-.108a1.131,1.131,0,0,0,.5.676,1.643,1.643,0,0,0,.9.242,1.806,1.806,0,0,0,.585-.091,1.052,1.052,0,0,0,.429-.26.567.567,0,0,0,.162-.406.5.5,0,0,0-.049-.227.55.55,0,0,0-.135-.173.822.822,0,0,0-.208-.128,1.8,1.8,0,0,0-.269-.094l-1.348-.358a3.31,3.31,0,0,1-.4-.137,1.5,1.5,0,0,1-.375-.22,1.062,1.062,0,0,1-.276-.339,1.046,1.046,0,0,1-.106-.492,1.128,1.128,0,0,1,.25-.741,1.534,1.534,0,0,1,.678-.46,2.775,2.775,0,0,1,.957-.156,2.706,2.706,0,0,1,.955.171,1.824,1.824,0,0,1,.7.472,1.674,1.674,0,0,1,.385.745l-.819.125a.936.936,0,0,0-.233-.459,1.2,1.2,0,0,0-.439-.3,1.549,1.549,0,0,0-.562-.107,1.493,1.493,0,0,0-.535.079.953.953,0,0,0-.388.24.5.5,0,0,0-.144.355.419.419,0,0,0,.128.319.921.921,0,0,0,.316.192,3.356,3.356,0,0,0,.375.117l.972.247c.122.031.26.072.415.123a2.032,2.032,0,0,1,.45.215,1.144,1.144,0,0,1,.36.367,1.066,1.066,0,0,1,.143.574,1.212,1.212,0,0,1-.161.63,1.377,1.377,0,0,1-.441.454,2.119,2.119,0,0,1-.645.274A3.147,3.147,0,0,1-342.912,611.52Z" transform="translate(436.343 -605.404)" fill="#fff"/>
      <path id="Path_551" data-name="Path 551" d="M-326.4,611.634v-4.088h-1.75V606.9h4.264v.648h-1.75v4.088Z" transform="translate(424.67 -605.616)" fill="#fff"/>
      <path id="Path_552" data-name="Path 552" d="M-310.142,611.634V606.9h2.126c.051,0,.115,0,.19.005a1.8,1.8,0,0,1,.216.021,1.658,1.658,0,0,1,.732.27,1.3,1.3,0,0,1,.44.523,1.641,1.641,0,0,1,.146.7,1.533,1.533,0,0,1-.321.975,1.46,1.46,0,0,1-.964.512l-.311.033h-1.491v1.7Zm.763-2.351h1.334q.073,0,.162-.007a1.344,1.344,0,0,0,.17-.023.77.77,0,0,0,.377-.183.772.772,0,0,0,.2-.307,1.029,1.029,0,0,0,.062-.349,1.016,1.016,0,0,0-.062-.347.776.776,0,0,0-.2-.306.77.77,0,0,0-.377-.182,1,1,0,0,0-.17-.026q-.089-.006-.162-.006h-1.334Zm2.313,2.351-1.038-1.927.771-.178,1.14,2.1Z" transform="translate(412.24 -605.616)" fill="#fff"/>
      <path id="Path_553" data-name="Path 553" d="M-290.342,611.732a2.477,2.477,0,0,1-1.091-.229,1.779,1.779,0,0,1-.74-.641,1.748,1.748,0,0,1-.267-.972V606.9l.775,0v2.957a1.191,1.191,0,0,0,.113.533,1.134,1.134,0,0,0,.3.385,1.336,1.336,0,0,0,.426.233,1.5,1.5,0,0,0,.481.079,1.491,1.491,0,0,0,.484-.081,1.372,1.372,0,0,0,.426-.235,1.116,1.116,0,0,0,.3-.385,1.2,1.2,0,0,0,.112-.529V606.9h.775v2.993a1.755,1.755,0,0,1-.267.97,1.773,1.773,0,0,1-.74.643A2.477,2.477,0,0,1-290.342,611.732Z" transform="translate(400.022 -605.616)" fill="#fff"/>
      <path id="Path_554" data-name="Path 554" d="M-271.694,611.513a2.713,2.713,0,0,1-1.344-.311,2.1,2.1,0,0,1-.85-.867,2.716,2.716,0,0,1-.294-1.289,2.716,2.716,0,0,1,.294-1.289,2.1,2.1,0,0,1,.85-.867,2.716,2.716,0,0,1,1.344-.311,2.586,2.586,0,0,1,1.508.414,2.15,2.15,0,0,1,.831,1.115l-.775.187a1.462,1.462,0,0,0-.546-.779,1.7,1.7,0,0,0-1.018-.283,1.761,1.761,0,0,0-.932.227,1.42,1.42,0,0,0-.561.635,2.249,2.249,0,0,0-.188.951,2.216,2.216,0,0,0,.184.951,1.423,1.423,0,0,0,.563.635,1.774,1.774,0,0,0,.933.227,1.693,1.693,0,0,0,1.018-.285,1.468,1.468,0,0,0,.546-.777l.775.187a2.149,2.149,0,0,1-.831,1.115A2.586,2.586,0,0,1-271.694,611.513Z" transform="translate(387.421 -605.396)" fill="#fff"/>
      <path id="Path_555" data-name="Path 555" d="M-252.1,611.513a2.714,2.714,0,0,1-1.344-.311,2.1,2.1,0,0,1-.85-.867,2.716,2.716,0,0,1-.294-1.289,2.716,2.716,0,0,1,.294-1.289,2.1,2.1,0,0,1,.85-.867,2.717,2.717,0,0,1,1.344-.311,2.588,2.588,0,0,1,1.508.414,2.153,2.153,0,0,1,.831,1.115l-.775.187a1.461,1.461,0,0,0-.546-.779,1.7,1.7,0,0,0-1.018-.283,1.761,1.761,0,0,0-.932.227,1.424,1.424,0,0,0-.561.635,2.249,2.249,0,0,0-.188.951,2.211,2.211,0,0,0,.184.951,1.422,1.422,0,0,0,.563.635,1.774,1.774,0,0,0,.933.227,1.693,1.693,0,0,0,1.018-.285,1.467,1.467,0,0,0,.546-.777l.775.187a2.152,2.152,0,0,1-.831,1.115A2.588,2.588,0,0,1-252.1,611.513Z" transform="translate(373.9 -605.396)" fill="#fff"/>
      <path id="Path_556" data-name="Path 556" d="M-233.823,611.634V606.9h.763v4.736Z" transform="translate(359.566 -605.616)" fill="#fff"/>
      <path id="Path_557" data-name="Path 557" d="M-223.916,608.876a2.714,2.714,0,0,1-1.344-.311,2.1,2.1,0,0,1-.85-.867,2.716,2.716,0,0,1-.294-1.289,2.716,2.716,0,0,1,.294-1.289,2.1,2.1,0,0,1,.85-.867,2.717,2.717,0,0,1,1.344-.311,2.723,2.723,0,0,1,1.343.311,2.084,2.084,0,0,1,.849.867,2.73,2.73,0,0,1,.292,1.289,2.73,2.73,0,0,1-.292,1.289,2.083,2.083,0,0,1-.849.867A2.72,2.72,0,0,1-223.916,608.876Zm0-.654a1.706,1.706,0,0,0,.93-.222,1.42,1.42,0,0,0,.557-.638,2.278,2.278,0,0,0,.186-.952,2.255,2.255,0,0,0-.186-.949,1.415,1.415,0,0,0-.557-.633,1.773,1.773,0,0,0-.93-.23,1.711,1.711,0,0,0-.929.22,1.415,1.415,0,0,0-.558.638,2.33,2.33,0,0,0-.19.954,2.218,2.218,0,0,0,.182.949,1.408,1.408,0,0,0,.561.633A1.8,1.8,0,0,0-223.916,608.221Zm.409-4.673h-.76l.278-.789h.76Z" transform="translate(354.445 -602.759)" fill="#fff"/>
      <path id="Path_558" data-name="Path 558" d="M-205.635,611.634V606.9h.775l2.59,3.519V606.9h.775v4.736h-.775l-2.59-3.522v3.522Z" transform="translate(340.11 -605.616)" fill="#fff"/>
    </g>
    <g id="Group_409" data-name="Group 409" transform="translate(-1038.573 402.818)">
      <g id="Group_408" data-name="Group 408" transform="translate(0 0)">
        <path id="Path_559" data-name="Path 559" d="M-873.233,490.623l-5,5.137v8.065h-5.857v-31.54h5.857v16.176l15.59-16.176h6.579l-13.248,14.1,14.058,17.437H-862.1Z" transform="translate(884.092 -471.835)" fill="#fff"/>
        <path id="Path_560" data-name="Path 560" d="M-769.143,501.177a15.51,15.51,0,0,1-6.083-5.812,15.966,15.966,0,0,1-2.208-8.313,15.967,15.967,0,0,1,2.208-8.313,15.514,15.514,0,0,1,6.083-5.812,17.98,17.98,0,0,1,8.7-2.095,17.986,17.986,0,0,1,8.7,2.095,15.565,15.565,0,0,1,6.083,5.79,15.939,15.939,0,0,1,2.209,8.335,15.937,15.937,0,0,1-2.209,8.336,15.558,15.558,0,0,1-6.083,5.79,17.986,17.986,0,0,1-8.7,2.1A17.981,17.981,0,0,1-769.143,501.177Zm14.373-4.461a10.272,10.272,0,0,0,3.965-3.965,11.366,11.366,0,0,0,1.442-5.7,11.368,11.368,0,0,0-1.442-5.7,10.277,10.277,0,0,0-3.965-3.965,11.38,11.38,0,0,0-5.677-1.419,11.379,11.379,0,0,0-5.677,1.419,10.27,10.27,0,0,0-3.965,3.965,11.357,11.357,0,0,0-1.441,5.7,11.355,11.355,0,0,0,1.441,5.7,10.265,10.265,0,0,0,3.965,3.965,11.379,11.379,0,0,0,5.677,1.42A11.38,11.38,0,0,0-754.77,496.716Z" transform="translate(810.478 -470.831)" fill="#fff"/>
        <path id="Path_561" data-name="Path 561" d="M-620.525,503.825l-6.444-9.237a11.9,11.9,0,0,1-1.217.045H-635.3v9.192h-5.857v-31.54h12.977a17.463,17.463,0,0,1,7.142,1.352,10.385,10.385,0,0,1,4.663,3.875,10.844,10.844,0,0,1,1.622,5.993,10.691,10.691,0,0,1-1.735,6.128,10.322,10.322,0,0,1-4.979,3.83l7.254,10.363Zm-2.118-24.962a9,9,0,0,0-5.812-1.622H-635.3v12.571h6.849a8.9,8.9,0,0,0,5.812-1.644,5.719,5.719,0,0,0,1.983-4.664A5.655,5.655,0,0,0-622.644,478.863Z" transform="translate(716.425 -471.835)" fill="#fff"/>
        <path id="Path_562" data-name="Path 562" d="M-364.307,498.914v4.911h-23.655v-31.54h23.024V477.2H-382.1v8.2h15.23v4.821H-382.1v8.7Z" transform="translate(541.669 -471.835)" fill="#fff"/>
        <path id="Path_563" data-name="Path 563" d="M-254.34,503.825l-6.443-9.237a11.916,11.916,0,0,1-1.217.045h-7.119v9.192h-5.858v-31.54H-262a17.459,17.459,0,0,1,7.141,1.352,10.381,10.381,0,0,1,4.664,3.875,10.844,10.844,0,0,1,1.622,5.993,10.691,10.691,0,0,1-1.735,6.128,10.321,10.321,0,0,1-4.979,3.83l7.255,10.363Zm-2.118-24.962a9,9,0,0,0-5.813-1.622h-6.848v12.571h6.848a8.909,8.909,0,0,0,5.813-1.644,5.719,5.719,0,0,0,1.982-4.664A5.654,5.654,0,0,0-256.458,478.863Z" transform="translate(463.688 -471.835)" fill="#fff"/>
      </g>
      <path id="Path_564" data-name="Path 564" d="M-520.553,473.025h5.612l17.244,14.093V473.025h5.612v31.311H-497.7V493.849l-17.244-14.033v24.52h-5.612Z" transform="translate(633.182 -472.345)" fill="#fff"/>
    </g>
    <path id="Path_565" data-name="Path 565" d="M-1107.916,438.891V424.6h14.292Z" transform="translate(0 -36.105)" fill="#fff"/>
    <path id="Path_566" data-name="Path 566" d="M-1093.3,589.735h-14.292V575.443Z" transform="translate(-0.227 -140.215)" fill="#fff"/>
  </g>
</svg>
