<svg xmlns="http://www.w3.org/2000/svg" xmlns:xlink="http://www.w3.org/1999/xlink" width="75.699" height="74.532" viewBox="0 0 75.699 74.532">
  <defs>
    <clipPath id="clip-path">
      <path id="Path_431" data-name="Path 431" d="M0,4.67H75.7V-69.862H0Z" transform="translate(0 69.862)" fill="none"/>
    </clipPath>
  </defs>
  <g id="Group_252" data-name="Group 252" transform="translate(0 69.862)">
    <g id="Group_251" data-name="Group 251" transform="translate(0 -69.862)" clip-path="url(#clip-path)">
      <g id="Group_250" data-name="Group 250" transform="translate(0)">
        <path id="Path_430" data-name="Path 430" d="M2.372,0c-20.9,0-37.849,16.684-37.849,37.265S-18.531,74.532,2.372,74.532,40.222,57.846,40.222,37.265,23.275,0,2.372,0M4.984,41.822a2.5,2.5,0,0,1-.029.294c-.011.073-.015.148-.032.221s-.046.149-.07.224c-.03.091-.058.182-.1.269-.007.014-.01.03-.016.045a2.454,2.454,0,0,1-.2.338.132.132,0,0,1-.015.019,2.5,2.5,0,0,1-.275.33c-.028.029-.055.052-.084.079a2.424,2.424,0,0,1-.276.225c-.03.021-.059.043-.091.064a2.509,2.509,0,0,1-.392.209c-.03.014-.061.021-.09.033a2.585,2.585,0,0,1-.353.107c-.043.012-.086.02-.129.028a2.575,2.575,0,0,1-.469.047c-.032,0-.065-.01-.1-.011a2.582,2.582,0,0,1-.447-.048c-.045-.01-.09-.029-.134-.041a3.026,3.026,0,0,1-.393-.131c-.015-.007-.029-.009-.044-.016l-14.513-6.74a2.56,2.56,0,0,1-1.251-3.43A2.638,2.638,0,0,1-11.025,32.7l10.779,5V15.465a2.6,2.6,0,0,1,2.617-2.578A2.6,2.6,0,0,1,4.99,15.465v26.31c0,.016-.005.032-.005.047" transform="translate(35.477)" fill="#fc8468"/>
      </g>
    </g>
  </g>
</svg>
