<svg id="Group_437" data-name="Group 437" xmlns="http://www.w3.org/2000/svg" xmlns:xlink="http://www.w3.org/1999/xlink" width="73.702" height="73.702" viewBox="0 0 73.702 73.702">
  <defs>
    <clipPath id="clip-path">
      <path id="Path_586" data-name="Path 586" d="M0,19.7H73.7V-54H0Z" transform="translate(0 54)" fill="none"/>
    </clipPath>
  </defs>
  <g id="Group_436" data-name="Group 436" transform="translate(0 0)" clip-path="url(#clip-path)">
    <g id="Group_424" data-name="Group 424">
      <path id="Path_574" data-name="Path 574" d="M9.851,19.7A36.85,36.85,0,0,0,46.7-17.149,36.851,36.851,0,0,0,9.851-54,36.851,36.851,0,0,0-27-17.149,36.85,36.85,0,0,0,9.851,19.7" transform="translate(27 54)" fill="#ff8463"/>
    </g>
    <g id="Group_425" data-name="Group 425" transform="translate(34.975 11.752)">
      <path id="Path_575" data-name="Path 575" d="M.4,1.859A1.509,1.509,0,0,1-1.105.35V-3.586A1.509,1.509,0,0,1,.4-5.094,1.509,1.509,0,0,1,1.911-3.586V.35A1.509,1.509,0,0,1,.4,1.859" transform="translate(1.105 5.094)" fill="#fff"/>
    </g>
    <g id="Group_426" data-name="Group 426" transform="translate(48.191 18.377)">
      <path id="Path_576" data-name="Path 576" d="M.4,1.551A1.5,1.5,0,0,1-.663,1.109a1.509,1.509,0,0,1,0-2.135L2.12-3.809a1.509,1.509,0,0,1,2.135,0,1.507,1.507,0,0,1,0,2.133L1.472,1.109A1.516,1.516,0,0,1,.4,1.551" transform="translate(1.105 4.251)" fill="#fff"/>
    </g>
    <g id="Group_427" data-name="Group 427" transform="translate(53.666 34.379)">
      <path id="Path_577" data-name="Path 577" d="M1.455.806H-2.481A1.509,1.509,0,0,1-3.989-.7,1.509,1.509,0,0,1-2.481-2.21H1.455A1.509,1.509,0,0,1,2.964-.7,1.509,1.509,0,0,1,1.455.806" transform="translate(3.989 2.21)" fill="#fff"/>
    </g>
    <g id="Group_428" data-name="Group 428" transform="translate(48.192 47.593)">
      <path id="Path_578" data-name="Path 578" d="M1.147,1.551A1.5,1.5,0,0,1,.081,1.109L-2.7-1.676a1.51,1.51,0,0,1,0-2.133,1.509,1.509,0,0,1,2.135,0L2.214-1.026a1.509,1.509,0,0,1,0,2.135,1.5,1.5,0,0,1-1.067.442" transform="translate(3.144 4.251)" fill="#fff"/>
    </g>
    <g id="Group_429" data-name="Group 429" transform="translate(18.975 47.593)">
      <path id="Path_579" data-name="Path 579" d="M.4,1.551A1.5,1.5,0,0,1-.663,1.109a1.509,1.509,0,0,1,0-2.135L2.12-3.809a1.509,1.509,0,0,1,2.135,0,1.507,1.507,0,0,1,0,2.133L1.47,1.109A1.5,1.5,0,0,1,.4,1.551" transform="translate(1.105 4.251)" fill="#fff"/>
    </g>
    <g id="Group_430" data-name="Group 430" transform="translate(12.348 34.379)">
      <path id="Path_580" data-name="Path 580" d="M1.455.806H-2.481A1.509,1.509,0,0,1-3.989-.7,1.509,1.509,0,0,1-2.481-2.21H1.455A1.509,1.509,0,0,1,2.964-.7,1.509,1.509,0,0,1,1.455.806" transform="translate(3.989 2.21)" fill="#fff"/>
    </g>
    <g id="Group_431" data-name="Group 431" transform="translate(18.976 18.377)">
      <path id="Path_581" data-name="Path 581" d="M1.147,1.551A1.5,1.5,0,0,1,.081,1.109L-2.7-1.676a1.51,1.51,0,0,1,0-2.133,1.509,1.509,0,0,1,2.135,0L2.214-1.026a1.509,1.509,0,0,1,0,2.135,1.515,1.515,0,0,1-1.067.442" transform="translate(3.144 4.251)" fill="#fff"/>
    </g>
    <g id="Group_432" data-name="Group 432" transform="translate(30.449 53.989)">
      <path id="Path_582" data-name="Path 582" d="M3.226,0V2.514a3.536,3.536,0,0,1-3.52,3.52H-5.322c-1.69,0-3.52-1.287-3.52-4.1V0Z" transform="translate(8.842)" fill="#fff"/>
    </g>
    <g id="Group_433" data-name="Group 433" transform="translate(22.402 21.811)">
      <path id="Path_583" data-name="Path 583" d="M6.135.838A14.132,14.132,0,0,0-5.751-1.978,14.066,14.066,0,0,0-16.512,8.8,14.094,14.094,0,0,0-11.2,23.022,6.065,6.065,0,0,1-8.91,26.864v.019a.365.365,0,0,1,.142-.019H3.3a.191.191,0,0,1,.1.019v-.019a6.708,6.708,0,0,1,2.574-4.024,14.046,14.046,0,0,0,5.371-11.062A14.019,14.019,0,0,0,6.135.838M4.807,12.784A1.519,1.519,0,0,1,3.3,11.276a5.527,5.527,0,0,0-5.53-5.53,1.52,1.52,0,0,1-1.508-1.51A1.519,1.519,0,0,1-2.231,2.728a8.567,8.567,0,0,1,8.548,8.548,1.52,1.52,0,0,1-1.51,1.508" transform="translate(16.816 2.297)" fill="#fff"/>
    </g>
    <g id="Group_434" data-name="Group 434" transform="translate(30.309 50.972)">
      <path id="Path_584" data-name="Path 584" d="M0,0H.141A.336.336,0,0,0,0,.02Z" fill="#fff"/>
    </g>
    <g id="Group_435" data-name="Group 435" transform="translate(42.517 50.972)">
      <path id="Path_585" data-name="Path 585" d="M.027,0V.02A.18.18,0,0,0-.074,0Z" transform="translate(0.074)" fill="#fff"/>
    </g>
  </g>
</svg>
