<svg xmlns="http://www.w3.org/2000/svg" width="69.777" height="69.778" viewBox="0 0 69.777 69.778">
  <g id="Group_454" data-name="Group 454" transform="translate(-1508 -1177.417)">
    <g id="Group_444" data-name="Group 444" transform="translate(1508 1177.415)">
      <g id="Group_448" data-name="Group 448" transform="translate(0 0)">
        <g id="Group_412" data-name="Group 412" transform="translate(0.001 0.001)">
          <path id="Path_567" data-name="Path 567" d="M8.241,16.481A34.89,34.89,0,0,0,43.129-18.407,34.889,34.889,0,0,0,8.241-53.3a34.888,34.888,0,0,0-34.889,34.89A34.889,34.889,0,0,0,8.241,16.481" transform="translate(26.648 53.297)" fill="#ff8463"/>
        </g>
      </g>
    </g>
    <g id="religion" transform="translate(1458.501 1186.955)">
      <path id="Path_609" data-name="Path 609" d="M94.527,41.17c-.438-.068-.768-.115-1.037-.153a9.545,9.545,0,0,1-2.013-.449c-.381-.119-1.869-1.62-1.869-4.559a30.139,30.139,0,0,1,1.285-8.39c.01-.033.035-.128.07-.257.064-.237.532-1.667.532-1.667a19.94,19.94,0,0,0,.688-2.254l.009-.04A53.173,53.173,0,0,0,93.357,12.53a2.2,2.2,0,0,0-.758-1.365c-.052-.055-.1-.1-.132-.142-.273-.317-.632-.709-1.049-1.163-.274-.3-.576-.629-.9-.989-.521-.576-1.1-1.1-1.663-1.612a18.113,18.113,0,0,1-1.991-2A7.081,7.081,0,0,1,85.321.719a.724.724,0,0,0-.152-.565,1.222,1.222,0,0,0-1.056,0,.723.723,0,0,0-.152.565,7.084,7.084,0,0,1-1.541,4.536,18.138,18.138,0,0,1-1.991,2c-.561.509-1.142,1.036-1.663,1.612-.325.36-.628.69-.9.989-.416.454-.776.846-1.049,1.163-.034.04-.08.088-.132.142a2.2,2.2,0,0,0-.758,1.368A53.169,53.169,0,0,0,77.088,23.4l.009.04a19.983,19.983,0,0,0,.688,2.254s.469,1.43.532,1.667c.035.129.06.224.071.257a30.147,30.147,0,0,1,1.285,8.39c0,2.939-1.489,4.44-1.869,4.559a9.545,9.545,0,0,1-2.014.449c-.269.038-.6.085-1.037.153-4.742.5-5.254,2.859-5.254,3.848a3.514,3.514,0,0,0,.763,1.92A4.572,4.572,0,0,0,74.089,48.5a9.478,9.478,0,0,0,1.012-.057c1.427-.153,2.865-.384,4.256-.607.505-.081,1.01-.162,1.515-.239a31.792,31.792,0,0,1,3.6-.2l.164,0,.163,0a31.794,31.794,0,0,1,3.6.2c.5.077,1.009.158,1.514.239,1.391.223,2.829.453,4.256.607a9.514,9.514,0,0,0,1.012.057,4.57,4.57,0,0,0,3.827-1.564,3.513,3.513,0,0,0,.763-1.92C99.781,44.029,99.269,41.675,94.527,41.17ZM87.148,21.9a.47.47,0,0,1-.205-.047,1.26,1.26,0,0,1-.53-.673,4.708,4.708,0,0,0,1.841-3.884c0-2.461-.26-4.457-3.614-4.457s-3.614,2-3.614,4.457a4.708,4.708,0,0,0,1.841,3.884,1.371,1.371,0,0,1-.53.673.468.468,0,0,1-.205.047c-.706,0-1.591-1.546-1.824-2.162a17.486,17.486,0,0,1-1-5.466l0-.1a7.743,7.743,0,0,1,.915-2.207c.152-.333,2.118-3.33,2.7-4.04.207-.251,1.254-1.642,1.716-2.255.461.614,1.509,2,1.715,2.255.584.71,2.55,3.707,2.7,4.04a7.743,7.743,0,0,1,.916,2.207l0,.1a17.474,17.474,0,0,1-1,5.466C88.739,20.349,87.854,21.9,87.148,21.9Z" transform="translate(0 0)" fill="#fff"/>
    </g>
  </g>
</svg>
