<svg xmlns="http://www.w3.org/2000/svg" width="277.243" height="89.008" viewBox="0 0 277.243 89.008">
  <g id="Group_84" data-name="Group 84" transform="translate(304.95 -451.399)">
    <path id="Path_40" data-name="Path 40" d="M-98.3,502.734h-.443v.434h.5a15.649,15.649,0,0,1,1.807.076h0a5.859,5.859,0,0,1,1.545.366h0a3.75,3.75,0,0,1,1.671,1.351h0a3.683,3.683,0,0,1,.534,2.055h0a3.555,3.555,0,0,1-.551,2.014,3.978,3.978,0,0,1-1.707,1.31h0a5.2,5.2,0,0,1-1.527.388h0a11.877,11.877,0,0,1-1.771.1h-.524v.38h0v.013h0v.041h.425v-3.744c0-.687,0-1.645.018-2.823,0-1.188.027-1.861.027-1.957Zm156.179,7.819h-.452c-.443-1.012-.885-2.037-1.391-3.13-.452-1.043-.967-2.164-1.455-3.284.063-.163.145-.3.19-.433l.053-.054v.041l.045.393h-.045l-.053-.393.053.014.226.433c-.443.863-.9,1.946-1.428,3.189-.6,1.31-1.066,2.39-1.463,3.225H51.7a1.526,1.526,0,0,1,.2-.416h5.791Zm3.4,7.715-.009.054.2.366a3.367,3.367,0,0,0-.189-.42Zm.189.42.361-.163v-.041Zm-13.8-.2v.028l.388.176Zm.388.2.208-.366-.036-.054a2.45,2.45,0,0,0-.172.42Zm15.412-1.039.388-.149c-.072-.176-.921-2.028-2.583-5.651s-3.37-7.344-5.068-11.184l-.126-.271h-2.2l-.109.271c-1.743,3.84-3.451,7.512-5.068,11.013-1.6,3.482-2.538,5.456-2.747,5.863l-.19.4,2.521,1.324.163-.43c.027-.1.307-.718.821-1.838.47-1.08,1.184-2.633,2.069-4.634l-.37-.176v.419h7.633v-.419l-.37.176c.822,1.852,1.518,3.378,2.033,4.553.5,1.2.776,1.839.821,1.919l.154.43,2.809-1.405-.19-.361Zm-19.522-.339L43.691,517h-.027a3.957,3.957,0,0,1,.272.311Zm-8.583-7.173-.036-.067-.126.122a.232.232,0,0,1,.162-.054Zm-.28.285.046.226a.151.151,0,0,0,.117-.068Zm-2.736,7.927Zm.424,0V517.9h0v.447Zm-2.131-.447h0v0Zm0,.447h0Zm.415-17.263Zm-.415,0v.433h0Zm12.981,16.51.036.028.29-.313Zm.326-.285L43.691,517l.244.311.325-.3.271.339-2.232,1.86-.288-.266c-.19-.231-.85-.949-2-2.259-1.174-1.3-2.936-3.338-5.33-6.039l-.1-.172v-.19l.036-.393.271-.082A5.68,5.68,0,0,0,36.1,509.3a5.4,5.4,0,0,0,1.282-.89h0a4.531,4.531,0,0,0,.777-.958,3.465,3.465,0,0,0,.288-1.526A2.609,2.609,0,0,0,38,504.45a2.7,2.7,0,0,0-1.246-.894h0a4.544,4.544,0,0,0-1.472-.312,11.436,11.436,0,0,0-1.481-.076c-.28,0-.525.008-.678.008v-.388l.009.388h-.416v-.388h.452c-.036,1.608-.036,3.068-.036,4.323v7.43c.036,2.01.036,3.266.063,3.808v.407H30.185l.019-.407c0-.542,0-1.539.027-3.026.037-1.459.037-3.3.037-5.538v-2.362c0-1.165-.037-3.27-.064-6.337l-.019-.42h.444c.063,0,.524,0,1.256-.054h0c.8-.013,1.508-.013,2.158-.013.768,0,1.5.067,2.241.136a8.331,8.331,0,0,1,2.167.609,4.9,4.9,0,0,1,2.186,1.7,5.047,5.047,0,0,1-.406,6.062,10.069,10.069,0,0,1-2.178,1.879l-.135-.162-.126-.176h.416v.04h-.416l.307-.24.036-.027c1.193,1.373,2.448,2.783,3.84,4.237s2.15,2.244,2.285,2.353Zm-20.164-7.375h-.425a7.807,7.807,0,0,1-.57,3.013,6.772,6.772,0,0,1-1.517,2.213v0a5.443,5.443,0,0,1-1.663,1.125h0a5.115,5.115,0,0,1-2.005.4,4.711,4.711,0,0,1-1.978-.42v.018h0a5.859,5.859,0,0,1-1.644-1.057v-.014a6.309,6.309,0,0,1-1.554-2.308,9.107,9.107,0,0,1-.55-3.188,8.743,8.743,0,0,1,.55-3.027,6.574,6.574,0,0,1,1.518-2.389,5.413,5.413,0,0,1,1.68-1.161,5.657,5.657,0,0,1,1.978-.352,5.343,5.343,0,0,1,2.005.352h0a5.334,5.334,0,0,1,1.617,1.079,6.181,6.181,0,0,1,1.6,2.566,9.651,9.651,0,0,1,.533,3.149Zm2.2-.217h.406a11.431,11.431,0,0,0-.668-3.862,9.579,9.579,0,0,0-2.014-3.189A8.057,8.057,0,0,0,21,500.841a8.562,8.562,0,0,0-3.405-.664,8.44,8.44,0,0,0-3.433.7h0a8.765,8.765,0,0,0-2.783,1.947,9.469,9.469,0,0,0-1.906,3.094,10.865,10.865,0,0,0-.632,3.794,11,11,0,0,0,.795,4.16,9.061,9.061,0,0,0,2.15,3.094h0a7.208,7.208,0,0,0,2.683,1.717,8.469,8.469,0,0,0,3.126.578,8.373,8.373,0,0,0,3.234-.606,8.127,8.127,0,0,0,2.854-1.934,8.648,8.648,0,0,0,1.961-3.039,10.236,10.236,0,0,0,.731-3.97ZM.789,518.349Zm.434,0V517.9h0v.447Zm-2.1-.447H-.9v.447a3.235,3.235,0,0,0,.018-.447Zm-.018.447.407.014v-.014Zm-6.3-15.479h0Zm.434-1.77Zm14.31,0h0Zm-.433,1.77Zm.433,0H7.98v-2.191H7.546c-.126,0-.858.014-2.249.014H-3.972c-1.256,0-2.376-.014-3.225-.014H-7.64v2.633H-7.2c.127,0,.741,0,1.906-.041H-.882v-.442l-.416.041c.045,1.821.045,3.172.045,4.066v8.225c-.045,1.609-.045,2.647-.045,3.189l-.036.407H1.692v-.407c-.063-.542-.063-1.58-.081-3.135V506.88c0-.9.018-2.232.081-4.011l-.469-.041v.442c2.051,0,3.577,0,4.589.041H7.98v-.442Zm-18.791,7.065h-.4a7.217,7.217,0,0,1-.6,3.013,5.958,5.958,0,0,1-1.464,2.213v0a5.07,5.07,0,0,1-1.689,1.125h0a4.94,4.94,0,0,1-2,.4,4.75,4.75,0,0,1-1.988-.42v.018h0A5.481,5.481,0,0,1-21,515.228v-.014a6.32,6.32,0,0,1-1.563-2.308,8.71,8.71,0,0,1-.533-3.188,8.325,8.325,0,0,1,.533-3.027,6.69,6.69,0,0,1,1.517-2.389h0a5.814,5.814,0,0,1,1.663-1.161h0a5.705,5.705,0,0,1,1.988-.352,5.262,5.262,0,0,1,2,.352h0a5.177,5.177,0,0,1,1.6,1.079h0a5.715,5.715,0,0,1,1.616,2.566,9.633,9.633,0,0,1,.542,3.149Zm2.2-.217h.424a10.632,10.632,0,0,0-.668-3.862,8.931,8.931,0,0,0-2.014-3.189,8.17,8.17,0,0,0-2.673-1.825,8.585,8.585,0,0,0-3.415-.664,8.166,8.166,0,0,0-3.407.7h0a8.642,8.642,0,0,0-2.8,1.947h0a8.851,8.851,0,0,0-1.888,3.094,10.482,10.482,0,0,0-.632,3.794,10.645,10.645,0,0,0,.777,4.16,9.359,9.359,0,0,0,2.114,3.094h0a7.754,7.754,0,0,0,2.683,1.717,8.681,8.681,0,0,0,3.153.578,8.589,8.589,0,0,0,3.27-.606,8.185,8.185,0,0,0,2.818-1.934v.014a8.441,8.441,0,0,0,1.951-3.054,10.066,10.066,0,0,0,.732-3.97Zm-19.423,8.36-.063-.429h0Zm-21,.325h0l.388.067Zm.388.067.081-.446h0Zm-1.9-.812h-.027l-.073.46Zm-.1.46.443.082v-.014Zm22.215.054h0l.4-.1Zm.4-.1-.063-.429.063.429.442-.081.063.42-2.927.569-2.656-14.337c.126-.265.226-.455.307-.618h.037v.406h0l-.037-.406h.037l.126.66c-.407.854-1.085,2.285-2.006,4.341-1.165,2.525-2.249,5.09-3.333,7.615l-.145.257h-2.313l-.109-.257c-1.039-2.321-2.168-4.914-3.4-7.66-.939-2.1-1.617-3.55-1.952-4.3a4.32,4.32,0,0,1,.136-.632l.054.054c.054.108.145.284.253.536-.145.72-.5,2.2-.922,4.418-.668,3.054-1.256,6.2-1.861,9.459l-.063.434-2.864-.529.117-.42q1.288-5.529,2.394-10.967c.759-3.677,1.174-5.632,1.229-5.958l.081-.285,2.647-.379.135.312c.091.176.7,1.567,1.825,4.133,1.084,2.516,2.394,5.38,3.848,8.619l-.181.393-.063.014V513.5h.063v.394l-.108-.014-.163-.393c1.129-2.552,2.358-5.267,3.6-8.145,1.292-2.959,1.96-4.5,2.032-4.648l.136-.258,2.566.231.054.312c.019.149.353,2.069,1.057,5.647.659,3.582,1.454,7.363,2.294,11.374Zm-17.707-14.02H-46.2l.018-.028Zm-9.964,5.876h-.416a8,8,0,0,1-.587,3.013,6.511,6.511,0,0,1-1.509,2.213v0a5.075,5.075,0,0,1-1.689,1.125h0a4.867,4.867,0,0,1-1.961.4,4.655,4.655,0,0,1-2.005-.42l.018.018h0a5.7,5.7,0,0,1-1.635-1.057v-.014a6.2,6.2,0,0,1-1.554-2.308,8.728,8.728,0,0,1-.578-3.188,8,8,0,0,1,.578-3.027,6.779,6.779,0,0,1,1.5-2.389h0a5.586,5.586,0,0,1,1.69-1.161h0a5.418,5.418,0,0,1,1.987-.352,5.385,5.385,0,0,1,1.988.352h0a5.793,5.793,0,0,1,1.608,1.079h0a6.234,6.234,0,0,1,1.581,2.566,8.824,8.824,0,0,1,.569,3.149Zm2.168-.217h.425a10.818,10.818,0,0,0-.678-3.862,8.879,8.879,0,0,0-2-3.189,8.2,8.2,0,0,0-2.7-1.825h0a8.465,8.465,0,0,0-3.379-.664,8.41,8.41,0,0,0-3.433.7h0a9.611,9.611,0,0,0-2.827,1.947h.036a8.589,8.589,0,0,0-1.888,3.094h0a10.471,10.471,0,0,0-.633,3.794,10.345,10.345,0,0,0,.8,4.16h0a8.951,8.951,0,0,0,2.1,3.094h0a7.368,7.368,0,0,0,2.666,1.717h0a8.741,8.741,0,0,0,3.171.578,8.313,8.313,0,0,0,3.216-.606,8.77,8.77,0,0,0,2.864-1.934v0a8.845,8.845,0,0,0,1.924-3.039,10.416,10.416,0,0,0,.75-3.97Zm-18.646,7.592L-72.9,517h-.045a2.7,2.7,0,0,0,.325.311Zm-8.591-7.173-.045-.067-.126.122a.256.256,0,0,1,.172-.054Zm-.289.285.036.226a.121.121,0,0,0,.109-.068Zm-2.764,7.927Zm.433,0V517.9h0v.447Zm-2.132-.447h0v0Zm0,.447h0Zm.443-17.263Zm-.443,0v.433h0Zm13.018,16.51v.028l.325-.313Zm.325-.285L-72.9,517l.28.311.289-.3.308.339-2.259,1.86-.28-.266c-.208-.231-.858-.949-2.006-2.259h0c-1.174-1.3-2.927-3.338-5.321-6.039l-.126-.172.018-.19.027-.393.28-.082a5.931,5.931,0,0,0,1.229-.514h0a6.523,6.523,0,0,0,1.256-.89h0a4.256,4.256,0,0,0,.776-.958h0a3.607,3.607,0,0,0,.28-1.526,2.422,2.422,0,0,0-.442-1.472h0a2.492,2.492,0,0,0-1.22-.894h0a4.489,4.489,0,0,0-1.463-.312,11.642,11.642,0,0,0-1.5-.076c-.289,0-.524.008-.714.008v-.388l.019.388h-.362v-.388h.388c0,1.608-.027,3.068-.027,4.323v2.633c0,1.161,0,2.768.027,4.8,0,2.01.036,3.293.036,3.808v.407H-86.37v-.407c0-.542.018-1.539.018-3.026,0-1.459.045-3.3.045-5.538v-2.362c0-1.165-.045-3.27-.063-6.337v-.42h.406c.063,0,.515,0,1.265-.054h0c.786-.013,1.5-.013,2.15-.013.8,0,1.527.067,2.232.136h0a8.323,8.323,0,0,1,2.168.609h0a4.877,4.877,0,0,1,2.2,1.7h0a4.685,4.685,0,0,1,.831,2.715,4.75,4.75,0,0,1-1.229,3.346,10.745,10.745,0,0,1-2.186,1.879l-.136-.162-.108-.176h.415v.04h-.415l.289-.24.036-.027c1.175,1.373,2.458,2.783,3.876,4.237h0c1.409,1.463,2.123,2.244,2.249,2.353Zm-28.692-16.631v.014l.036.393c.027,1.648.027,3.134.045,4.5h0v3.4c0,2.918,0,5.082-.018,6.486h0c0,1.378-.027,2.335-.027,2.877l-.036.407H-98.3l-.027-5.85h-.443v.416c.858,0,1.635-.054,2.349-.117h0a10.523,10.523,0,0,0,1.987-.339h0a6.542,6.542,0,0,0,3.46-2.2,5.712,5.712,0,0,0,1.31-3.645h0a6.149,6.149,0,0,0-.66-2.986h0a5.723,5.723,0,0,0-1.942-2.069h0a7.713,7.713,0,0,0-2.8-1.038h0a23.566,23.566,0,0,0-3.831-.258h-1.96Zm.47,17.223h-.018v.447Zm-.018.447h0Z" transform="translate(-97.307 -23.308)" fill="#fff" fill-rule="evenodd"/>
    <path id="Path_41" data-name="Path 41" d="M58.354,564.538h-.47c-.388-1.026-.866-2.042-1.337-3.135-.469-1.053-.975-2.173-1.509-3.312a.952.952,0,0,0,.2-.415l.109-.014v.388l-.018.041-.027-.429.045.014.181.415c-.389.895-.858,1.988-1.409,3.216-.6,1.3-1.066,2.367-1.472,3.23h-.452c.045-.136.118-.3.181-.447h5.8l.181.447h0Zm3.432,7.727-.035.042.2.36c-.018-.067-.082-.184-.163-.4Zm.163.4.37-.148v-.054Zm-13.777-.2v.018l.379.184Zm.379.2.181-.36-.017-.042a2.982,2.982,0,0,0-.163.4Zm15.43-1.025.361-.189c-.081-.123-.94-2.014-2.593-5.606q-2.494-5.467-5.059-11.2l-.1-.244H54.361l-.1.217c-1.762,3.848-3.424,7.539-5.077,11.021-1.6,3.515-2.5,5.484-2.728,5.917l-.2.353,2.512,1.364.172-.474c.054-.081.325-.7.813-1.794.515-1.111,1.184-2.652,2.087-4.674l-.37-.163v.42H59.1v-.42l-.4.163c.849,1.86,1.509,3.4,2.042,4.576.488,1.192.786,1.838.795,1.892l.208.446,2.782-1.418-.19-.379Zm-19.649-7.851H43.9a5.213,5.213,0,0,1-.832,2.958,6.659,6.659,0,0,1-2.213,2.1,10.04,10.04,0,0,1-2.719,1.026,14.2,14.2,0,0,1-3.28.366h-.65v.447h.424c-.017-2.449-.017-4.39-.017-5.782v-4.769c0-.9.017-2.042.017-3.365l-.37-.027v.433h.614a16.047,16.047,0,0,1,3.135.352,9.58,9.58,0,0,1,3.1,1.2,5.79,5.79,0,0,1,2.792,5.063Zm-12.223,8.149h-.037v.366Zm.388-16.885Zm-.425.054v.362h.037Zm14.464,8.7h.407a7.842,7.842,0,0,0-3.921-7.137,11.6,11.6,0,0,0-3.8-1.563,21.312,21.312,0,0,0-4.851-.5s-.416,0-1.1.014H31.641l.035.433c.009,2.065.045,3.836.045,5.268v3.55c0,1.744,0,3.554-.036,5.5-.009,1.942-.009,2.932-.009,2.98v.408h.4s.371,0,.958.013,1.148.027,1.762.027a19.082,19.082,0,0,0,4.381-.448,13.813,13.813,0,0,0,3.541-1.444,9.846,9.846,0,0,0,3.072-2.891,7.9,7.9,0,0,0,1.156-4.21Zm-18.682-8.754h0Zm-13.28,17.273v.027l.442-.027Zm.442,0v-.416h0v.416Zm-2-.416H13v.416a2.867,2.867,0,0,1,.027-.416Zm-.027.416.415.027v-.027Zm12.837-17.047v.19h0Zm2.023.19h0v0Zm0-.416h0v-.433h.416v.433c-.027,1.374-.064,2.918-.064,4.643v9.568c.037,1.431.037,2.186.037,2.293v.272l-2.268,1.093-.181-.259q-3.9-5.263-7.29-9.521l-3.6-4.513V558l.036-.027.163.4-.009.014L14.9,558h.036l.371.47c0,2.245.027,4.905.045,8.013.064,3.388.064,5.321.064,5.845v.42H12.551v-.42c.036-.212.036-1,.082-2.294v-9.223c0-1.581-.046-3.216-.082-4.946v-.257l2.539-1.2.2.285c.127.2,1.491,1.865,3.948,5.009,2.377,2.986,4.608,5.8,6.713,8.366v.646h-.036l-.218-.353.037-.027.217.38h-.036l-.389-.475c-.018-1.349-.018-3.427-.063-6.2-.018-3.148-.064-5.475-.064-6.983v-.433h2.457ZM8.026,572.307v-.447h0Zm-10.95-.447h-.045v.447c0-.109.045-.257.045-.447Zm-.045.447.452.022v-.022Zm.452-17.215Zm-.452,0v.42h0Zm10.832,0h0Zm-.407,1.784Zm.407,5.579H7.457v.041a1.927,1.927,0,0,1,.407-.041Zm-.407,1.784Zm.569,6.609V570.5h0Zm-.018-.352h0Zm-.416,1.812Zm.433,0v0h.433v.416H8.026c-.1,0-.678,0-1.717-.055H-.629c-.921.055-1.7.055-2.34.055h-.407v-.416c.018-.542.054-1.609.054-3.257.027-1.663.027-3.378.027-5.135v-3.876c-.027-1.6-.027-3.256-.081-4.946v-.442h.407c.632,0,1.41.04,2.313.04h0c.921,0,1.86.027,2.809.027,1.671,0,3.008-.027,4.047-.027,1.021,0,1.581-.04,1.663-.04h.424V557.3H7.863c-.109,0-.642,0-1.636-.013s-2.231-.028-3.686-.028c-.641,0-1.291.028-1.9.028H-.836v-.434H-.4c0,.975,0,1.96-.027,2.918s-.018,1.893-.018,2.742H-.882v-.43h2.8c1.5,0,2.837,0,4.021-.013H8.287v2.62H7.863c-.081,0-.786,0-2.132-.028H-.882v-.433h.433V568.1c.018.949.018,1.743.045,2.394H-.836v-.42c.514.028,1.1.028,1.843.028s1.472.027,2.349.027c1.238,0,2.33-.027,3.2-.027s1.355-.028,1.472-.028h.433v2.232Zm-16.993.022v-.416h0Zm-2.1-.416h-.028v.416a2.2,2.2,0,0,1,.028-.416Zm-.028.416.433.027v-.027Zm.433-17.273Zm-.433,0v.416h0Zm2.123.416h0v0Zm0-.416h0Zm-.425,17.273v.027l.425-.027Zm.425,0v0h.416v.42h-2.973v-.42c0-.524,0-1.468.045-2.764.036-1.329.036-3.229.036-5.692v-3.849c-.036-1.622-.036-3.257-.081-4.969v-.433h2.973v.433c-.019,1.242-.037,2.688-.037,4.282-.017,1.631-.017,2.973-.017,4.012,0,2.593,0,4.635.017,6.04.018,1.432.018,2.416.037,2.94Zm-20.38-17.183.018-.028-.181-.36c0,.054.09.176.163.388Zm-.163-.388-.407.148.037.041Zm13.777.176h0l-.389-.2Zm-.389-.2-.19.38h0a1.668,1.668,0,0,0,.19-.352Zm1.762.931.217-.365-2.169-1.148-.181.407c-.027.068-.217.5-.631,1.418-.389.877-.949,2.16-1.726,3.876-1.445,3.3-2.9,6.447-4.236,9.419l.189.469h.036v-.4h0v.4h0l.235-.469c-1.337-2.905-2.728-6.026-4.146-9.3-.776-1.7-1.328-3.026-1.716-3.9-.406-.881-.632-1.419-.632-1.419l-.163-.474-2.764,1.418.145.352c.1.176.94,2.029,2.557,5.551s3.315,7.3,5.122,11.267l.072.229h2.277l.127-.229c1.608-3.564,3.288-7.228,5.05-11.022,1.8-3.84,2.7-5.769,2.747-5.9l.145-.366-.335-.176Zm-20.263,16.668v-.416h0v.416Zm-2.132-.416h-.036v.416Zm-.036.416.433.027v-.027Zm.433-17.273Zm-.433,0v.416h.036Zm2.168.416h0v0Zm0-.416h0Zm-.452,17.273v.027l.452-.027Zm.452,0v0h.407v.42h-2.99l.045-.42v-2.764c.036-1.329.036-3.229.036-5.692v-3.849c-.036-1.622-.036-3.257-.036-4.969l-.045-.433h2.99v.433c-.027,1.242-.045,2.688-.045,4.282-.037,1.631-.037,2.973-.037,4.012,0,2.593,0,4.635.037,6.04.018,1.432.018,2.416.045,2.94ZM-55.05,555.146l.063-.028-.207-.36c0,.054.081.176.144.388Zm-.144-.388-.4.148.027.041Zm13.777.176h0l-.371-.2Zm-.371-.2-.207.38h.036c.108-.216.171-.352.171-.352Zm1.762.931.217-.365-2.15-1.148-.217.394a4.192,4.192,0,0,1-.163.406c-.308.687-1.048,2.336-2.177,4.9-1.472,3.3-2.9,6.447-4.255,9.419l.207.469h.055v-.4h-.036v.4h.036l.189-.469c-1.328-2.905-2.719-6.026-4.155-9.3-.759-1.7-1.292-3.026-1.716-3.9-.352-.881-.6-1.419-.6-1.419l-.181-.5-2.764,1.446.144.352c.064.176.922,2.029,2.539,5.551,1.654,3.529,3.334,7.3,5.131,11.267l.081.229h2.258l.145-.229c1.608-3.564,3.306-7.228,5.068-11.022,1.78-3.84,2.683-5.769,2.747-5.9l.144-.366-.334-.176Zm-20.29-.605h0ZM-73.56,572.329v.027l.416-.027v-.416h0v.416Zm-1.59-.416h0v0Zm0,.416.406.027v-.027Zm14.833-16.857h0v0Zm0-.416h0v-.433h.443l-.027.433c0,1.374-.027,2.918-.027,4.643-.018,1.73-.018,2.986-.018,3.745,0,2.444,0,4.391.018,5.824s.027,2.186.027,2.293v.272l-2.259,1.093-.2-.259c-2.62-3.509-5.04-6.684-7.29-9.521-1.825-2.3-3.026-3.781-3.623-4.513V558l.045-.027.226.4h-.045l-.226-.375h.063c.064.09.208.267.371.47,0,2.245.036,4.905.063,8.013.018,3.388.037,5.321.072,5.845v.42h-2.863v-.42c0-.212,0-1,.027-2.294.055-1.323.055-3.147.055-5.5,0-.932,0-2.164-.055-3.727,0-1.581-.027-3.216-.027-4.946v-.257l2.5-1.2.208.285c.154.2,1.464,1.865,3.948,5.009,2.358,2.986,4.607,5.8,6.694,8.366v.646h-.045l-.162-.38h.045l.162.38h-.045l-.388-.475c0-1.349,0-3.427-.054-6.2-.009-3.148-.045-5.475-.045-6.983v-.433h2.43Zm-21.691,8.831h-.424a7.572,7.572,0,0,1-.6,3.041,6.841,6.841,0,0,1-1.491,2.231,5.633,5.633,0,0,1-1.68,1.12,5.276,5.276,0,0,1-2.005.366,5.226,5.226,0,0,1-1.97-.366h0a5.269,5.269,0,0,1-1.617-1.079,6.519,6.519,0,0,1-1.581-2.312,9.253,9.253,0,0,1-.542-3.2,8.484,8.484,0,0,1,.542-3.009,6.451,6.451,0,0,1,1.509-2.394,5.252,5.252,0,0,1,1.689-1.161,5.258,5.258,0,0,1,1.988-.379,5.176,5.176,0,0,1,2.005.379h0A5.335,5.335,0,0,1-84.6,558.2h.036a6.4,6.4,0,0,1,1.59,2.557,9.4,9.4,0,0,1,.542,3.13Zm2.169-.2h.434a10.853,10.853,0,0,0-.678-3.836,9.088,9.088,0,0,0-2.006-3.2,8.4,8.4,0,0,0-2.7-1.833,8.743,8.743,0,0,0-3.4-.665,8.882,8.882,0,0,0-3.415.706,8.006,8.006,0,0,0-2.81,1.955,9.5,9.5,0,0,0-1.9,3.121,10.75,10.75,0,0,0-.623,3.745,10.575,10.575,0,0,0,.776,4.188,9.731,9.731,0,0,0,2.132,3.094h-.036a8.109,8.109,0,0,0,2.7,1.711,8.475,8.475,0,0,0,3.171.583,8.477,8.477,0,0,0,3.234-.609,8.481,8.481,0,0,0,2.846-1.929,8.414,8.414,0,0,0,1.942-3.013,10.276,10.276,0,0,0,.759-4.015Zm-19.071,7.054-.425-.053v.053h.425Zm-.7-14v.027l.425-.027v-.43h-.045a2.125,2.125,0,0,1,.027.43h-.407Zm.651,14.413h.1l-.055-.416a3.978,3.978,0,0,1-.045.416Zm.045-.416-.425-.053.425.053-.018-.419.515-.027-.064.528s-.045.266-.072.6l-.407-.041.407.041c-.055.339-.055.746-.1,1.161l-.036.38h-.84a18.08,18.08,0,0,1-5.709-.795,10.768,10.768,0,0,1-4.174-2.394h0a8.2,8.2,0,0,1-1.843-2.661,8.505,8.505,0,0,1-.668-3.5,7.412,7.412,0,0,1,.668-3.216,8.324,8.324,0,0,1,1.7-2.557,10.291,10.291,0,0,1,4.174-2.444,15.5,15.5,0,0,1,5.484-.93h.966l.018.421c0,.134.055.361.063.713h0c.045.338.045.7.081,1.08l.036.488h-.9a16.1,16.1,0,0,0-3.225.338,10.075,10.075,0,0,0-2.882,1.012,6.477,6.477,0,0,0-2.34,2.231h0a5.373,5.373,0,0,0-.84,2.918,5.932,5.932,0,0,0,.759,2.972,5.914,5.914,0,0,0,2.33,2.227h0a10.759,10.759,0,0,0,2.973,1.107h0a15.844,15.844,0,0,0,3.351.338h.578Z" transform="translate(-92.239 -49.098)" fill="#fff" fill-rule="evenodd"/>
    <path id="Path_42" data-name="Path 42" d="M-304.95,451.4v89.008h22.264V474.621h44.294v22h-22.3v21.822h44.484V451.4Z" transform="translate(0 0)" fill="#fff" fill-rule="evenodd"/>
    <rect id="Rectangle_53" data-name="Rectangle 53" width="171.465" height="2.837" transform="translate(-201.673 498.971)" fill="#fff"/>
    <rect id="Rectangle_54" data-name="Rectangle 54" width="44.938" height="0.755" transform="translate(-283.439 539.652)" fill="#fff"/>
    <rect id="Rectangle_55" data-name="Rectangle 55" width="43.682" height="0.755" transform="translate(-239.255 540.407) rotate(-90)" fill="#fff"/>
  </g>
</svg>
