<svg xmlns="http://www.w3.org/2000/svg" viewBox="0 0 374.09 142"><defs><style>.cls-1{fill:#fff;}</style></defs><title>Logo_Solar_Blanco0</title><g id="Layer_2" data-name="Layer 2"><g id="ELEMNTS"><path class="cls-1" d="M188.75,67.52H173.62c-4.26,0-6.7-2.44-6.7-6.7V59.14c0-4.25,2.44-6.7,6.7-6.7H198.1V44H170.26c-5.4,0-9.32,1.18-11.65,3.51s-3.51,6.25-3.51,11.65v2.52c0,5.4,1.18,9.32,3.51,11.65s6.25,3.51,11.65,3.51h21v7.67a5.56,5.56,0,0,1-5.85,5.86c-5.24,0-15.17-.39-29.53-1.17v8.08c5.51.44,10.94.79,16.16,1l7.72.33c3.16.11,6.19.17,9,.17,5,0,8.69-1.14,10.93-3.38s3.38-5.92,3.38-10.94V81.83c0-5-1.14-8.69-3.38-10.93S193.76,67.52,188.75,67.52Z"/><path class="cls-1" d="M243.38,58.13H224.05c-3.79,0-6.63,1-8.71,3.09s-3.09,4.92-3.09,8.7V87c0,3.78,1,6.63,3.09,8.7s4.92,3.09,8.71,3.09h19.33c3.78,0,6.62-1,8.7-3.09s3.09-4.92,3.09-8.7V69.92c0-3.78-1-6.62-3.09-8.7S247.16,58.13,243.38,58.13Zm.39,27.63c0,3.14-1.88,5-5,5H228.67c-3.14,0-5-1.87-5-5V71.18c0-3.14,1.88-5,5-5h10.08c3.14,0,5,1.87,5,5Z"/><path class="cls-1" d="M278.76,89a4.51,4.51,0,0,1-1.32-3.26V44H266V87.86a10.72,10.72,0,0,0,3,8,9.91,9.91,0,0,0,7.36,3,70.65,70.65,0,0,0,9.06-.62V90.35H282A4.53,4.53,0,0,1,278.76,89Z"/><path class="cls-1" d="M322.8,58.13a254.63,254.63,0,0,0-26.09,1.51V66.9c2.41-.16,5.38-.38,8.86-.64,4.42-.34,8.52-.51,12.18-.51a4.53,4.53,0,0,1,4.6,4.59v2.78H303.47a10.21,10.21,0,0,0-11,10.95v3.79a10.21,10.21,0,0,0,11,11h2.94A24.52,24.52,0,0,0,313,97.66,28.59,28.59,0,0,0,320.63,94l2-1.35L323.73,98h10V69.08A10.21,10.21,0,0,0,322.8,58.13Zm-.45,30.12-1.18.35a37.52,37.52,0,0,1-10.56,1.75h-2.1a4.54,4.54,0,0,1-4.6-4.59v-.85a4.54,4.54,0,0,1,4.6-4.59h13.84Z"/><path class="cls-1" d="M357.92,64l-2.26,2-1.09-7h-9.95V98H356V71l1-.43a28.39,28.39,0,0,1,11.6-2.67h5.49V58.13H372C367.13,58.13,362.41,60.11,357.92,64Z"/><polygon class="cls-1" points="233.04 43.98 230.16 53 237.85 53 243.96 43.98 233.04 43.98"/><path class="cls-1" d="M121.64,33.35,65.23.78a5.89,5.89,0,0,0-5.86,0L2.93,33.35A5.88,5.88,0,0,0,0,38.43v65.14a5.88,5.88,0,0,0,2.93,5.08l56.44,32.57a5.89,5.89,0,0,0,5.86,0l56.41-32.57a5.89,5.89,0,0,0,2.94-5.08V38.43A5.89,5.89,0,0,0,121.64,33.35ZM62.32,96.52A115.86,115.86,0,0,0,3.94,93.93V85.27a124.46,124.46,0,0,1,24.25-2.38A122.23,122.23,0,0,1,77.17,93,111.71,111.71,0,0,0,62.32,96.52Zm47.45-16.88c-2.29-.24-4.6-.42-6.91-.53V51a5.87,5.87,0,0,0-2.93-5.07l-34.7-20a5.89,5.89,0,0,0-5.86,0l-34.72,20A5.88,5.88,0,0,0,21.71,51V79.11q-3.47.18-6.91.53V44.7a1.92,1.92,0,0,1,1-1.66L61.34,16.73a1.93,1.93,0,0,1,1.92,0L108.82,43a1.91,1.91,0,0,1,1,1.66ZM43.42,71a2,2,0,0,0,2,2H77.21V80.4a127.22,127.22,0,0,0-14.87,3.17c-1.53-.42-3.06-.81-4.59-1.18q-5.14-1.22-10.38-2V78.2a2,2,0,1,0-3.95,0v1.65c-2.29-.27-4.6-.48-6.91-.63v-22a1.93,1.93,0,0,1,1-1.66L61.33,41.8a1.93,1.93,0,0,1,1.92,0L87.1,55.57a1.93,1.93,0,0,1,1,1.66v22q-3.47.22-6.9.63v-8.6A2.33,2.33,0,0,0,79,69H47.37v-5.5a1.91,1.91,0,0,1,1-1.66l13-7.51a1.92,1.92,0,0,1,1.91,0l14,8.07v2.19a2,2,0,0,0,4,0V63.27c0-.55,0-1.09,0-1.64a2.86,2.86,0,0,0-.2-1.26,2,2,0,0,0-.78-.84L65.22,50.91a5.86,5.86,0,0,0-5.87,0l-13,7.5a5.87,5.87,0,0,0-2.93,5.08V71ZM89.07,52.15,65.23,38.38a5.91,5.91,0,0,0-5.87,0L35.5,52.15a5.88,5.88,0,0,0-2.93,5.08V79c-1.46,0-2.92-.08-4.38-.08-.84,0-1.69,0-2.53,0V51a1.93,1.93,0,0,1,1-1.66l34.72-20a1.89,1.89,0,0,1,1.92,0L98,49.3a1.93,1.93,0,0,1,1,1.66V79l-2.44,0c-1.5,0-3,0-4.47.08V57.23A5.89,5.89,0,0,0,89.07,52.15ZM84.44,92a128.71,128.71,0,0,0-14.83-6.16,124.49,124.49,0,0,1,51-.58v8.67A116.15,116.15,0,0,0,84.44,92ZM4.9,36.77,61.34,4.2a1.93,1.93,0,0,1,1.92,0l56.41,32.57a1.93,1.93,0,0,1,1,1.66V81.24q-3.43-.66-6.91-1.13V44.7a5.87,5.87,0,0,0-2.93-5.08L65.23,13.32a5.84,5.84,0,0,0-5.86,0L13.79,39.62a5.87,5.87,0,0,0-2.93,5.08V80.12c-2.32.32-4.63.69-6.92,1.13V38.43A1.93,1.93,0,0,1,4.9,36.77Zm-1,66.8V98a112.15,112.15,0,0,1,51.84.8,116.27,116.27,0,0,0-13.31,6,103.64,103.64,0,0,0-36,1.32l-1.52-.87A1.93,1.93,0,0,1,3.94,103.57Zm32.71,4.52a116.85,116.85,0,0,0-12.1,8.48l-12.91-7.45a99.38,99.38,0,0,1,16.55-1.39C31,107.73,33.84,107.86,36.65,108.09Zm59.79,8.12a89.91,89.91,0,0,0-48.28,14L40,125.47a97.87,97.87,0,0,1,56.47-17.74A100.18,100.18,0,0,1,113,109.11L100.5,116.3C99.15,116.24,97.79,116.21,96.44,116.21ZM63.26,137.8a1.93,1.93,0,0,1-1.92,0L52,132.43A85.9,85.9,0,0,1,93.75,120.2Zm56.41-32.57-1.49.87a103.35,103.35,0,0,0-54.58,3.05A102.08,102.08,0,0,0,36.21,123.3l-8-4.61A111.42,111.42,0,0,1,120.63,98v5.62A1.93,1.93,0,0,1,119.67,105.23Z"/><path class="cls-1" d="M155.85,129.63l5-13.48h2.23L168,129.63h-2.16l-1.15-3.29h-5.51L158,129.63Zm3.89-4.91h4.35l-2.18-6.15Z"/><path class="cls-1" d="M174.68,129.63V116.15h4.72a5.66,5.66,0,0,1,2.62.53,3.56,3.56,0,0,1,1.55,1.44,4.18,4.18,0,0,1,.51,2.07,4.12,4.12,0,0,1-.49,2,3.55,3.55,0,0,1-1.53,1.46,5.75,5.75,0,0,1-2.66.54h-2.68v5.43Zm2-7.11h2.58a2.86,2.86,0,0,0,2.07-.62,2.31,2.31,0,0,0,.63-1.71,2.35,2.35,0,0,0-.63-1.74,2.82,2.82,0,0,0-2.07-.63h-2.58Z"/><path class="cls-1" d="M188.49,129.63l5-13.48h2.23l4.93,13.48h-2.15l-1.16-3.29H191.8l-1.15,3.29Zm3.89-4.91h4.35l-2.17-6.15Z"/><path class="cls-1" d="M207.33,129.63V116.15H212a5.67,5.67,0,0,1,2.63.54,3.64,3.64,0,0,1,1.53,1.45,4.21,4.21,0,0,1,.5,2,4,4,0,0,1-.67,2.28,3.67,3.67,0,0,1-2.07,1.46l2.87,5.72h-2.37l-2.62-5.43h-2.4v5.43Zm2-7h2.48a2.69,2.69,0,0,0,2-.68,2.43,2.43,0,0,0,.65-1.75,2.32,2.32,0,0,0-.64-1.72,2.79,2.79,0,0,0-2.06-.65h-2.46Z"/><path class="cls-1" d="M227,129.63V117.8h-4v-1.65h10v1.65h-4v11.83Z"/><path class="cls-1" d="M237.41,129.63l5-13.48h2.23l4.93,13.48h-2.16l-1.15-3.29h-5.51l-1.16,3.29Zm3.89-4.91h4.35l-2.18-6.15Z"/><path class="cls-1" d="M256.24,129.63V116.15h2.41l4.56,9,4.55-9h2.41v13.48h-2v-10l-4.13,8h-1.58l-4.14-8v9.94Z"/><path class="cls-1" d="M277.72,129.63V116.15h8.57v1.65h-6.53V122h5.95v1.62h-5.95V128h6.53v1.66Z"/><path class="cls-1" d="M293.53,129.63V116.15h2l6.76,10.15V116.15h2v13.48h-2l-6.76-10.15v10.15Z"/><path class="cls-1" d="M315.08,129.63V117.8h-4v-1.65h10v1.65h-4v11.83Z"/><path class="cls-1" d="M333.43,129.86a6.68,6.68,0,0,1-3.5-.89,6.09,6.09,0,0,1-2.35-2.45,8.18,8.18,0,0,1,0-7.26,6.12,6.12,0,0,1,2.35-2.46,7.42,7.42,0,0,1,7,0,6.16,6.16,0,0,1,2.34,2.46,8.35,8.35,0,0,1,0,7.26,6.14,6.14,0,0,1-2.34,2.45A6.69,6.69,0,0,1,333.43,129.86Zm0-1.83a4.54,4.54,0,0,0,2.42-.62,4.2,4.2,0,0,0,1.61-1.77,6.94,6.94,0,0,0,0-5.51,4.2,4.2,0,0,0-1.61-1.77,4.63,4.63,0,0,0-2.42-.61,4.72,4.72,0,0,0-2.43.61,4.11,4.11,0,0,0-1.6,1.77,6.94,6.94,0,0,0,0,5.51,4.11,4.11,0,0,0,1.6,1.77A4.63,4.63,0,0,0,333.43,128Z"/><path class="cls-1" d="M351.65,129.86a6,6,0,0,1-2.6-.52,4.08,4.08,0,0,1-1.74-1.48,4.19,4.19,0,0,1-.65-2.29h2.16a2.6,2.6,0,0,0,.75,1.83,3.23,3.23,0,0,0,3.9.18,1.85,1.85,0,0,0,.66-1.46,1.93,1.93,0,0,0-.31-1.15,2.41,2.41,0,0,0-.87-.73,7.34,7.34,0,0,0-1.26-.52l-1.5-.5a5.65,5.65,0,0,1-2.34-1.35,3,3,0,0,1-.78-2.18,3.35,3.35,0,0,1,.53-2,3.56,3.56,0,0,1,1.54-1.32,5.85,5.85,0,0,1,4.62,0,3.64,3.64,0,0,1,2.13,3.33h-2.16a1.94,1.94,0,0,0-.27-1,2,2,0,0,0-.79-.78,2.82,2.82,0,0,0-2.86.17,1.69,1.69,0,0,0-.63,1.39,1.56,1.56,0,0,0,.47,1.21,3.55,3.55,0,0,0,1.27.7l1.85.65a9.48,9.48,0,0,1,1.79.79,3.74,3.74,0,0,1,1.26,1.21,3.58,3.58,0,0,1,.47,1.91,3.65,3.65,0,0,1-.52,1.9,3.86,3.86,0,0,1-1.56,1.42A5.38,5.38,0,0,1,351.65,129.86Z"/></g></g></svg>