<svg xmlns="http://www.w3.org/2000/svg" xmlns:xlink="http://www.w3.org/1999/xlink" width="421" height="421" viewBox="0 0 421 421">
  <defs>
    <style>
      .cls-1 {
        filter: url(#filter);
      }

      .cls-2 {
        filter: url(#filter-2);
      }

      .cls-3, .cls-4, .cls-6 {
        fill-rule: evenodd;
      }

      .cls-3 {
        fill: url(#linear-gradient);
      }

      .cls-4 {
        fill: url(#linear-gradient-2);
      }

      .cls-5 {
        filter: url(#filter-3);
      }

      .cls-6 {
        fill: #fefefe;
        filter: url(#filter-4);
      }
    </style>
    <filter id="filter" filterUnits="userSpaceOnUse">
      <feOffset result="offset" dy="3" in="SourceAlpha"/>
      <feGaussianBlur result="blur" stdDeviation="2.828"/>
      <feFlood result="flood" flood-opacity="0.28"/>
      <feComposite result="composite" operator="in" in2="blur"/>
      <feBlend result="blend" in="SourceGraphic"/>
    </filter>
    <filter id="filter-2" filterUnits="userSpaceOnUse">
      <feOffset result="offset" dy="5" in="SourceAlpha"/>
      <feGaussianBlur result="blur" stdDeviation="6.083"/>
      <feFlood result="flood" flood-opacity="0.04"/>
      <feComposite result="composite" operator="in" in2="blur"/>
      <feBlend result="blend" in="SourceGraphic"/>
    </filter>
    <linearGradient id="linear-gradient" x1="210.391" y1="413.438" x2="210.391" y2="7.313" gradientUnits="userSpaceOnUse">
      <stop offset="-0.05" stop-color="#20b038"/>
      <stop offset="1.05" stop-color="#67d670"/>
    </linearGradient>
    <linearGradient id="linear-gradient-2" x1="210.391" y1="420.719" x2="210.391" y2="0.031" gradientUnits="userSpaceOnUse">
      <stop offset="0" stop-color="#f9f9f9"/>
      <stop offset="1" stop-color="#fff"/>
    </linearGradient>
    <filter id="filter-3" filterUnits="userSpaceOnUse">
      <feOffset result="offset" dy="5" in="SourceAlpha"/>
      <feGaussianBlur result="blur" stdDeviation="4"/>
      <feFlood result="flood" flood-opacity="0.06"/>
      <feComposite result="composite" operator="in" in2="blur"/>
      <feBlend result="blend" in="SourceGraphic"/>
    </filter>
    <filter id="filter-4" x="98" y="106" width="227" height="210" filterUnits="userSpaceOnUse">
      <feOffset result="offset" in="SourceAlpha"/>
      <feGaussianBlur result="blur" stdDeviation="2.236"/>
      <feFlood result="flood" flood-opacity="0.07"/>
      <feComposite result="composite" operator="in" in2="blur"/>
      <feBlend result="blend" in="SourceGraphic"/>
    </filter>
  </defs>
  <g id="WhatsApp_Logo" data-name="WhatsApp Logo" class="cls-1">
    <g id="WA_Logo" data-name="WA Logo" class="cls-2">
      <path class="cls-3" d="M7.526,413.43l28.66-104.285A200.309,200.309,0,0,1,9.221,208.535C9.265,97.574,99.89,7.3,211.241,7.3a201.666,201.666,0,0,1,202.02,201.4c-0.045,110.96-90.678,201.244-202.018,201.244H211.16a202.468,202.468,0,0,1-96.54-24.5Z"/>
      <path class="cls-4" d="M0.25,420.714L29.938,312.689A207.488,207.488,0,0,1,2.005,208.47C2.051,93.529,95.927.017,211.271,0.017A208.9,208.9,0,0,1,420.537,208.634C420.491,323.577,326.607,417.1,211.274,417.1h-0.086a209.759,209.759,0,0,1-100-25.373Zm116.075-66.73,6.351,3.755A174.167,174.167,0,0,0,211.2,381.891h0.071c95.868,0,173.894-77.727,173.932-173.269a173.628,173.628,0,0,0-173.863-173.4c-95.94,0-173.967,77.721-174,173.255A172.389,172.389,0,0,0,63.93,300.694l4.136,6.553L50.495,371.186Z"/>
      <g id="_2" data-name="2" class="cls-5">
        <path class="cls-6" d="M158.97,121.324c-3.916-8.677-8.037-8.853-11.764-9-3.048-.127-6.536-0.12-10.021-0.12a19.243,19.243,0,0,0-13.944,6.521c-4.793,5.212-18.3,17.814-18.3,43.452s18.736,50.408,21.35,53.883,36.175,57.77,89.323,78.654c44.169,17.354,53.158,13.9,62.744,13.035s30.936-12.6,35.293-24.768,4.357-22.6,3.05-24.771-4.793-3.475-10.022-6.082-30.936-15.211-35.729-16.948-8.278-2.607-11.764,2.608-13.507,16.947-16.558,20.422-6.1,3.914-11.328,1.306-22.077-8.108-42.049-25.854c-15.543-13.811-26.038-30.871-29.088-36.087s-0.325-8.033,2.293-10.628c2.352-2.335,5.229-6.085,7.843-9.127s3.486-5.212,5.229-8.69,0.871-6.518-.436-9.126S163.62,131.627,158.97,121.324Z"/>
      </g>
    </g>
  </g>
</svg>
