<svg xmlns="http://www.w3.org/2000/svg" width="59.149" height="59.433" viewBox="0 0 59.149 59.433"><defs><style>.a{fill:#fd8568;fill-rule:evenodd;}</style></defs><path class="a" d="M50.781,8.637A29.458,29.458,0,0,0,4.428,44.172L.25,59.433l15.612-4.1a29.419,29.419,0,0,0,14.074,3.585h.012A29.463,29.463,0,0,0,50.781,8.637ZM29.948,53.949h-.01a24.448,24.448,0,0,1-12.459-3.412l-.893-.531-9.265,2.43L9.794,43.4l-.582-.926A24.478,24.478,0,1,1,29.948,53.949ZM43.375,35.616c-.736-.369-4.354-2.148-5.028-2.394s-1.165-.368-1.655.369-1.9,2.394-2.33,2.885-.858.553-1.594.184a20.1,20.1,0,0,1-5.918-3.653,22.2,22.2,0,0,1-4.094-5.1c-.429-.737,0-1.1.323-1.5a20.815,20.815,0,0,0,1.84-2.517,1.353,1.353,0,0,0-.062-1.289c-.184-.368-1.655-3.99-2.268-5.464-.6-1.434-1.2-1.241-1.656-1.263-.429-.021-.92-.026-1.41-.026a2.7,2.7,0,0,0-1.962.921,8.253,8.253,0,0,0-2.575,6.139c0,3.622,2.637,7.121,3,7.612s5.189,7.924,12.571,11.111a42.116,42.116,0,0,0,4.2,1.55,10.088,10.088,0,0,0,4.635.292c1.414-.211,4.353-1.78,4.967-3.5a6.149,6.149,0,0,0,.429-3.5C44.6,36.168,44.11,35.984,43.375,35.616Zm0,0" transform="translate(-0.25)"/></svg>