<?xml version="1.0" standalone="no"?>
<!DOCTYPE svg PUBLIC "-//W3C//DTD SVG 20010904//EN"
 "http://www.w3.org/TR/2001/REC-SVG-20010904/DTD/svg10.dtd">
<svg version="1.0" xmlns="http://www.w3.org/2000/svg"
 width="956.000000pt" height="956.000000pt" viewBox="0 0 956.000000 956.000000"
 preserveAspectRatio="xMidYMid meet">
<metadata>
Created by potrace 1.11, written by Peter Selinger 2001-2013
</metadata>
<g transform="translate(0.000000,956.000000) scale(0.100000,-0.100000)"
fill="#000000" stroke="none">
<path d="M4694 9551 c-30 -8 -111 -45 -169 -79 -28 -16 -136 -79 -435 -252
-69 -40 -145 -84 -169 -98 -25 -14 -67 -38 -93 -53 -27 -16 -50 -29 -52 -29
-2 0 -45 -25 -95 -55 -51 -30 -94 -55 -97 -55 -3 0 -18 -8 -32 -19 -15 -10
-47 -29 -72 -43 -25 -14 -85 -48 -134 -77 -49 -28 -93 -51 -97 -51 -5 0 -9 -4
-9 -8 0 -4 -12 -13 -27 -20 -16 -6 -41 -20 -58 -30 -16 -10 -51 -30 -77 -45
-25 -14 -63 -36 -85 -49 -21 -14 -45 -27 -53 -31 -8 -4 -22 -11 -30 -17 -42
-28 -172 -100 -180 -100 -6 0 -10 -4 -10 -10 0 -5 -4 -10 -9 -10 -5 0 -149
-81 -320 -180 -172 -99 -331 -190 -354 -204 -23 -13 -111 -64 -195 -112 -84
-49 -174 -100 -200 -114 -26 -14 -49 -28 -52 -31 -3 -3 -30 -19 -60 -36 -54
-29 -116 -65 -155 -91 -11 -6 -26 -15 -34 -19 -8 -3 -63 -35 -123 -70 -60 -35
-113 -63 -119 -63 -5 0 -9 -4 -9 -10 0 -5 -4 -10 -9 -10 -17 0 -307 -171 -349
-207 -52 -42 -102 -118 -125 -188 -15 -46 -16 -236 -13 -2315 1 -1246 5 -2274
7 -2285 11 -44 62 -131 102 -171 25 -26 119 -88 231 -154 104 -60 190 -110
191 -110 1 0 54 -30 116 -66 63 -37 134 -78 159 -92 25 -14 74 -42 109 -64 34
-21 66 -38 71 -38 4 0 18 -8 31 -18 13 -10 53 -35 89 -54 36 -20 100 -57 143
-82 43 -25 82 -46 87 -46 6 0 10 -3 10 -7 0 -5 10 -13 23 -19 37 -17 112 -59
117 -65 3 -3 20 -12 38 -20 17 -8 32 -17 32 -21 0 -5 7 -8 15 -8 8 0 15 -4 15
-8 0 -4 12 -13 27 -19 29 -12 104 -54 113 -63 3 -3 34 -20 70 -39 36 -19 67
-37 70 -40 3 -4 28 -18 55 -33 71 -38 218 -125 232 -137 7 -6 16 -11 21 -11
10 0 119 -62 139 -80 7 -5 15 -10 18 -10 4 0 45 -23 93 -51 48 -29 107 -63
132 -77 25 -14 101 -57 170 -97 69 -40 141 -82 160 -93 19 -11 91 -52 160 -92
69 -40 141 -81 160 -92 100 -57 125 -73 128 -80 2 -4 12 -8 23 -8 10 0 19 -4
19 -10 0 -5 5 -10 10 -10 6 0 34 -15 63 -33 29 -19 55 -34 60 -35 4 -1 17 -8
30 -16 18 -11 162 -95 392 -227 148 -86 248 -106 363 -74 48 14 322 160 378
202 5 4 30 19 55 32 24 14 140 80 258 148 117 68 217 123 222 123 5 0 9 5 9
10 0 6 4 10 9 10 6 0 80 40 165 90 86 50 160 90 165 90 5 0 11 4 13 8 3 7 110
70 530 311 18 10 60 34 93 53 33 19 76 44 95 54 19 10 37 22 38 27 2 4 8 7 13
7 5 0 42 19 82 43 39 24 131 77 202 118 72 40 132 76 135 79 3 3 16 11 30 18
14 6 48 25 75 41 28 16 73 41 100 56 28 15 57 33 66 41 8 8 18 14 21 14 4 0
51 26 105 57 55 32 111 65 126 73 14 8 63 36 108 63 45 26 86 47 90 47 5 0 9
5 9 11 0 5 5 7 10 4 6 -3 10 -1 10 4 0 6 4 11 9 11 4 0 124 68 266 150 141 83
260 150 263 150 3 0 13 6 21 14 9 8 23 16 31 18 8 2 17 6 20 9 3 3 33 22 67
43 84 50 164 144 179 211 2 6 7 26 13 45 8 24 11 726 11 2285 -1 2225 -1 2251
-21 2308 -51 150 -67 163 -568 448 -69 39 -107 61 -206 119 -287 168 -468 270
-476 270 -5 0 -9 5 -9 10 0 6 -5 10 -10 10 -6 0 -27 11 -48 23 -39 25 -99 59
-192 110 -30 16 -62 36 -71 43 -8 8 -18 14 -21 14 -3 0 -88 48 -189 107 -101
58 -204 118 -229 132 -25 13 -48 30 -52 35 -4 6 -8 7 -8 3 0 -5 -12 0 -27 11
-24 16 -102 62 -271 158 -21 11 -54 30 -74 42 -21 12 -55 32 -75 43 -21 12
-51 30 -68 40 -16 11 -36 22 -44 26 -15 7 -346 197 -371 213 -20 12 -115 68
-160 93 -19 10 -107 61 -195 112 -88 51 -176 101 -195 112 -40 23 -132 76
-199 115 -25 16 -55 33 -66 38 -11 6 -29 16 -40 23 -174 106 -283 136 -401
108z m171 -281 c17 -10 54 -31 83 -49 29 -17 57 -31 62 -31 6 0 10 -4 10 -9 0
-5 8 -11 18 -15 9 -3 31 -13 47 -23 68 -40 240 -140 288 -167 29 -16 159 -92
290 -168 131 -76 243 -138 248 -138 5 0 9 -4 9 -10 0 -5 5 -10 10 -10 6 0 80
-40 165 -90 84 -49 169 -98 187 -108 69 -39 149 -86 245 -144 34 -21 64 -38
67 -38 2 0 66 -36 142 -81 77 -45 168 -97 204 -117 36 -19 89 -50 118 -69 29
-18 54 -33 56 -33 3 0 50 -27 106 -60 56 -33 104 -60 106 -60 3 0 30 -16 61
-36 31 -19 65 -40 77 -45 12 -5 35 -18 51 -29 17 -10 41 -25 55 -33 83 -46
129 -73 162 -94 21 -12 42 -23 48 -23 5 0 10 -5 10 -10 0 -6 3 -9 8 -8 4 1 18
-5 32 -14 55 -35 152 -88 161 -88 5 0 9 -4 9 -10 0 -5 4 -10 10 -10 5 0 49
-23 97 -52 48 -29 109 -63 134 -77 166 -93 412 -238 432 -255 13 -12 27 -34
32 -51 8 -30 15 -2888 7 -2913 -3 -7 -12 -10 -21 -8 -9 3 -31 8 -48 11 -46 7
-84 14 -113 20 -14 3 -45 8 -70 11 -25 3 -56 7 -70 10 -46 7 -115 17 -127 17
-10 0 -13 249 -14 1209 -1 664 -2 1216 -3 1226 -8 77 -50 165 -104 219 -53 54
-61 59 -222 152 -80 46 -158 91 -175 101 -57 34 -160 92 -215 122 -30 17 -62
37 -71 44 -8 8 -18 14 -22 14 -3 0 -30 14 -59 31 -29 18 -66 39 -83 49 -16 9
-133 77 -260 150 -126 73 -244 140 -260 150 -17 9 -87 50 -155 90 -69 40 -138
80 -155 90 -53 30 -166 95 -193 111 -15 9 -49 28 -77 43 -27 16 -87 50 -131
77 -45 27 -85 49 -90 49 -4 0 -15 6 -23 14 -9 7 -43 28 -76 46 -33 18 -139 79
-235 135 -96 56 -195 113 -220 127 -53 29 -148 85 -170 98 -54 34 -172 100
-179 100 -5 0 -11 3 -13 8 -6 14 -143 80 -183 87 -106 21 -196 7 -289 -43 -28
-15 -53 -29 -56 -33 -3 -3 -12 -8 -20 -12 -8 -3 -42 -22 -75 -42 -33 -19 -71
-41 -85 -47 -14 -7 -27 -15 -30 -18 -3 -3 -15 -11 -28 -18 -109 -61 -398 -228
-402 -232 -3 -3 -18 -12 -35 -21 -16 -9 -195 -111 -396 -227 -201 -116 -382
-219 -402 -231 -19 -11 -54 -31 -76 -45 -22 -15 -43 -26 -46 -26 -3 0 -31 -16
-61 -35 -30 -19 -55 -34 -57 -33 -1 1 -20 -10 -42 -24 -22 -14 -74 -44 -115
-67 -41 -23 -97 -56 -125 -72 -27 -17 -62 -35 -77 -42 -16 -6 -28 -15 -28 -19
0 -4 -4 -8 -9 -8 -5 0 -55 -27 -111 -60 -56 -33 -104 -60 -107 -60 -2 0 -24
-14 -49 -30 -24 -17 -44 -27 -44 -23 0 4 -4 3 -8 -3 -4 -5 -27 -21 -52 -35
-60 -34 -432 -248 -498 -288 -29 -17 -55 -31 -58 -31 -6 0 -90 -87 -109 -112
-15 -19 -43 -87 -53 -128 -7 -28 -16 -262 -13 -330 1 -8 1 -62 0 -120 0 -58 0
-112 0 -120 1 -8 1 -62 0 -120 0 -58 0 -112 0 -120 0 -8 0 -350 0 -760 0 -410
0 -752 1 -760 2 -42 -2 -135 -6 -140 -3 -3 -9 -5 -12 -5 -4 -1 -29 -5 -57 -9
-27 -5 -59 -10 -70 -11 -66 -9 -112 -17 -126 -21 -10 -3 -30 -6 -45 -9 -16 -2
-44 -6 -61 -9 -18 -3 -45 -8 -60 -11 l-28 -4 0 1457 c0 1417 1 1459 19 1488
25 38 91 84 169 117 15 6 27 14 27 17 0 4 23 17 50 30 28 13 50 27 50 32 0 4
5 8 11 8 8 0 319 175 389 220 8 5 51 30 95 55 44 25 87 50 95 55 28 17 264
153 320 183 30 16 60 33 65 38 9 6 139 81 255 147 25 13 57 33 72 43 14 11 29
19 32 19 4 0 55 29 114 63 188 112 563 327 569 327 4 0 14 6 22 14 9 7 36 24
61 37 25 13 47 26 50 29 3 3 14 10 25 16 89 49 149 83 204 116 34 21 65 38 66
38 2 0 79 44 172 98 92 54 227 131 298 172 72 40 133 78 137 84 4 6 8 8 8 4 0
-4 25 8 55 27 30 19 57 35 60 35 3 0 24 11 46 26 22 14 57 34 77 46 20 11 84
47 141 81 153 89 186 97 256 57z m-13 -840 c59 -28 131 -71 140 -84 4 -6 8 -8
8 -4 0 4 29 -10 65 -32 36 -22 69 -40 74 -40 5 0 11 -3 13 -7 2 -5 17 -15 33
-24 28 -15 306 -175 660 -379 163 -95 175 -102 280 -161 33 -18 62 -37 63 -41
2 -4 8 -8 13 -8 5 0 64 -32 132 -71 67 -40 142 -83 167 -97 25 -14 62 -36 82
-49 21 -12 39 -23 41 -23 2 0 78 -43 168 -96 90 -53 187 -109 214 -124 55 -31
571 -328 735 -424 58 -33 118 -68 133 -76 56 -28 96 -73 104 -115 5 -22 8
-564 8 -1205 l-1 -1165 -50 1 c-27 1 -78 4 -114 7 -94 9 -241 20 -273 20 -19
1 -26 5 -23 14 3 7 2 13 -2 13 -9 0 -7 283 2 298 4 7 4 12 -1 12 -10 0 -9 62
1 78 4 7 4 12 -1 12 -10 0 -10 91 1 108 4 7 4 12 -1 12 -10 0 -9 242 1 259 4
6 4 11 -1 11 -4 0 -8 18 -8 40 0 22 4 40 8 40 5 0 5 5 1 12 -10 17 -11 108 -1
108 4 0 4 8 -1 18 -9 21 -8 234 2 250 4 7 4 12 -1 12 -10 0 -9 62 1 78 4 7 4
12 -1 12 -10 0 -10 91 1 108 4 7 4 12 -1 12 -10 0 -9 242 1 259 4 6 4 11 -1
11 -4 0 -8 44 -9 99 0 54 -4 107 -9 117 -4 10 -7 22 -7 27 4 15 -54 111 -89
147 -36 37 -184 133 -246 161 -18 8 -33 17 -33 21 0 5 -7 8 -15 8 -8 0 -15 5
-15 10 0 6 -5 10 -11 10 -8 0 -183 99 -311 175 -9 6 -29 17 -45 26 -94 53
-132 75 -163 94 -19 12 -42 25 -50 29 -8 4 -24 12 -35 19 -11 7 -110 63 -220
126 -110 63 -201 118 -203 123 -2 4 -12 8 -23 8 -10 0 -19 3 -19 8 0 4 -17 16
-37 27 -21 11 -65 36 -98 55 -34 20 -68 39 -75 43 -8 4 -33 18 -55 32 -22 14
-47 28 -55 32 -8 4 -31 16 -50 28 -19 12 -56 33 -81 47 -80 45 -94 53 -99 58
-6 6 -84 49 -117 64 -13 6 -23 14 -23 19 0 4 -4 7 -9 7 -6 0 -76 39 -158 87
-186 108 -260 146 -272 139 -5 -4 -12 -2 -15 2 -8 13 -140 14 -189 2 -39 -10
-105 -38 -117 -50 -3 -3 -14 -10 -25 -16 -77 -42 -303 -171 -375 -214 -8 -5
-60 -35 -115 -67 -55 -32 -109 -63 -120 -70 -11 -7 -27 -16 -35 -20 -8 -4 -59
-33 -113 -65 -54 -32 -103 -58 -108 -58 -5 0 -9 -4 -9 -10 0 -5 -5 -10 -11
-10 -6 0 -58 -28 -117 -63 -59 -35 -114 -66 -122 -70 -8 -4 -24 -13 -35 -20
-127 -76 -236 -137 -244 -137 -6 0 -11 -4 -11 -10 0 -5 -11 -12 -25 -16 -14
-3 -25 -10 -25 -15 0 -5 -4 -9 -9 -9 -5 0 -49 -23 -98 -51 -48 -29 -107 -62
-131 -76 -23 -13 -91 -52 -151 -87 -59 -34 -114 -66 -122 -69 -8 -4 -27 -16
-44 -26 -16 -11 -52 -31 -78 -46 -215 -116 -294 -177 -342 -260 -53 -92 -52
-66 -53 -1110 0 -533 -1 -973 -1 -976 -1 -3 -20 -6 -43 -7 -58 -2 -176 -11
-273 -21 -44 -4 -95 -7 -114 -7 l-35 1 0 1165 c-1 641 2 1183 7 1205 4 22 12
42 18 43 5 2 7 7 4 11 -4 7 45 38 249 158 12 7 28 16 36 20 8 4 48 26 88 50
40 24 77 43 82 43 6 0 10 5 10 10 0 6 4 10 9 10 5 0 49 23 98 51 48 29 108 63
133 77 25 13 50 28 55 32 9 7 46 28 125 72 19 11 49 27 65 37 17 10 91 53 165
96 74 43 149 86 165 96 17 11 37 22 45 26 8 4 58 32 110 63 52 31 102 59 110
63 8 4 24 13 35 20 11 7 56 33 100 58 44 25 198 114 343 197 324 188 776 449
816 472 17 10 71 41 119 69 49 28 92 51 97 51 5 0 10 4 12 8 6 14 72 42 100
42 14 0 46 -9 70 -20z m20 -852 c24 -14 88 -51 143 -83 55 -31 116 -66 135
-77 19 -11 76 -44 125 -73 50 -29 107 -62 128 -74 51 -29 75 -42 295 -170 219
-127 246 -143 321 -185 29 -17 74 -43 100 -59 25 -15 58 -32 74 -38 15 -6 27
-15 27 -19 0 -4 12 -13 28 -19 15 -6 41 -19 58 -30 101 -62 417 -241 425 -241
5 0 9 -3 9 -7 0 -5 10 -13 23 -19 39 -19 142 -77 155 -87 14 -11 85 -52 122
-70 14 -6 31 -17 38 -24 7 -7 20 -13 28 -13 8 0 14 -4 14 -10 0 -5 5 -10 10
-10 6 0 28 -11 50 -25 76 -48 71 17 71 -968 0 -485 0 -916 0 -957 l-1 -75
-230 -1 c-156 0 -230 3 -231 10 0 6 -2 351 -4 766 -2 415 -5 766 -8 780 -12
65 -102 201 -149 226 -24 13 -154 89 -213 124 -27 17 -60 35 -72 40 -11 5 -24
14 -28 19 -3 6 -15 11 -26 11 -10 0 -19 4 -19 8 0 5 -15 16 -32 25 -18 9 -54
29 -80 45 -77 44 -300 173 -323 186 -11 6 -23 15 -26 19 -3 5 -9 8 -13 8 -3
-1 -16 5 -29 13 -24 15 -196 114 -267 154 -25 14 -57 33 -72 43 -14 11 -29 19
-32 19 -4 0 -84 45 -177 100 -94 55 -174 100 -177 100 -3 0 -13 7 -22 15 -9 8
-47 27 -86 43 -60 25 -81 29 -154 27 -55 -1 -101 -9 -130 -20 -35 -15 -442
-246 -640 -364 -19 -11 -51 -29 -70 -39 -58 -32 -234 -133 -245 -142 -5 -4
-41 -25 -80 -45 -38 -21 -73 -43 -77 -49 -4 -6 -8 -7 -8 -3 0 5 -12 0 -28 -10
-36 -24 -57 -36 -117 -71 -27 -16 -66 -38 -85 -49 -19 -11 -94 -54 -167 -96
-165 -95 -202 -119 -233 -151 -43 -43 -51 -55 -83 -124 l-31 -67 -1 -775 -1
-775 -228 0 c-125 0 -230 4 -233 8 -2 4 -5 430 -5 947 0 690 3 949 12 975 13
38 47 65 165 130 39 22 72 41 75 44 3 3 30 19 60 35 30 16 62 35 71 42 8 8 18
14 22 14 4 0 44 23 91 50 47 28 89 50 95 50 6 0 11 4 11 9 0 5 12 14 28 20 15
7 55 28 90 49 34 20 165 96 290 168 301 173 623 359 664 383 18 11 67 39 108
62 41 23 91 52 110 64 19 12 38 23 42 24 5 0 32 17 62 36 30 19 57 35 59 35 4
0 150 84 275 159 29 17 57 31 62 31 6 0 10 5 10 11 0 5 4 8 8 5 4 -2 14 -1 22
4 22 14 77 4 122 -22z m141 -926 c94 -55 195 -112 222 -127 28 -15 57 -34 66
-41 8 -8 18 -14 22 -14 3 0 83 -45 177 -100 95 -55 174 -100 176 -100 3 0 21
-11 42 -23 72 -46 97 -61 102 -61 3 0 55 -30 115 -66 61 -36 117 -69 125 -73
8 -4 38 -20 65 -37 28 -16 70 -41 95 -55 25 -14 52 -29 60 -35 52 -33 153 -90
160 -90 13 0 70 -60 71 -75 1 -15 4 -28 9 -42 1 -5 1 -12 0 -18 -2 -8 0 -331
2 -360 0 -5 0 -28 -1 -50 -1 -22 -1 -49 -1 -60 0 -11 1 -96 1 -190 0 -93 0
-174 1 -180 0 -5 0 -28 -1 -50 -1 -22 -1 -49 -1 -60 1 -60 1 -366 0 -400 -1
-22 -3 -58 -3 -80 -2 -32 -6 -40 -22 -41 -43 -3 -202 -16 -238 -19 -20 -2 -63
-7 -95 -10 -31 -4 -68 -7 -82 -8 l-25 -2 0 305 c-1 278 -3 308 -19 340 -21 38
-38 55 -76 72 -18 8 -323 12 -1100 12 l-1075 1 -2 198 c-1 109 2 210 7 223 14
37 80 86 153 115 15 6 27 14 27 18 0 4 16 13 35 21 19 8 35 17 35 22 0 4 6 8
14 8 7 0 19 7 26 15 7 8 16 12 21 9 5 -3 9 -2 9 3 0 4 10 13 23 19 12 6 67 37
122 69 200 116 217 125 226 125 5 0 9 5 9 10 0 6 4 10 10 10 5 0 40 19 77 41
106 65 178 99 209 99 33 0 34 0 204 -97 87 -49 407 -234 420 -243 8 -5 33 -19
55 -31 22 -12 47 -27 55 -34 8 -8 17 -13 20 -13 3 1 31 -14 63 -33 33 -19 78
-45 100 -58 93 -52 87 -42 87 -137 0 -95 13 -130 59 -163 33 -23 71 -29 119
-17 24 6 41 20 61 51 27 42 27 47 26 182 0 85 -6 151 -13 169 -12 27 -62 69
-105 86 -10 4 -38 21 -62 38 -24 16 -46 30 -50 30 -5 0 -271 152 -315 180 -8
5 -51 30 -95 55 -103 59 -99 56 -178 104 -38 23 -69 41 -71 41 -1 0 -54 29
-116 65 -63 36 -133 70 -155 76 -92 25 -208 15 -285 -26 -19 -10 -163 -92
-320 -183 -157 -91 -294 -170 -305 -176 -330 -181 -416 -254 -450 -381 -5 -16
-10 -37 -12 -45 -3 -8 -6 -148 -7 -310 -1 -327 0 -335 63 -377 l34 -23 1088 0
1089 0 0 -249 c0 -280 8 -253 -80 -266 -25 -4 -56 -10 -70 -12 -14 -3 -34 -6
-45 -7 -11 -1 -24 -4 -30 -7 -5 -3 -22 -5 -37 -4 -16 1 -28 -2 -28 -7 0 -4 -3
-7 -7 -6 -7 2 -85 -10 -118 -18 -15 -3 -167 -35 -190 -40 -11 -2 -65 -15 -120
-29 -55 -14 -109 -27 -120 -30 -19 -4 -57 -12 -62 -14 -2 -1 -6 -2 -10 -3 -5
-1 -26 -7 -48 -13 -26 -8 -51 -9 -70 -3 -112 33 -452 113 -555 132 -14 2 -59
11 -100 20 -41 8 -91 18 -110 20 -19 3 -64 10 -100 17 -36 6 -73 11 -83 11
-24 -1 -26 7 -30 109 -4 97 -18 128 -69 155 -35 18 -86 25 -94 12 -3 -4 -14
-8 -24 -8 -12 0 -31 -17 -47 -42 -23 -34 -28 -54 -30 -107 -2 -85 -2 -83 -11
-77 -5 3 -40 8 -78 11 -38 3 -85 7 -104 9 -51 6 -211 19 -242 20 l-28 1 -1
120 c0 66 0 407 0 758 1 656 1 662 40 697 17 15 29 22 95 60 89 49 202 115
206 120 3 3 14 10 25 16 102 55 301 170 303 176 2 5 8 8 13 8 5 0 64 32 132
71 67 40 138 81 157 92 64 36 504 289 585 337 132 77 161 89 200 80 20 -4 113
-53 208 -108z m-2028 -2686 c169 -11 242 -16 270 -21 17 -2 68 -7 115 -10 47
-4 89 -9 93 -12 4 -2 36 -7 70 -9 34 -2 69 -6 77 -9 8 -2 41 -7 73 -10 32 -4
68 -8 80 -11 12 -2 38 -7 57 -10 56 -9 83 -13 110 -19 46 -9 85 -16 115 -20
17 -3 41 -7 55 -10 14 -4 36 -8 50 -11 74 -14 310 -68 410 -94 63 -17 122 -32
130 -34 8 -2 49 -14 90 -26 41 -11 82 -23 90 -25 30 -8 336 -106 355 -115 23
-10 135 -51 150 -55 6 -1 17 -5 25 -8 34 -14 76 -30 85 -33 6 -1 60 -23 120
-48 61 -25 116 -46 123 -46 6 0 12 -4 12 -10 0 -5 7 -10 15 -10 8 0 15 -4 15
-8 0 -4 -35 -13 -77 -20 -82 -12 -91 -14 -163 -31 -25 -7 -58 -13 -75 -16 -26
-3 -46 -7 -105 -20 -8 -2 -15 -4 -15 -5 0 -1 -9 -3 -20 -5 -11 -2 -50 -11 -85
-20 -36 -9 -73 -18 -83 -20 -10 -2 -27 -7 -37 -10 -10 -3 -27 -8 -38 -10 -10
-2 -49 -13 -87 -24 -37 -12 -77 -23 -89 -25 -11 -2 -34 -10 -51 -16 -40 -16
-73 -15 -132 5 -26 9 -55 18 -63 20 -8 2 -51 13 -95 25 -44 12 -84 23 -90 24
-46 9 -171 41 -175 46 -3 3 -18 6 -35 8 -16 2 -46 7 -65 12 -33 9 -71 17 -115
25 -213 41 -339 64 -375 69 -25 3 -58 9 -75 12 -16 3 -47 7 -70 9 -22 2 -51 6
-65 9 -14 3 -50 7 -80 11 -30 3 -77 8 -105 11 -27 3 -68 7 -90 9 -22 2 -40 4
-40 5 0 0 -27 3 -60 4 -33 2 -112 8 -175 12 -144 10 -767 10 -915 0 -208 -14
-296 -22 -445 -41 -30 -4 -68 -8 -85 -10 -28 -2 -99 -12 -155 -21 -23 -4 -85
-12 -135 -19 -11 -1 -27 -5 -35 -9 -8 -3 -33 -7 -55 -10 -22 -2 -87 -14 -143
-26 -57 -12 -107 -19 -110 -15 -4 3 -7 134 -7 290 l0 284 35 7 c19 4 42 8 50
9 19 3 77 14 110 20 54 11 74 14 114 19 22 3 50 8 62 10 12 2 45 7 75 11 29 4
74 10 100 14 25 4 54 6 63 5 9 -1 16 1 16 4 0 4 15 7 33 7 29 1 72 5 222 20
77 9 158 14 305 21 74 3 136 7 138 9 5 4 727 -4 807 -9z m4600 0 c33 -2 60 -5
60 -6 0 0 29 -3 65 -5 106 -7 235 -19 329 -31 24 -2 63 -7 87 -9 25 -3 57 -7
72 -10 15 -2 47 -7 72 -10 25 -4 59 -9 75 -11 17 -2 44 -6 60 -9 17 -2 30 -4
30 -5 0 -1 12 -3 26 -5 38 -5 90 -14 119 -20 33 -7 102 -18 118 -18 15 0 14
22 16 -310 l1 -277 -30 4 c-16 3 -52 10 -80 15 -27 6 -63 13 -80 16 -138 23
-206 35 -240 40 -22 3 -51 7 -65 10 -14 2 -62 9 -107 15 -46 6 -97 13 -115 15
-18 3 -62 7 -98 10 -36 3 -81 8 -101 11 -36 5 -81 8 -284 21 -228 14 -852 7
-1035 -12 -19 -2 -74 -7 -121 -10 l-87 -7 -127 61 c-70 34 -129 61 -131 61 -2
0 -27 11 -56 24 -141 64 -415 176 -429 176 -4 0 -24 8 -45 17 -55 23 -167 64
-181 65 -37 4 0 16 105 36 64 13 128 25 142 28 83 17 220 39 290 48 14 2 39 6
55 10 17 3 53 8 80 11 28 3 66 7 85 10 19 2 60 7 90 10 30 3 69 8 85 10 49 6
156 16 220 20 33 2 60 4 60 5 0 1 65 3 145 6 80 3 146 7 148 9 4 4 700 -4 777
-9z m-4765 -831 c85 -4 171 -8 190 -10 19 -2 76 -7 125 -11 50 -3 101 -8 115
-10 14 -1 50 -5 80 -8 30 -3 69 -7 85 -10 17 -3 50 -7 75 -11 25 -3 63 -8 85
-12 22 -3 51 -7 65 -8 14 -2 40 -6 58 -9 17 -3 47 -8 65 -11 17 -3 55 -10 82
-15 28 -5 62 -12 78 -14 15 -3 35 -7 45 -10 9 -3 34 -7 56 -11 21 -3 43 -8 48
-11 5 -3 22 -7 36 -8 43 -4 222 -48 222 -55 -1 -7 -258 -113 -277 -114 -7 0
-13 -3 -13 -7 0 -4 -19 -13 -42 -20 -24 -8 -50 -20 -59 -27 -8 -7 -19 -13 -24
-13 -12 0 -67 -26 -282 -132 l-182 -90 -65 7 c-36 3 -75 8 -88 10 -13 2 -50 6
-83 9 -33 3 -76 8 -95 11 -37 5 -174 14 -305 20 -105 5 -569 5 -665 0 -109 -5
-272 -18 -370 -29 -30 -4 -75 -9 -100 -11 -25 -2 -59 -6 -75 -9 -17 -2 -52 -7
-78 -10 -27 -3 -103 -15 -170 -26 -67 -12 -135 -23 -152 -26 -16 -3 -37 -7
-45 -9 -20 -6 -67 -14 -109 -20 -26 -4 -48 3 -97 32 -96 56 -99 66 -99 308 l0
199 75 17 c41 10 91 20 110 23 19 3 46 8 60 11 14 3 41 8 60 11 19 2 42 6 50
9 8 2 38 7 65 11 28 3 59 8 70 10 11 2 40 7 65 10 24 3 56 8 70 10 14 2 48 6
75 9 28 3 67 8 88 10 47 6 123 13 207 20 36 3 88 7 115 10 28 2 113 7 190 10
77 4 140 7 141 8 5 4 380 -1 524 -8z m4600 1 c122 -6 262 -15 305 -20 17 -2
66 -6 110 -10 44 -4 91 -9 105 -11 14 -2 45 -6 70 -9 25 -3 68 -8 95 -12 28
-3 64 -8 80 -9 17 -2 30 -4 30 -5 0 -2 46 -10 65 -11 8 -1 33 -5 55 -10 45 -9
72 -14 130 -24 110 -19 241 -48 245 -55 12 -19 4 -396 -9 -427 -8 -20 -33 -43
-69 -66 -75 -46 -91 -50 -148 -36 -68 15 -84 18 -119 24 -16 3 -52 10 -80 15
-27 5 -70 11 -95 15 -25 3 -56 7 -70 10 -28 6 -89 15 -135 20 -16 2 -50 6 -75
9 -77 10 -133 16 -203 21 -37 3 -93 8 -125 11 -317 26 -863 17 -1221 -22 -31
-3 -74 -7 -96 -10 -65 -6 -108 -12 -140 -18 -16 -4 -50 -9 -75 -11 -25 -3 -56
-8 -70 -11 -14 -2 -38 -7 -55 -9 -16 -3 -68 -13 -115 -21 -47 -9 -96 -17 -110
-19 -14 -2 -25 -4 -25 -5 0 -1 -10 -3 -22 -6 -43 -8 -279 -64 -318 -76 -22 -6
-49 -13 -59 -15 -11 -2 -44 -11 -75 -20 -31 -9 -59 -18 -63 -19 -5 -1 -9 -2
-10 -4 -2 -1 -10 -3 -19 -5 -23 -4 -348 -111 -384 -126 -16 -6 -34 -13 -40
-15 -20 -4 -194 -73 -238 -93 -25 -12 -49 -21 -53 -21 -3 0 -40 -16 -81 -35
-41 -19 -77 -35 -79 -35 -10 0 -344 -166 -449 -223 -183 -99 -633 -378 -655
-406 -3 -3 -27 -21 -53 -39 l-48 -32 -42 24 c-23 13 -114 65 -202 116 -88 51
-180 104 -205 118 -66 37 -80 46 -80 53 0 12 236 183 415 302 55 36 105 70
110 74 6 5 26 18 45 29 19 12 89 54 155 94 225 137 717 393 835 435 12 4 48
19 85 36 156 68 418 167 570 215 44 14 89 29 100 34 11 5 47 16 80 25 33 9 65
21 71 26 6 5 13 6 16 4 3 -3 25 1 49 9 39 13 103 31 149 42 8 2 51 13 95 24
44 12 89 23 100 25 11 2 63 13 115 25 52 11 106 22 119 25 14 2 47 9 75 14
107 22 328 57 406 66 30 3 62 8 70 10 8 2 44 7 80 11 36 3 79 7 95 9 150 15
255 22 450 30 88 4 161 8 162 9 3 3 373 -4 473 -8z m-4550 -840 c63 -4 127 -8
142 -9 30 -3 51 -17 25 -17 -9 0 -17 -4 -17 -9 0 -5 -10 -13 -22 -17 -12 -3
-26 -11 -32 -16 -6 -5 -57 -39 -113 -76 -120 -78 -107 -70 -248 -169 -111 -78
-305 -223 -339 -254 -20 -19 -9 -24 -187 78 -41 24 -96 55 -124 71 -27 16
-106 62 -175 102 -131 76 -166 96 -227 131 -99 56 -130 74 -152 91 l-24 18 24
1 c13 0 33 2 44 4 11 2 40 7 65 10 25 3 59 8 76 11 17 3 46 6 65 8 19 2 59 7
89 10 157 18 161 18 355 30 54 4 100 8 101 9 5 5 568 -1 674 -7z m4600 0 c63
-4 135 -9 160 -11 99 -8 167 -15 205 -20 22 -2 60 -7 85 -10 25 -3 59 -7 75
-10 59 -8 116 -17 133 -20 9 -2 25 -4 35 -4 25 -1 21 -16 -10 -32 -16 -8 -30
-16 -33 -19 -3 -3 -16 -11 -30 -18 -14 -7 -34 -18 -45 -25 -11 -7 -63 -37
-115 -67 -52 -30 -104 -60 -115 -67 -11 -7 -29 -17 -40 -23 -11 -5 -41 -22
-67 -37 -27 -16 -114 -66 -195 -113 l-148 -84 -290 -2 c-159 -1 -324 -4 -365
-8 -41 -3 -106 -8 -145 -11 -38 -3 -86 -7 -105 -10 -19 -2 -62 -7 -95 -11 -33
-3 -69 -8 -80 -10 -11 -2 -42 -6 -70 -9 -27 -3 -63 -8 -80 -12 -16 -3 -43 -7
-60 -9 -16 -1 -30 -3 -30 -4 0 -2 -9 -4 -20 -5 -11 -1 -57 -10 -103 -19 -45
-10 -95 -20 -110 -22 -15 -3 -52 -11 -83 -19 -30 -8 -66 -17 -80 -19 -13 -2
-26 -5 -29 -6 -3 -2 -9 -2 -14 -1 -4 1 -14 -4 -22 -10 -8 -6 -14 -9 -14 -5 0
3 -11 1 -25 -4 -14 -5 -36 -12 -48 -14 -13 -2 -56 -14 -97 -26 -41 -12 -79
-23 -85 -25 -5 -1 -17 -5 -25 -8 -15 -5 -210 -70 -220 -72 -30 -8 -353 -136
-420 -167 -36 -17 -69 -31 -75 -32 -16 -3 -270 -130 -385 -192 -89 -48 -143
-79 -295 -171 -64 -39 -52 -42 -232 62 -92 53 -175 100 -183 105 -127 75 -153
90 -160 90 -4 0 -13 6 -19 14 -10 12 -5 20 31 43 24 15 48 32 53 36 18 15 198
131 252 162 28 16 87 51 130 76 43 26 110 63 148 84 39 21 98 53 133 72 34 19
62 30 62 26 0 -4 4 -3 8 3 4 5 30 21 57 33 172 81 217 102 280 129 39 16 106
44 150 62 44 17 91 36 105 43 14 6 27 11 30 12 27 6 88 30 99 39 8 6 15 9 15
7 1 -2 81 22 179 53 97 32 183 59 190 60 6 2 19 6 27 9 15 5 173 47 200 52 8
2 15 4 15 5 0 1 11 4 24 6 14 2 50 11 80 19 31 8 67 16 81 19 14 2 46 9 73 15
26 6 64 14 83 17 20 3 46 8 58 10 11 2 36 7 55 10 18 3 43 8 55 10 41 8 138
23 145 22 3 0 8 1 11 2 3 1 16 3 30 5 22 2 48 5 170 21 22 2 96 9 210 19 19 2
84 6 145 10 60 3 111 7 112 9 5 5 566 -2 673 -8z m-587 -836 c-4 -5 -60 -38
-123 -74 -63 -36 -122 -70 -130 -76 -8 -5 -67 -39 -130 -75 -63 -36 -133 -76
-155 -89 -22 -13 -132 -76 -245 -141 -113 -65 -216 -125 -230 -134 -14 -8 -45
-26 -70 -40 -25 -13 -48 -29 -52 -35 -4 -6 -8 -7 -8 -3 0 5 -12 0 -27 -11 -16
-10 -86 -52 -158 -92 -71 -41 -133 -79 -137 -85 -4 -5 -8 -6 -8 -1 0 5 -6 4
-12 -2 -7 -6 -107 -65 -223 -131 -115 -67 -217 -125 -225 -131 -73 -46 -130
-72 -161 -71 -34 0 -96 25 -149 62 -14 9 -50 30 -80 47 -30 16 -111 62 -180
102 -127 75 -161 94 -227 131 -21 11 -42 24 -46 29 -11 9 187 122 384 220 79
39 156 77 170 85 14 8 28 12 31 9 3 -2 11 2 18 11 7 8 18 15 25 15 7 0 44 14
82 31 37 17 104 44 148 61 44 16 100 38 125 48 46 18 240 82 320 105 25 8 79
23 120 35 41 12 86 24 100 26 14 3 32 7 40 11 8 3 20 7 26 8 7 2 45 11 85 20
41 9 85 19 99 21 14 3 57 11 97 19 39 8 89 17 110 20 21 3 49 8 63 11 55 10
67 12 120 18 30 4 66 8 80 11 23 4 99 12 180 20 19 1 80 6 135 10 55 3 101 7
102 8 1 1 29 3 63 3 34 1 58 -2 53 -6z"/>
</g>
</svg>
