<svg xmlns="http://www.w3.org/2000/svg" viewBox="0 0 94.53 107.75"><defs><style>.cls-1{fill:#fff;}</style></defs><title>icono_blanco0</title><g id="Layer_2" data-name="Layer 2"><g id="ELEMNTS"><path class="cls-1" d="M92.3,25.31,49.5.59a4.47,4.47,0,0,0-4.45,0L2.22,25.31A4.46,4.46,0,0,0,0,29.16V78.59a4.46,4.46,0,0,0,2.22,3.85l42.83,24.71a4.38,4.38,0,0,0,2.22.6,4.44,4.44,0,0,0,2.23-.6L92.3,82.44a4.46,4.46,0,0,0,2.22-3.85V29.16A4.47,4.47,0,0,0,92.3,25.31Zm-45,47.92A88,88,0,0,0,3,71.27V64.7a94.4,94.4,0,0,1,18.4-1.8,92.88,92.88,0,0,1,37.17,7.65A87.24,87.24,0,0,0,47.28,73.23Zm36-12.8c-1.74-.18-3.49-.32-5.24-.4V38.67a4.46,4.46,0,0,0-2.22-3.85L49.49,19.61a4.46,4.46,0,0,0-4.44,0L18.7,34.82a4.46,4.46,0,0,0-2.22,3.85V60c-1.76.09-3.51.22-5.25.4V33.92A1.47,1.47,0,0,1,12,32.65L46.54,12.7a1.46,1.46,0,0,1,1.46,0l34.57,20a1.46,1.46,0,0,1,.72,1.27ZM33,53.84a1.5,1.5,0,0,0,1.49,1.5H58.59V61a96.43,96.43,0,0,0-11.29,2.4c-1.16-.32-2.32-.62-3.48-.89q-3.9-.93-7.88-1.53V59.33a1.5,1.5,0,0,0-3,0v1.26c-1.74-.21-3.49-.37-5.24-.48V43.43a1.46,1.46,0,0,1,.72-1.26L46.54,31.72a1.45,1.45,0,0,1,1.45,0l18.1,10.44a1.47,1.47,0,0,1,.73,1.27V60.11c-1.75.12-3.5.28-5.24.49V54.07a1.77,1.77,0,0,0-1.64-1.72h-24V48.17a1.46,1.46,0,0,1,.73-1.26l9.86-5.69a1.46,1.46,0,0,1,1.46,0l10.6,6.12V49a1.5,1.5,0,1,0,3,0V48c0-.42,0-.83,0-1.25a2.07,2.07,0,0,0-.16-.95,1.41,1.41,0,0,0-.59-.64L49.48,38.63a4.41,4.41,0,0,0-4.44,0l-9.87,5.69A4.46,4.46,0,0,0,33,48.17v5.67ZM67.59,39.57,49.49,29.13a4.45,4.45,0,0,0-4.45,0L26.94,39.57a4.47,4.47,0,0,0-2.23,3.86V60c-1.1,0-2.21-.06-3.32-.06q-1,0-1.92,0V38.67a1.46,1.46,0,0,1,.73-1.26l26.34-15.2a1.46,1.46,0,0,1,1.46,0l26.33,15.2a1.46,1.46,0,0,1,.73,1.26V59.92l-1.85,0c-1.14,0-2.27,0-3.4.06V43.43A4.48,4.48,0,0,0,67.59,39.57ZM64.07,69.8a97.13,97.13,0,0,0-11.26-4.68,94.75,94.75,0,0,1,38.72-.43v6.57A88.31,88.31,0,0,0,64.07,69.8ZM3.72,27.9,46.55,3.19a1.45,1.45,0,0,1,1.45,0L90.8,27.9a1.46,1.46,0,0,1,.73,1.26V61.64q-2.59-.49-5.24-.86V33.92a4.45,4.45,0,0,0-2.23-3.86l-34.57-20a4.46,4.46,0,0,0-4.44,0l-34.59,20a4.46,4.46,0,0,0-2.22,3.86V60.79q-2.64.36-5.25.86V29.16A1.46,1.46,0,0,1,3.72,27.9ZM3,78.59V74.33a85.06,85.06,0,0,1,39.33.61A87.19,87.19,0,0,0,32.23,79.5a79.93,79.93,0,0,0-10.84-.75A78.1,78.1,0,0,0,4.87,80.51l-1.15-.66A1.47,1.47,0,0,1,3,78.59ZM27.81,82a86.43,86.43,0,0,0-9.18,6.43l-9.8-5.66a76.31,76.31,0,0,1,12.56-1.05C23.53,81.74,25.67,81.84,27.81,82Zm45.37,6.16A68.17,68.17,0,0,0,36.54,98.79L30.33,95.2A74.27,74.27,0,0,1,73.18,81.74a76.13,76.13,0,0,1,12.53,1.05l-9.46,5.46C75.23,88.2,74.2,88.18,73.18,88.18ZM48,104.56a1.45,1.45,0,0,1-1.45,0l-7.07-4.07A65.25,65.25,0,0,1,71.14,91.2ZM90.8,79.85l-1.13.65a78.42,78.42,0,0,0-41.41,2.32A77.54,77.54,0,0,0,27.48,93.56l-6.06-3.5A84.57,84.57,0,0,1,91.53,74.32v4.27A1.47,1.47,0,0,1,90.8,79.85Z"/></g></g></svg>