<svg xmlns="http://www.w3.org/2000/svg" width="1275.535" height="656.315" viewBox="0 0 1275.535 656.315">
  <g id="Group_99" data-name="Group 99" transform="translate(-521.379 -294.677)">
    <g id="Group_55" data-name="Group 55" transform="translate(521.379 610.066)">
      <path id="Path_225" data-name="Path 225" d="M521.379,768.023l83.426-.352c-16.545,0-19.01-11.968-19.01-30.625V660.31c115.81,10.56,143.267-30.976,142.915-66.883-.352-44.351-27.808-80.255-106.657-80.255-12.673,0-100.674-.354-100.674-.354,16.544,0,18.656,12.32,18.656,31.329V736.695C540.035,755.351,537.923,767.671,521.379,768.023ZM585.8,537.812c20.416-12.673,97.506-14.081,97.506,52.1,0,51.746-42.241,60.546-97.506,57.729Z" transform="translate(-521.379 -511.023)" fill="#fff"/>
      <path id="Path_226" data-name="Path 226" d="M802.226,768.617c68.64,0,124.61-57.379,124.61-127.779s-55.97-127.777-124.61-127.777c-68.992,0-124.61,57.376-124.61,127.777S733.234,768.617,802.226,768.617Zm0-231.619c44.352,0,80.257,43.3,80.257,105.25,0,62.3-35.9,100.671-80.257,100.671s-80.61-38.367-80.61-100.671C721.616,580.293,757.874,537,802.226,537Z" transform="translate(-450.443 -510.913)" fill="#fff"/>
      <g id="Group_54" data-name="Group 54" transform="translate(496.11 1.795)">
        <path id="Path_227" data-name="Path 227" d="M1032.521,769.22c-15.23,3.226-56.947,5.872-74.9-55.4-1.057-2.466-51.745-173.187-52.448-175.653-.353,2.113-.353,198.18-.353,198.884,0,18.657,2.463,30.625,19.008,30.977h-61.25c16.545-.352,19.01-12.672,19.01-31.328V544.148c0-19.009-2.464-31.329-19.01-31.329H962.9c-16.544,0-15.137,12.32-9.855,30.977.287.573,32.948,111.312,48.725,164.737C1001.767,708.533,1016.771,759.693,1032.521,769.22Z" transform="translate(-862.576 -512.819)" fill="#fff"/>
        <path id="Path_228" data-name="Path 228" d="M1104,512.819h-95.394c16.544,0,15.136,12.32,9.152,31.329L968.126,709.837,980.489,736.7c10.116-32.147,49.077-154.345,58.744-185.16V736.695c0,18.656-2.112,30.976-18.657,31.328H1103.3c-15.84-.352-17.952-12.32-17.952-30.977V543.8C1085.347,525.139,1087.458,512.819,1104,512.819Z" transform="translate(-814.653 -512.819)" fill="#fff"/>
      </g>
      <path id="Path_229" data-name="Path 229" d="M1237.743,768.937l83.426-.353c-16.546,0-22.529-12.32-28.866-30.976-.351-1.407-60.9-191.138-60.9-191.138-10.561-33.44-53.858-43.648-84.834-27.1,5.28-1.058,18.656,6.687,11.615,28.159-5.983,19.008-60.192,188.675-60.545,190.082-5.984,18.656-12.32,30.976-28.864,30.976l63.713.353c-16.544-.353-15.135-12.673-8.8-31.33,0-1.056,9.152-28.864,20.063-63.361h82.722c10.561,33.441,19.712,62.3,20.066,63.361C1252.526,756.263,1254.286,768.583,1237.743,768.937Zm-90.819-104.9c15.488-48.576,34.146-106.305,38.018-119.331l8.8,26.752s15.137,48.226,29.569,92.578Z" transform="translate(-272.843 -511.584)" fill="#fff"/>
      <path id="Path_230" data-name="Path 230" d="M1341.41,662.071c10.209,19.71,42.592,81.312,42.944,82.367,21.122,46.113,83.074,23.233,83.074,23.233-16.545,0-30.978-11.968-40.833-30.625,0-.352-30.976-63.713-38.369-78.5,52.448-9.858,66.881-39.073,66.529-65.123-.352-44.351-34.848-76.735-106.658-80.255-9.152,0-101.025-.354-101.025-.354,16.544,0,19.009,12.32,19.009,31.329V736.695c0,18.656-2.465,30.976-19.009,31.328l83.777-.352c-16.544,0-19.008-11.968-19.008-30.625V660.31C1322.4,661.365,1332.258,661.718,1341.41,662.071Zm-29.568-124.259c27.1-12.32,97.506-8.1,97.506,52.1,0,51.746-42.24,60.546-97.506,57.729Z" transform="translate(-191.893 -511.023)" fill="#fff"/>
    </g>
    <rect id="Rectangle_433" data-name="Rectangle 433" width="1268.615" height="21.122" transform="translate(527.252 929.871)" fill="#fd8568"/>
    <rect id="Rectangle_434" data-name="Rectangle 434" width="951.12" height="21.122" transform="translate(527.252 401.172)" fill="#fd8568"/>
    <g id="Group_56" data-name="Group 56" transform="translate(1541.972 294.677)">
      <path id="Path_231" data-name="Path 231" d="M1321.346,403.01a89.593,89.593,0,0,0-26.985,24.285,98.659,98.659,0,0,0-7.476,12.686c-1.129,2.151-2.195,4.334-3.247,6.524-2.492,5.182-4.908,10.4-7.883,15.313a78.654,78.654,0,0,1-20.56,22.6,11.625,11.625,0,0,0-3.26,3.359,252.4,252.4,0,0,0,45.8-1.666c42.086-5.511,79.688-22.362,112.48-51.435q4.584-4.063,9.048-8.447l.846.79c-.524,1.534-.614,3.431-1.637,4.542-1.88,2.044-3.749,4.1-5.622,6.156-5.181,5.681-10.4,11.331-16.024,16.58-11.851,11.054-25.72,19.567-40.483,26.59-16.835,8.009-34.488,14-53.162,16.483-8.581,1.143-17.222,1.825-25.825,2.511-3.776.3-7.548.6-11.3.941a14.592,14.592,0,0,0,2.3,1.114c1.383.446,2.785.8,4.174,1.2a173.459,173.459,0,0,0,33.719,6.248c8.385.724,16.868,1.5,25.236,1.054a184.142,184.142,0,0,0,26.769-3.734,113.006,113.006,0,0,0,42.619-18.343c10.487-7.342,20.046-15.663,27.609-25.831.9-1.214,1.8-2.437,2.69-3.658,4.5-6.146,8.861-12.4,12.773-18.882a101.9,101.9,0,0,0,9.049-18.948c4.39-12.625,8.039-25.486,11.917-38.273a14.8,14.8,0,0,0,.087-3.8,148.819,148.819,0,0,1-36.378,2.739,335.715,335.715,0,0,0-34.619.163,190.5,190.5,0,0,0-26.452,3.536A150.3,150.3,0,0,0,1321.346,403.01Z" transform="translate(-1210.277 -256.402)" fill="#fd8568"/>
      <path id="Path_232" data-name="Path 232" d="M1253.552,426.975a86.282,86.282,0,0,0-1.824,13.665c-.331,4.973-.455,9.986-.805,14.943-.829,11.729,1.078,23.24,3.507,34.678.49,2.306,1.226,4.561,2.094,7.741a27.986,27.986,0,0,0,2.569-3.436c2.932-5.976,5.692-12.028,8.683-17.976q2.076-4.133,4.466-8.052A102.911,102.911,0,0,1,1287.527,449c15.088-15.07,33.535-24.694,53.813-31.528,1.7-.574,3.658-.794,5.061-1.761,1.743-1.2,3.745-2.769,4.4-4.586.645-1.79,1.164-3.6,1.735-5.409a161.91,161.91,0,0,0,6.869-34.629,6.88,6.88,0,0,1,1.944-4.05c.426,2.582,1.2,5.162,1.213,7.746.031,6.8-.145,13.61-.473,20.4-.2,4.259-.843,8.5-1.269,12.749-.314,3.1,2.1,3.138,4.1,2.922,4.659-.5,9.27-1.391,13.919-2.005,3.808-.5,7.636-.989,11.47-1.188,2.687-.138,3.764-1.659,3.884-3.743a95.3,95.3,0,0,0,.141-12.8,222.014,222.014,0,0,0-7.555-43.333,259.067,259.067,0,0,0-19.968-50.871c-1.395-2.642-3.139-2.991-5.236-.846-14.185,14.492-31.263,25.7-47.038,38.388-4.652,3.743-9.189,7.641-13.616,11.651q-7.151,6.478-13.9,13.32C1268.294,378.4,1259.289,402.111,1253.552,426.975Z" transform="translate(-1210.827 -294.677)" fill="#fd8568"/>
      <path id="Path_233" data-name="Path 233" d="M1242.378,446.434a89.79,89.79,0,0,0,8.8,11.25c.454.489,1,.9,2.043,1.829.429-1.661,1.091-2.838.962-3.926a102.541,102.541,0,0,1-.593-16.733c.707-15.911,4.919-31.289,10.862-46.455,3.78-9.646,9.306-18.238,15.469-26.545a8.084,8.084,0,0,0,1.023-8.535c-1.643-3.964-3.055-8.019-4.453-12.07-.213-.617.185-1.429.3-2.151.707.279,1.724.365,2.068.871,2.045,3,3.954,6.1,5.875,9.179,2.214,3.555,2.593,3.606,5.65.768,3.375-3.133,6.783-6.231,10.156-9.367,1.676-1.56,2.032-3.01.467-5.134a200.43,200.43,0,0,0-26.67-29.152c-5.476-4.995-11.625-9.316-17.541-13.858-1.944-1.492-3.633-1.062-4.515,1.272-1.109,2.944-2.01,5.964-3.224,8.867-6.614,15.811-13.453,31.538-19.9,47.412a75.887,75.887,0,0,0-5.875,28.857,112.9,112.9,0,0,0,8.826,44.322A118.67,118.67,0,0,0,1242.378,446.434Z" transform="translate(-1223.286 -294.287)" fill="#fd8568"/>
    </g>
    <g id="Group_57" data-name="Group 57" transform="translate(539.925 484.291)">
      <path id="Path_234" data-name="Path 234" d="M583.924,430.085a26.69,26.69,0,0,0-11.251-3.764,30.159,30.159,0,0,0-3.373-.288q-1.853-.066-2.949-.065H534.134v63.29h15.622V468.324h16.594c.713,0,1.7-.029,2.932-.087,1.25-.057,2.382-.145,3.375-.263a26.645,26.645,0,0,0,11.217-3.767,18.185,18.185,0,0,0,6.578-7.321,22.187,22.187,0,0,0,2.117-9.739,22.438,22.438,0,0,0-2.088-9.738A18.014,18.014,0,0,0,583.924,430.085Zm-34.168,8.3H565.73c.7,0,1.484.028,2.326.084a14.074,14.074,0,0,1,2.255.323,8.235,8.235,0,0,1,4.019,1.965,7.513,7.513,0,0,1,1.956,3.077,10.1,10.1,0,0,1,0,6.625,7.542,7.542,0,0,1-1.956,3.08A8.249,8.249,0,0,1,570.3,455.5a13.792,13.792,0,0,1-2.249.324c-.826.055-1.608.083-2.325.083H549.756Z" transform="translate(-534.134 -424.682)" fill="#fff"/>
      <path id="Path_235" data-name="Path 235" d="M605.417,425.967,582.1,489.256h16.134l4.716-12.868H629.9l4.787,12.868h16.131l-23.312-63.29Zm19.861,38H607.5l8.82-24.07Z" transform="translate(-512.353 -424.682)" fill="#fff"/>
      <path id="Path_236" data-name="Path 236" d="M697.148,460.906a20.723,20.723,0,0,0,4.832-13.76,22.429,22.429,0,0,0-2.09-9.738,18,18,0,0,0-6.555-7.324,26.7,26.7,0,0,0-11.253-3.764,30.149,30.149,0,0,0-3.373-.288q-1.851-.066-2.948-.065H643.544v63.29h15.622V468.324h14.462l12.23,20.932h17.723L689.91,465.995A18.477,18.477,0,0,0,697.148,460.906Zm-37.982-22.521H675.14c.7,0,1.486.028,2.327.084a14.072,14.072,0,0,1,2.255.323,8.227,8.227,0,0,1,4.019,1.965,7.513,7.513,0,0,1,1.956,3.077,10.1,10.1,0,0,1,0,6.625,7.542,7.542,0,0,1-1.956,3.08,8.241,8.241,0,0,1-4.026,1.963,13.811,13.811,0,0,1-2.25.324c-.826.055-1.608.083-2.325.083H659.166Z" transform="translate(-484.459 -424.682)" fill="#fff"/>
      <path id="Path_237" data-name="Path 237" d="M769.793,458.012a34.579,34.579,0,0,0-4.2-17.243A29.31,29.31,0,0,0,753.6,429.2a43.26,43.26,0,0,0-36.822,0,29.3,29.3,0,0,0-11.994,11.573,37.481,37.481,0,0,0,0,34.488,29.3,29.3,0,0,0,11.994,11.573,43.244,43.244,0,0,0,36.822,0c.271-.144.532-.3.792-.448l5.457,4.8,9.178-8.209-5.362-4.739a29.6,29.6,0,0,0,1.929-2.978A34.574,34.574,0,0,0,769.793,458.012Zm-15.44,0a26.529,26.529,0,0,1-1.883,10.334l-4.861-4.3-9.284,8.205,5.447,4.792a22.4,22.4,0,0,1-8.579,1.395,21.4,21.4,0,0,1-10.713-2.6,15.742,15.742,0,0,1-6.329-7.005,25.446,25.446,0,0,1-2.134-10.821,26.009,26.009,0,0,1,2.137-10.908h0a15.657,15.657,0,0,1,6.327-7.087,20,20,0,0,1,10.29-2.434l.4,0a21.412,21.412,0,0,1,10.715,2.6,15.776,15.776,0,0,1,6.331,7.007A25.477,25.477,0,0,1,754.353,458.012Z" transform="translate(-458.564 -425.083)" fill="#fff"/>
      <path id="Path_238" data-name="Path 238" d="M811.187,465.247a11.669,11.669,0,0,1-1.139,5.163,12.168,12.168,0,0,1-3.189,4.037,15.123,15.123,0,0,1-4.843,2.651,19.939,19.939,0,0,1-12.062.019,15.091,15.091,0,0,1-4.868-2.629,12.327,12.327,0,0,1-3.239-4.04,11.543,11.543,0,0,1-1.162-5.2V425.964l-15.828.1v39.273a22.832,22.832,0,0,0,3.961,13.339,25.79,25.79,0,0,0,10.974,8.78h0a43.688,43.688,0,0,0,32.287,0,25.794,25.794,0,0,0,10.975-8.78,22.84,22.84,0,0,0,3.962-13.339V425.968H811.187Z" transform="translate(-429.379 -424.683)" fill="#fff"/>
      <path id="Path_239" data-name="Path 239" d="M826.366,489.255h50.162V476.839H841.987V462.49h28.335V450.073H841.987V438.384h34.541V425.967H826.366Z" transform="translate(-401.452 -424.681)" fill="#fff"/>
      <path id="Path_240" data-name="Path 240" d="M926.6,440.09a18.878,18.878,0,0,1,10.1-2.505c4.412,0,8.051,1,10.815,2.972a16.081,16.081,0,0,1,5.914,8.346l.218.67,14.037-3.639-.276-.79a28.991,28.991,0,0,0-11.186-14.658c-5.253-3.585-11.821-5.4-19.522-5.4a35.24,35.24,0,0,0-17.45,4.125A28.506,28.506,0,0,0,907.9,440.791a39.369,39.369,0,0,0,0,34.444,28.507,28.507,0,0,0,11.353,11.583,35.241,35.241,0,0,0,17.45,4.127c7.7,0,14.269-1.819,19.522-5.4a28.991,28.991,0,0,0,11.186-14.658l.276-.79-14.036-3.638-.219.667a16.182,16.182,0,0,1-5.916,8.327c-2.766,1.985-6.4,2.992-10.813,2.992a18.858,18.858,0,0,1-10.1-2.505,15.492,15.492,0,0,1-6.02-7.042,30,30,0,0,1,0-21.762A15.5,15.5,0,0,1,926.6,440.09Z" transform="translate(-366.234 -425.083)" fill="#fff"/>
      <rect id="Rectangle_435" data-name="Rectangle 435" width="15.621" height="63.288" transform="translate(630.211 1.286)" fill="#fff"/>
      <path id="Path_241" data-name="Path 241" d="M1045.693,465.247a11.657,11.657,0,0,1-1.14,5.163,12.134,12.134,0,0,1-3.188,4.037,15.115,15.115,0,0,1-4.844,2.651,19.934,19.934,0,0,1-12.061.019,15.076,15.076,0,0,1-4.868-2.629,12.337,12.337,0,0,1-3.241-4.04,11.562,11.562,0,0,1-1.161-5.2V425.964l-15.829.1v39.273a22.843,22.843,0,0,0,3.961,13.339,25.791,25.791,0,0,0,10.975,8.78h0a43.688,43.688,0,0,0,32.287,0,25.793,25.793,0,0,0,10.974-8.78,22.843,22.843,0,0,0,3.962-13.339V425.968h-15.827Z" transform="translate(-322.907 -424.683)" fill="#fff"/>
      <path id="Path_242" data-name="Path 242" d="M1111.135,431.639a33.089,33.089,0,0,0-15.619-5.323c-1.7-.175-3.5-.276-5.343-.305s-3.045-.044-3.633-.044h-24.874v63.29h24.874q.882,0,3.633-.044c1.833-.028,3.631-.131,5.34-.305a33.088,33.088,0,0,0,15.623-5.322A29.009,29.009,0,0,0,1120.9,472.4a34.447,34.447,0,0,0,0-29.571A29.017,29.017,0,0,0,1111.135,431.639Zm-33.641,6.831h9.045q1.392,0,3.762.042a26.75,26.75,0,0,1,4.176.375,13.994,13.994,0,0,1,7.4,3.448,17.087,17.087,0,0,1,4.431,6.74,25.148,25.148,0,0,1,.049,16.868,17.426,17.426,0,0,1-4.359,6.825,13.913,13.913,0,0,1-7.515,3.568,33.093,33.093,0,0,1-4.189.354q-2.366.063-3.754.064h-9.045Z" transform="translate(-294.619 -424.682)" fill="#fff"/>
      <path id="Path_243" data-name="Path 243" d="M1141.734,425.967l-23.312,63.29h16.134l4.715-12.868h26.943L1171,489.256h16.131l-23.312-63.29Zm19.861,38h-17.774l8.818-24.069Z" transform="translate(-268.85 -424.682)" fill="#fff"/>
      <path id="Path_244" data-name="Path 244" d="M1239.1,442.827a29.033,29.033,0,0,0-9.77-11.187,33.091,33.091,0,0,0-15.62-5.323c-1.7-.175-3.5-.276-5.343-.305s-3.045-.044-3.632-.044h-24.874v63.29h24.874q.88,0,3.632-.044c1.834-.028,3.632-.131,5.341-.305a33.09,33.09,0,0,0,15.622-5.322,29.029,29.029,0,0,0,9.77-11.189,34.456,34.456,0,0,0,0-29.571Zm-43.411-4.356h9.045q1.391,0,3.761.042a26.739,26.739,0,0,1,4.176.375,14.006,14.006,0,0,1,7.4,3.448,17.125,17.125,0,0,1,4.429,6.74,25.164,25.164,0,0,1,.049,16.868,17.438,17.438,0,0,1-4.36,6.825,13.911,13.911,0,0,1-7.514,3.568,33.117,33.117,0,0,1-4.189.354q-2.366.063-3.754.064h-9.045Z" transform="translate(-240.955 -424.682)" fill="#fff"/>
    </g>
  </g>
</svg>
