<svg id="Group_423" data-name="Group 423" xmlns="http://www.w3.org/2000/svg" xmlns:xlink="http://www.w3.org/1999/xlink" width="75.057" height="75.057" viewBox="0 0 75.057 75.057">
  <defs>
    <clipPath id="clip-path">
      <path id="Path_573" data-name="Path 573" d="M0,20.578H75.057V-54.479H0Z" transform="translate(0 54.479)" fill="none"/>
    </clipPath>
  </defs>
  <g id="Group_422" data-name="Group 422" transform="translate(0 0)" clip-path="url(#clip-path)">
    <g id="Group_420" data-name="Group 420" transform="translate(-0.001)">
      <path id="Path_571" data-name="Path 571" d="M10.289,20.578A37.527,37.527,0,0,0,47.817-16.95,37.528,37.528,0,0,0,10.289-54.479,37.529,37.529,0,0,0-27.24-16.95,37.528,37.528,0,0,0,10.289,20.578" transform="translate(27.24 54.479)" fill="#ff8463"/>
    </g>
    <g id="Group_421" data-name="Group 421" transform="translate(13.031 13.933)">
      <path id="Path_572" data-name="Path 572" d="M6.753,10.368a3.774,3.774,0,0,1,0,5.414L3.313,19.16a3.959,3.959,0,0,1-5.518,0L-16.6,5.03a3.784,3.784,0,0,1,0-5.416l3.44-3.377a3.951,3.951,0,0,1,5.518,0ZM-16.02,8.71a.792.792,0,0,0-1.21.127,3.747,3.747,0,0,0,.49,4.8l5.766,5.658a3.921,3.921,0,0,0,4.89.482.759.759,0,0,0,.131-1.186ZM9.12-11.3a1.585,1.585,0,0,0-2.207,0L-1.426-3.115a1.514,1.514,0,0,0,0,2.167L3.886,4.266a1.582,1.582,0,0,0,2.207,0l8.338-8.184a1.51,1.51,0,0,0,0-2.166Zm19.908-4.446a.791.791,0,0,0,1.21-.128,3.745,3.745,0,0,0-.493-4.8L23.98-26.328a3.927,3.927,0,0,0-4.89-.484.76.76,0,0,0-.13,1.188ZM15.21-26.192a3.957,3.957,0,0,0-5.516,0L6.252-22.815a3.777,3.777,0,0,0,0,5.414l14.4,14.13a3.948,3.948,0,0,0,5.516,0l3.442-3.377a3.787,3.787,0,0,0,0-5.416Z" transform="translate(17.88 27.448)" fill="#fff"/>
    </g>
  </g>
</svg>
