<svg id="Group_438" data-name="Group 438" xmlns="http://www.w3.org/2000/svg" xmlns:xlink="http://www.w3.org/1999/xlink" width="74.616" height="74.615" viewBox="0 0 74.616 74.615">
  <defs>
    <clipPath id="clip-path">
      <path id="Path_591" data-name="Path 591" d="M0,20.616H74.616V-54H0Z" transform="translate(0 54)" fill="none"/>
    </clipPath>
  </defs>
  <g id="Group_442" data-name="Group 442" transform="translate(0 0)" clip-path="url(#clip-path)">
    <g id="Group_438-2" data-name="Group 438">
      <path id="Path_587" data-name="Path 587" d="M10.308,20.616A37.308,37.308,0,0,0,47.616-16.692,37.307,37.307,0,0,0,10.308-54,37.307,37.307,0,0,0-27-16.692,37.308,37.308,0,0,0,10.308,20.616" transform="translate(27 54)" fill="#ff8463"/>
    </g>
    <g id="Group_439" data-name="Group 439" transform="translate(43.851 16.024)">
      <path id="Path_588" data-name="Path 588" d="M2.956,1.4A5.217,5.217,0,0,1-2.393,6.477,5.217,5.217,0,0,1-7.742,1.4,5.217,5.217,0,0,1-2.393-3.672,5.217,5.217,0,0,1,2.956,1.4" transform="translate(7.742 3.672)" fill="#fff"/>
    </g>
    <g id="Group_440" data-name="Group 440" transform="translate(11.561 25.923)">
      <path id="Path_589" data-name="Path 589" d="M14.165,4.317,5.933-9.087a2.363,2.363,0,0,0-1.8-1.1H-2.873a2.365,2.365,0,0,0-1.8,1.1l-6.2,10.1L-17.759-10.2A2.377,2.377,0,0,0-19.8-11.308h-6.71A2.381,2.381,0,0,0-28.552-10.2l-8.231,13.4a2.172,2.172,0,0,0,.848,3.055,2.43,2.43,0,0,0,1.184.3,2.381,2.381,0,0,0,2.037-1.11l3.631-5.913V2.073l-1.625,11.109a1.586,1.586,0,0,0,1.625,1.77v6.8a2.454,2.454,0,0,0,2.395,2.414,2.431,2.431,0,0,0,2.576-2.357V14.953h1.963v6.8a2.455,2.455,0,0,0,2.4,2.414,2.431,2.431,0,0,0,2.576-2.357V14.953a1.587,1.587,0,0,0,1.625-1.77L-17.177,2.073V-.376l3.58,5.831a7.259,7.259,0,0,0,1.543,1.918,2.444,2.444,0,0,0,1.183.3,2.382,2.382,0,0,0,2.038-1.11L-5.305.822-5.338,20.6a2.424,2.424,0,0,0,2.484,2.359h.035A2.425,2.425,0,0,0-.334,20.6L-.368,8.664A.975.975,0,0,1,.548,7.7a.962.962,0,0,1,1.047.93V20.541A2.454,2.454,0,0,0,3.99,22.955,2.431,2.431,0,0,0,6.567,20.6V.822l3.528,5.745a2.382,2.382,0,0,0,2.038,1.11,2.444,2.444,0,0,0,1.183-.3,2.171,2.171,0,0,0,.85-3.055" transform="translate(37.104 11.309)" fill="#fff"/>
    </g>
    <g id="Group_441" data-name="Group 441" transform="translate(15.668 14.911)">
      <path id="Path_590" data-name="Path 590" d="M.409,2.776l1.324-.112a1.233,1.233,0,0,0,1.15-1.451,3.832,3.832,0,0,1,.645-3.529c0,.04,0,.079,0,.117A5.218,5.218,0,0,0,8.874,2.877,5.219,5.219,0,0,0,14.223-2.2c0-.039,0-.077,0-.117a3.832,3.832,0,0,1,.645,3.529,1.233,1.233,0,0,0,1.15,1.451l1.324.112a1.272,1.272,0,0,0,1.4-1.086c.182-1.61.151-4.024-.81-4.983a4.758,4.758,0,0,0-4.3-1.235A5.387,5.387,0,0,0,8.874-7.272,5.39,5.39,0,0,0,4.122-4.528a4.758,4.758,0,0,0-4.3,1.235c-.959.959-.991,3.373-.81,4.983a1.273,1.273,0,0,0,1.4,1.086" transform="translate(1.073 7.272)" fill="#fff"/>
    </g>
  </g>
</svg>
