<svg xmlns="http://www.w3.org/2000/svg" width="339.125" height="168.384" viewBox="0 0 339.125 168.384">
  <g id="Group_376" data-name="Group 376" transform="translate(-372.921 -239.805)">
    <g id="Group_370" data-name="Group 370" transform="translate(372.921 280.626)">
      <path id="Path_480" data-name="Path 480" d="M393.681,557.528c-5.391-.115-4.932-4.129-2.867-10.208,0-.344,2.982-9.405,6.538-20.646h26.954c3.441,10.9,6.423,20.3,6.538,20.646,1.95,6.079,2.524,10.093-2.868,10.208l27.183-.115c-5.39,0-7.34-4.014-9.4-10.093-.115-.459-19.843-62.281-19.843-62.281-3.441-10.9-17.549-14.222-27.642-8.832,1.72-.344,6.079,2.18,3.785,9.176-1.95,6.194-19.613,61.478-19.728,61.937-1.95,6.079-4.014,10.093-9.405,10.093Zm17.09-73.063,2.867,8.717s4.932,15.714,9.635,30.166h-24.89C403.431,507.519,409.51,488.709,410.771,484.465Z" transform="translate(-372.921 -446.768)" fill="#142648"/>
      <path id="Path_481" data-name="Path 481" d="M727.164,548.554c2.5-4.834.005,10.743-7.889,10.743-2.638,0-31.656.115-40.832.115h-9.864c1.491,0,5.506-1.032,5.506-8.946V486.693c0-6.194-.689-10.208-6.079-10.208h27.183c-5.391,0-6.194,4.014-6.194,10.208V551.5h21.1S725.432,551.9,727.164,548.554Z" transform="translate(-582.554 -448.767)" fill="#142648"/>
      <path id="Path_482" data-name="Path 482" d="M897.194,485.9v62.74c0,6.079-.8,10.093-6.194,10.208h27.3c-5.391-.115-6.194-4.014-6.194-10.093v-62.97c0-6.079.8-10.094,6.194-10.094H891C896.391,475.692,897.194,479.706,897.194,485.9Z" transform="translate(-740.973 -448.204)" fill="#142648"/>
      <path id="Path_483" data-name="Path 483" d="M1004.175,493.4c-.115,20.187,41.292,27.872,40.948,44.848-.115,7.226-5.047,14.567-15.255,14.567-20.3,0-21.908-19.384-9.291-21.334-7.226-9.978-20.761-4.244-21.563,7-.918,11.929,11.355,21.1,30.968,21.1,13.42,0,31.2-5.62,31.2-24.545,0-21.564-46.109-23.858-44.733-45.536.459-6.423,8.373-11.011,15.37-9.749,10.323,1.721,11.241,12.388,7,14.911,5.276,2.294,13.763,1.835,14.222-6.538.344-7.455-10.093-12.961-20.76-13.878C1016.906,473.1,1004.29,481.591,1004.175,493.4Z" transform="translate(-817.674 -447.106)" fill="#142648"/>
      <path id="Path_484" data-name="Path 484" d="M1246.295,497.191a41.86,41.86,0,0,0-19.417,35.524c0,22.94,18.122,41.636,40.6,41.636,22.366,0,40.6-18.7,40.6-41.636a42.029,42.029,0,0,0-12.148-29.648,28.979,28.979,0,0,1-12.12,2.94c5.983,6.066,9.816,15.618,9.816,27.167,0,20.3-11.7,32.8-26.152,32.8s-26.266-12.5-26.266-32.8c0-15.566,7.027-27.509,16.869-32.165a76.107,76.107,0,0,0-7.489-1.736c-.072-.012-.142-.025-.213-.039Z" transform="translate(-979.587 -463.477)" fill="#142648"/>
      <path id="Path_485" data-name="Path 485" d="M389.6,389.132h2.958c.117,0,.281-.005.493-.016s.4-.026.563-.048a4.162,4.162,0,0,0,1.853-.673,3.123,3.123,0,0,0,1.073-1.3,4.211,4.211,0,0,0,.348-1.739,4.281,4.281,0,0,0-.343-1.739,3.1,3.1,0,0,0-1.069-1.295,4.176,4.176,0,0,0-1.862-.674,4.769,4.769,0,0,0-.559-.052q-.312-.012-.5-.012H387.2V393H389.6Zm0-5.53h2.851q.185,0,.405.016a2.3,2.3,0,0,1,.405.064,1.483,1.483,0,0,1,.748.4,1.549,1.549,0,0,1,.365.626,2.164,2.164,0,0,1,0,1.307,1.544,1.544,0,0,1-.365.626,1.481,1.481,0,0,1-.748.4,2.284,2.284,0,0,1-.405.064c-.147.011-.281.015-.405.015H389.6Z" transform="translate(-383.066 -381.352)" fill="#142648"/>
      <path id="Path_486" data-name="Path 486" d="M430.56,390.621v-2.013h1.623l1.688-5-.231-.672h.458l-.227.672,1.715,5h1.663v2.013h-.973l.815,2.377h2.465l-3.873-11.408h-3.574L428.236,393H430.7l.8-2.377Z" transform="translate(-412.218 -381.352)" fill="#142648"/>
      <path id="Path_487" data-name="Path 487" d="M440.2,405.827l-.68,2.012h4.773l-.69-2.012Z" transform="translate(-420.233 -398.57)" fill="#142648"/>
      <path id="Path_488" data-name="Path 488" d="M455.281,405.827h-1.663l.69,2.012h.973Z" transform="translate(-430.249 -398.57)" fill="#142648"/>
      <path id="Path_489" data-name="Path 489" d="M446.9,386.24l.23.672.227-.672Z" transform="translate(-425.477 -384.656)" fill="#142648"/>
      <path id="Path_490" data-name="Path 490" d="M436.261,405.827v2.012h.943l.68-2.012Z" transform="translate(-417.919 -398.57)" fill="#142648"/>
      <path id="Path_491" data-name="Path 491" d="M489.287,387.813a3.87,3.87,0,0,0,.793-2.452,4.282,4.282,0,0,0-.343-1.739,3.1,3.1,0,0,0-1.069-1.295,4.174,4.174,0,0,0-1.862-.674,4.768,4.768,0,0,0-.559-.052c-.208-.008-.374-.012-.5-.012H480.4V393h2.394v-3.866h2.671l-.418-.776,2.465-.428.457.844A3.062,3.062,0,0,0,489.287,387.813Zm-1.72-1.8a1.542,1.542,0,0,1-.365.626,1.482,1.482,0,0,1-.748.4,2.281,2.281,0,0,1-.405.064c-.147.011-.281.015-.405.015h-2.851V383.6h2.851q.186,0,.405.016a2.292,2.292,0,0,1,.405.064,1.483,1.483,0,0,1,.748.4,1.546,1.546,0,0,1,.365.626,2.162,2.162,0,0,1,0,1.307Z" transform="translate(-449.274 -381.352)" fill="#142648"/>
      <path id="Path_492" data-name="Path 492" d="M496.445,403.9l.418.776h.286l1.056-.064a5.022,5.022,0,0,0,1.162-.3l-.457-.844Z" transform="translate(-460.675 -396.899)" fill="#142648"/>
      <path id="Path_493" data-name="Path 493" d="M498.175,406.749h-.286l2.082,3.866h2.711l-2.289-4.226a5.027,5.027,0,0,1-1.162.3Z" transform="translate(-461.701 -398.97)" fill="#142648"/>
      <path id="Path_494" data-name="Path 494" d="M559.565,415.56l.981.879,1.461-1.331-.951-.856A5.2,5.2,0,0,1,559.565,415.56Z" transform="translate(-505.516 -404.555)" fill="#142648"/>
      <path id="Path_495" data-name="Path 495" d="M552.59,406.605l-.924-.832-1.479,1.331,1.025.918c.069-.034.142-.063.207-.1A2.986,2.986,0,0,0,552.59,406.605Z" transform="translate(-498.853 -398.532)" fill="#142648"/>
      <path id="Path_496" data-name="Path 496" d="M553.933,409.961c-.065.039-.138.068-.207.1l1.691,1.514a5.192,5.192,0,0,0,1.49-1.309l-1.8-1.623A2.985,2.985,0,0,1,553.933,409.961Z" transform="translate(-501.368 -400.574)" fill="#142648"/>
      <path id="Path_497" data-name="Path 497" d="M538.583,386.71a6.305,6.305,0,0,0-.744-3.113,5.2,5.2,0,0,0-2.121-2.084,7.594,7.594,0,0,0-6.557,0,5.2,5.2,0,0,0-2.121,2.084,6.886,6.886,0,0,0,0,6.227,5.192,5.192,0,0,0,2.121,2.083,7.585,7.585,0,0,0,6.557,0c.075-.041.14-.09.212-.133l-1.691-1.515a3.875,3.875,0,0,1-1.8.365,3.929,3.929,0,0,1-2.007-.5,3.01,3.01,0,0,1-1.2-1.355,4.889,4.889,0,0,1-.4-2.06,5,5,0,0,1,.4-2.075,2.993,2.993,0,0,1,1.2-1.37,3.723,3.723,0,0,1,2.007-.468,3.932,3.932,0,0,1,2.007.5,3.012,3.012,0,0,1,1.2,1.355,4.892,4.892,0,0,1,.4,2.06,5,5,0,0,1-.4,2.076c-.009.02-.021.036-.03.056l1.8,1.623a5.315,5.315,0,0,0,.419-.641A6.306,6.306,0,0,0,538.583,386.71Z" transform="translate(-481.88 -380.769)" fill="#142648"/>
      <path id="Path_498" data-name="Path 498" d="M582.406,381.606v7.114a4.193,4.193,0,0,0,2.465,3.957,6.776,6.776,0,0,0,5.387,0,4.19,4.19,0,0,0,2.465-3.957v-7.13h-2.429V388.7a2.445,2.445,0,0,1-.207,1.014,2.351,2.351,0,0,1-.577.792,2.624,2.624,0,0,1-.867.515,3.26,3.26,0,0,1-2.139,0,2.627,2.627,0,0,1-.871-.511,2.377,2.377,0,0,1-.585-.792,2.409,2.409,0,0,1-.212-1.022V381.59Z" transform="translate(-521.743 -381.352)" fill="#142648"/>
      <path id="Path_499" data-name="Path 499" d="M642.414,383.6V381.59H634.14V393h8.274v-2.012h-5.88v-2.932h4.823v-2.012h-4.823V383.6Z" transform="translate(-558.496 -381.352)" fill="#142648"/>
      <path id="Path_500" data-name="Path 500" d="M699.064,383.28a3.853,3.853,0,0,1,2.011-.483,3.731,3.731,0,0,1,2.156.574,3.1,3.1,0,0,1,1.188,1.612l2.412-.6a5.221,5.221,0,0,0-2.091-2.638,6.537,6.537,0,0,0-3.666-.974,6.806,6.806,0,0,0-3.279.744,5.207,5.207,0,0,0-2.121,2.084,6.884,6.884,0,0,0,0,6.227,5.2,5.2,0,0,0,2.121,2.083,6.8,6.8,0,0,0,3.279.745,6.539,6.539,0,0,0,3.666-.974,5.222,5.222,0,0,0,2.091-2.638l-2.412-.6a3.117,3.117,0,0,1-1.188,1.608,3.71,3.71,0,0,1-2.156.579,3.847,3.847,0,0,1-2.011-.484,3.019,3.019,0,0,1-1.21-1.362,5.478,5.478,0,0,1,0-4.135A3.021,3.021,0,0,1,699.064,383.28Z" transform="translate(-601.682 -380.769)" fill="#142648"/>
      <rect id="Rectangle_499" data-name="Rectangle 499" width="2.394" height="11.408" transform="translate(109.462 0.238)" fill="#142648"/>
      <path id="Path_501" data-name="Path 501" d="M775.906,381.606v7.114a4.195,4.195,0,0,0,2.465,3.957,6.778,6.778,0,0,0,5.387,0,4.192,4.192,0,0,0,2.465-3.957v-7.13h-2.429V388.7a2.445,2.445,0,0,1-.207,1.014,2.355,2.355,0,0,1-.577.792,2.635,2.635,0,0,1-.867.515,3.261,3.261,0,0,1-2.139,0,2.623,2.623,0,0,1-.871-.511,2.372,2.372,0,0,1-.586-.792,2.416,2.416,0,0,1-.211-1.022V381.59Z" transform="translate(-659.208 -381.352)" fill="#142648"/>
      <path id="Path_502" data-name="Path 502" d="M832.358,392.99c.31-.005.61-.024.9-.055a5.2,5.2,0,0,0,2.6-.959,5.09,5.09,0,0,0,1.619-2.012,6.7,6.7,0,0,0,0-5.339,5.093,5.093,0,0,0-1.619-2.012,5.206,5.206,0,0,0-2.6-.959c-.287-.032-.587-.05-.9-.056s-.517-.008-.616-.008h-4.1V393h4.1Q831.891,393,832.358,392.99Zm-2.289-9.372h1.672q.237,0,.642.008a4.3,4.3,0,0,1,.731.071,2.423,2.423,0,0,1,1.329.673,3.313,3.313,0,0,1,.787,1.3,5.156,5.156,0,0,1,.009,3.208,3.382,3.382,0,0,1-.774,1.315,2.411,2.411,0,0,1-1.351.7,5.22,5.22,0,0,1-.731.068q-.4.013-.642.012H830.07Z" transform="translate(-695.961 -381.352)" fill="#142648"/>
      <path id="Path_503" data-name="Path 503" d="M892.81,386.24l.231.672.227-.672Z" transform="translate(-742.259 -384.656)" fill="#142648"/>
      <path id="Path_504" data-name="Path 504" d="M886.108,405.827l-.68,2.012H890.2l-.69-2.012Z" transform="translate(-737.015 -398.57)" fill="#142648"/>
      <path id="Path_505" data-name="Path 505" d="M882.171,405.827v2.012h.943l.68-2.012Z" transform="translate(-734.701 -398.57)" fill="#142648"/>
      <path id="Path_506" data-name="Path 506" d="M878.019,381.59,874.146,393h2.465l.8-2.377h-.943v-2.013h1.623l1.688-5-.23-.672h.457l-.227.672,1.715,5h1.663v2.013h-.973L883,393h2.465l-3.873-11.408Z" transform="translate(-728.999 -381.352)" fill="#142648"/>
      <path id="Path_507" data-name="Path 507" d="M901.19,405.827h-1.663l.69,2.012h.973Z" transform="translate(-747.031 -398.57)" fill="#142648"/>
      <path id="Path_508" data-name="Path 508" d="M931.922,392.934a5.2,5.2,0,0,0,2.6-.959,5.087,5.087,0,0,0,1.619-2.012,6.7,6.7,0,0,0,0-5.339,5.09,5.09,0,0,0-1.619-2.012,5.207,5.207,0,0,0-2.6-.959q-.431-.047-.9-.056t-.616-.008h-4.1V393h4.1q.149,0,.616-.008T931.922,392.934Zm-3.187-1.965v-7.352h1.673q.237,0,.642.008a4.3,4.3,0,0,1,.731.071,2.421,2.421,0,0,1,1.329.673,3.315,3.315,0,0,1,.788,1.3,5.164,5.164,0,0,1,.009,3.208,3.39,3.39,0,0,1-.774,1.315,2.413,2.413,0,0,1-1.351.7,5.217,5.217,0,0,1-.731.068q-.4.013-.642.012Z" transform="translate(-766.055 -381.352)" fill="#142648"/>
      <path id="Path_509" data-name="Path 509" d="M1005.094,382.327a4.173,4.173,0,0,0-1.861-.674,4.78,4.78,0,0,0-.559-.052c-.208-.008-.374-.012-.5-.012h-5.352V393h2.394v-3.866h2.957q.177,0,.493-.016c.211-.01.4-.026.564-.048a4.161,4.161,0,0,0,1.853-.673,3.133,3.133,0,0,0,1.074-1.3,4.224,4.224,0,0,0,.348-1.739,4.274,4.274,0,0,0-.343-1.739A3.1,3.1,0,0,0,1005.094,382.327Zm-1.1,3.687a1.532,1.532,0,0,1-.366.626,1.477,1.477,0,0,1-.748.4,2.261,2.261,0,0,1-.4.064c-.147.011-.282.015-.4.015h-2.852V383.6h2.852q.184,0,.4.016a2.272,2.272,0,0,1,.4.064,1.478,1.478,0,0,1,.748.4,1.537,1.537,0,0,1,.366.626,2.158,2.158,0,0,1,0,1.307Z" transform="translate(-816.152 -381.352)" fill="#142648"/>
      <path id="Path_510" data-name="Path 510" d="M1044.372,391.907a7.586,7.586,0,0,0,6.557,0,5.2,5.2,0,0,0,2.121-2.083,6.89,6.89,0,0,0,0-6.227,5.206,5.206,0,0,0-2.121-2.084,7.6,7.6,0,0,0-6.557,0,5.2,5.2,0,0,0-2.121,2.084,6.886,6.886,0,0,0,0,6.227A5.194,5.194,0,0,0,1044.372,391.907Zm.07-7.272a2.992,2.992,0,0,1,1.2-1.37,3.724,3.724,0,0,1,2.007-.468,3.929,3.929,0,0,1,2.006.5,3.011,3.011,0,0,1,1.2,1.355,4.891,4.891,0,0,1,.4,2.06,5,5,0,0,1-.4,2.076,2.992,2.992,0,0,1-1.2,1.37,3.724,3.724,0,0,1-2.006.468,3.93,3.93,0,0,1-2.007-.5,3.01,3.01,0,0,1-1.2-1.355,4.9,4.9,0,0,1-.4-2.06A5,5,0,0,1,1044.443,384.635Z" transform="translate(-847.896 -380.769)" fill="#142648"/>
      <path id="Path_511" data-name="Path 511" d="M1110.293,393V381.59h-2.148l-4.19,7.574-4.19-7.574h-2.148V393h2.236v-6.813l3.679,6.813h.845l3.68-6.813V393Z" transform="translate(-887.758 -381.352)" fill="#142648"/>
      <path id="Path_512" data-name="Path 512" d="M1166.42,405.827l-.68,2.012h4.773l-.69-2.012Z" transform="translate(-936.153 -398.57)" fill="#142648"/>
      <path id="Path_513" data-name="Path 513" d="M1181.5,405.827h-1.663l.69,2.012h.974Z" transform="translate(-946.169 -398.57)" fill="#142648"/>
      <path id="Path_514" data-name="Path 514" d="M1162.482,405.827v2.012h.943l.68-2.012Z" transform="translate(-933.839 -398.57)" fill="#142648"/>
      <path id="Path_515" data-name="Path 515" d="M1173.121,386.24l.231.673.227-.673Z" transform="translate(-941.397 -384.656)" fill="#142648"/>
      <path id="Path_516" data-name="Path 516" d="M1156.782,390.621v-2.013h1.623l1.688-5-.231-.673h.458l-.227.673,1.714,5h1.664v2.013h-.974l.815,2.377h2.465l-3.872-11.408h-3.574L1154.458,393h2.464l.8-2.377Z" transform="translate(-928.138 -381.352)" fill="#142648"/>
      <path id="Path_517" data-name="Path 517" d="M1222.668,403.9l.418.776h.286l1.056-.064a5.021,5.021,0,0,0,1.161-.3l-.457-.844Z" transform="translate(-976.596 -396.899)" fill="#142648"/>
      <path id="Path_518" data-name="Path 518" d="M1215.508,387.813a3.874,3.874,0,0,0,.792-2.452,4.264,4.264,0,0,0-.343-1.739,3.1,3.1,0,0,0-1.069-1.295,4.174,4.174,0,0,0-1.862-.674,4.773,4.773,0,0,0-.559-.052c-.208-.008-.374-.012-.5-.012h-5.352V393h2.395v-3.866h2.672l-.418-.776,2.465-.428.457.844A3.069,3.069,0,0,0,1215.508,387.813Zm-1.721-1.8a1.528,1.528,0,0,1-.366.626,1.476,1.476,0,0,1-.748.4,2.262,2.262,0,0,1-.4.064c-.147.011-.282.015-.4.015h-2.852V383.6h2.852q.184,0,.4.016a2.273,2.273,0,0,1,.4.064,1.477,1.477,0,0,1,.748.4,1.533,1.533,0,0,1,.366.626,2.16,2.16,0,0,1,0,1.307Z" transform="translate(-965.193 -381.352)" fill="#142648"/>
      <path id="Path_519" data-name="Path 519" d="M1224.4,406.749h-.286l2.082,3.866h2.711l-2.289-4.226a5.027,5.027,0,0,1-1.161.3Z" transform="translate(-977.621 -398.97)" fill="#142648"/>
      <path id="Path_520" data-name="Path 520" d="M1419.247,505.3h0Z" transform="translate(-1116.216 -469.236)" fill="#142648"/>
    </g>
    <g id="Group_371" data-name="Group 371" transform="translate(376.979 239.805)">
      <rect id="Rectangle_500" data-name="Rectangle 500" width="315.783" height="4.98" transform="translate(0 163.405)" fill="#fd8568"/>
      <rect id="Rectangle_501" data-name="Rectangle 501" width="247.275" height="4.98" transform="translate(0 24.207)" fill="#fd8568"/>
      <path id="Path_521" data-name="Path 521" d="M1347.568,244.478c-.084-.088-.163-.163-.241-.233s-.15-.131-.226-.187a5.688,5.688,0,0,0-.97-.541l-.013-.006c-.468-.223-.918-.432-1.354-.63l-.089-.04q-.619-.278-1.2-.522l-.123-.05q-.565-.233-1.1-.432l-.135-.049c-.356-.129-.7-.247-1.05-.354l-.126-.039q-.522-.158-1.033-.281l-.105-.026c-.354-.083-.7-.153-1.057-.21l-.061-.01c-.37-.059-.741-.1-1.114-.134h-.024c-.367-.029-.737-.043-1.114-.044-.106,0-.214,0-.322,0l-.187,0c-.142,0-.286.012-.43.02l-.111.006q-.276.018-.557.045l-.115.013c-.149.015-.3.032-.451.051l-.2.029c-.125.017-.25.035-.376.055l-.236.04c-.12.02-.239.041-.361.063l-.256.049c-.119.023-.238.047-.358.072l-.271.059-.366.083-.281.068-.375.094-.295.077-.387.1-.3.084-.406.118-.311.092-.425.131-.316.1c-.149.047-.3.1-.454.147l-.316.1-.5.169-.3.1c-.223.076-.451.157-.682.238l-.142.05a1.455,1.455,0,0,0-.031-.269,1.022,1.022,0,0,0-.069-.214.868.868,0,0,0-.063-.117c-.011-.018-.022-.038-.034-.054a1.108,1.108,0,0,0-.537-.347l-.089-.031c-.159-.052-.323-.1-.473-.162a.977.977,0,0,1-.423-.31.931.931,0,0,1-.161-.38,1.625,1.625,0,0,1-.029-.265.969.969,0,0,0-.038-.235c-.007-.024-.018-.046-.026-.069a1.07,1.07,0,0,0-.064-.142c-.014-.024-.03-.048-.045-.071a1.03,1.03,0,0,0-.09-.114c-.019-.021-.037-.041-.057-.061a1.1,1.1,0,0,0-.119-.1c-.02-.014-.038-.03-.058-.043a1.172,1.172,0,0,0-.2-.1l0,0a1.148,1.148,0,0,0-.218-.056c-.024,0-.048,0-.072-.007a1.1,1.1,0,0,0-.142,0,1.042,1.042,0,0,0-.3.047l-2.074.679c-1,.33-1.958.649-2.874.97-.84.295-1.648.592-2.433.9q-.44.175-.872.355-.755.317-1.485.659a29.887,29.887,0,0,0-4.266,2.432c-.691.474-1.38.991-2.078,1.562s-1.4,1.2-2.12,1.883l-1.449-3.428h0a1.253,1.253,0,0,0-.108-.2c-.011-.017-.023-.034-.035-.05a1.372,1.372,0,0,0-.12-.142l-.027-.029a1.277,1.277,0,0,0-.17-.136l-.045-.028a1.157,1.157,0,0,0-.155-.08c-.016-.007-.032-.015-.049-.021a1.078,1.078,0,0,0-.206-.055l-.036,0a.956.956,0,0,0-.341.024c-.029.007-.058.011-.088.021a1.032,1.032,0,0,0-.263.132q-.646.457-1.273.929a52.435,52.435,0,0,0-6.884,6.179q-1.562,1.676-2.966,3.488-.468.6-.92,1.222-.6.825-1.175,1.676c-.477.709-.942,1.428-1.389,2.165q-.8,1.326-1.541,2.713l-1.019-.855-1.019-.854-.01-.006a1.16,1.16,0,0,0-.169-.116c-.023-.013-.048-.022-.073-.033a1.283,1.283,0,0,0-.125-.055c-.029-.01-.058-.015-.088-.023a1.243,1.243,0,0,0-.121-.029c-.032-.005-.063-.006-.1-.008a1.164,1.164,0,0,0-.118-.007,1.068,1.068,0,0,0-.129.012c-.031,0-.062.005-.092.012a1.133,1.133,0,0,0-.127.039c-.029.01-.058.016-.086.029a1.03,1.03,0,0,0-.127.073c-.022.014-.046.024-.068.04a.981.981,0,0,0-.169.16,23.163,23.163,0,0,0-1.621,2.193q-.2.309-.39.62c-.173.286-.341.574-.5.862q-.337.623-.623,1.251t-.524,1.262q-.238.634-.429,1.273a20.829,20.829,0,0,0-.766,3.877q-.067.653-.1,1.309a26.9,26.9,0,0,0,.126,3.966q.068.665.166,1.333a59.91,59.91,0,0,0,3.387,12.084q.28.754.569,1.506c1.343,3.509,2.776,6.981,3.935,10.354q.516-.984,1.053-1.955c.453-.823.917-1.64,1.4-2.446a95.237,95.237,0,0,1,9.153-12.547c1.241-1.466,2.542-2.874,3.884-4.24.033-.033.064-.068.1-.1l.033-.032c1.367-1.386,2.778-2.728,4.214-4.039l-.2-.188a.729.729,0,0,0,.091-.079c.071-.07.161-.17.246-.27.043-.05.085-.1.122-.145.161-.206.323-.418.473-.647.194-.283.37-.585.541-.893.1-.181.2-.362.3-.547a17.375,17.375,0,0,0,.9-2.171c.118-.345.231-.693.333-1.045.075-.245.141-.494.205-.743.153-.6.28-1.213.391-1.829q.079-.436.15-.875c.043-.293.078-.587.113-.882s.067-.591.1-.888l.122-1.789h0l.2,1.79c.033.6.081,1.2.1,1.806s.012,1.212,0,1.821c-.008.3-.021.61-.042.915s-.047.611-.083.917q-.068.639-.17,1.28t-.245,1.279c.816-.667,1.629-1.338,2.452-1.995.138-.111.279-.219.418-.328q.977-.77,1.99-1.493c.124-.089.244-.181.37-.268l.21-.153c.972-.7,1.931-1.428,2.921-2.105l1.968-1.272,1.272-.822c.244-.156.49-.308.736-.462q.955-.6,1.919-1.18l-.155-.147-.082-.078a.775.775,0,0,0,.091-.079l.006-.006c.1-.1.235-.256.344-.386l.019-.022c.019-.025.037-.052.056-.077.142-.183.285-.368.416-.57.154-.224.3-.459.437-.7s.271-.489.4-.739.246-.51.36-.771.221-.527.323-.8c.2-.538.384-1.09.547-1.649.085-.279.162-.561.233-.845.128-.513.233-1.035.33-1.559q.1-.52.182-1.043c.081-.559.138-1.122.207-1.686,0-.028.006-.056.01-.085l.123-1.788.2,1.79c.017.307.037.615.056.923s.035.588.045.884a27.716,27.716,0,0,1-.129,3.652q-.048.459-.113.918-.049.344-.108.689a18.484,18.484,0,0,1-.476,2.061c-.005.018-.012.035-.018.053-.017.053-.036.107-.052.16q1.3-.734,2.616-1.436t2.647-1.372q3.993-2.01,8.114-3.727,1.029-.428,2.066-.838c1.291-.511,2.593-.991,3.9-1.457.791-.282,1.581-.563,2.377-.829h0q-5.044,2.716-9.958,5.6-3.27,1.928-6.462,3.954-1.2.761-2.38,1.538-3.55,2.331-6.976,4.822l-1.479,1.1q1.019-.123,2.043-.226.839-.081,1.68-.145,1.681-.127,3.362-.187.84-.03,1.681-.043.618-.013,1.236-.013l.258,0c.181,0,.361,0,.542.006q.514.007,1.028.021l.562.018q.532.02,1.064.048c.163.008.325.016.488.025q.767.045,1.533.1c1.672.121,3.333.349,4.979.632q.823.142,1.641.3h0q-.773-.073-1.545-.133c-.164-.013-.328-.022-.492-.034-.355-.025-.71-.048-1.064-.067-.2-.011-.395-.018-.592-.027q-.486-.021-.973-.033c-.208-.005-.416-.008-.624-.01-.449,0-.9-.007-1.347,0h0q-.829.014-1.657.046-.886.033-1.769.09c-1.064.067-2.125.159-3.183.282q-2.466.274-4.908.692-.813.14-1.623.3c-1.611.314-3.236.673-4.812,1.086q-.788.207-1.557.431l0-.018c-.139.112-.277.224-.417.335q-.744.573-1.464,1.172c-1.444,1.2-2.837,2.448-4.254,3.671-.59.516-1.158,1.056-1.724,1.6-.335.321-.669.642-1.008.957-.453.428-.908.853-1.355,1.286s-.887.874-1.309,1.332l-.762.786-.74.763c.527-.008,1.055-.013,1.584-.013l.512,0q2.541.022,5.069.2.843.059,1.683.134c.5.043,1.009.094,1.512.149q1.031.113,2.057.261,1.557.222,3.1.508c1.356.243,2.7.563,4.022.92q1.245.335,2.474.707h0c-1.372-.235-2.744-.435-4.12-.584-.826-.09-1.652-.166-2.481-.208-.626-.036-1.252-.062-1.878-.083-.194-.006-.389-.009-.583-.014q-.661-.016-1.322-.021c-.3,0-.591,0-.887,0l-.452,0c-.491.008-.983.02-1.474.041h-.017q-1.65.061-3.294.186-.822.063-1.641.142t-1.636.175c-1.759.209-3.54.475-5.253.8l-.543.615q-.559.648-1.107,1.3a108,108,0,0,0-7.83,10.568l-.018.027c-.033.052-.065.1-.1.156-1.5,2.336-2.881,4.744-4.175,7.2a.557.557,0,0,0,.057.054.7.7,0,0,0,.114.11,2.473,2.473,0,0,0-.005.249c.009.268.081.562.364.61s.577.1.866.154l.23.043q.334.063.668.131l.225.045c.184.038.368.077.552.117l.321.068h.006q.432.095.866.2l.236.055q.341.08.682.163l.212.051q.44.108.881.22l.067.017q.406.1.814.211l.243.065.7.186.2.054.89.245.078.021.8.226.267.075.689.2.2.056.882.253.468.134.645.185.658.189.252.072.888.253.159.045.725.2.258.072.7.194.2.055.875.236.2.052.7.182.262.068.711.179.182.045q.437.108.874.211l.208.048q.339.079.679.155l.265.059q.364.08.728.156l.155.033q.435.09.869.173l.219.041q.333.063.667.122l.263.045q.374.064.747.122l.126.02q.432.066.862.123l.23.03q.326.042.652.079l.259.029q.387.041.774.075l.089.008c.285.024.569.044.852.061l.241.013q.318.017.635.028l.256.008c.267.007.533.012.8.012h.053c.276,0,.551-.005.825-.013l.247-.009q.3-.011.6-.029l.266-.016q.341-.023.681-.056l.146-.013c.271-.027.54-.059.809-.095l.232-.034q.3-.042.591-.092l.271-.047q.31-.056.619-.121l.194-.04q.4-.087.793-.188l.208-.056c.2-.053.4-.109.6-.168l.267-.082c.133-.041.263-.085.4-.129l.187-.061.219-.074q.39-.139.777-.293c.057-.023.115-.048.172-.072q.307-.126.612-.262l.257-.118q.279-.13.557-.269c.077-.039.154-.076.231-.116.254-.131.508-.267.76-.41l.114-.067q.326-.188.65-.389c.081-.05.161-.1.243-.154q.271-.174.542-.358c.078-.053.156-.105.234-.16.245-.171.489-.347.732-.532l.014-.01a1.132,1.132,0,0,0,.466-.816,1.041,1.041,0,0,0-.018-.295,1.152,1.152,0,0,0-.829-.868c-.506-.15-1.011-.3-1.517-.457l-1.125-.338c.323-.1.64-.206.958-.312a28.3,28.3,0,0,0,3.555-1.46q.571-.281,1.125-.59.662-.368,1.3-.771a27.05,27.05,0,0,0,2.456-1.749q.589-.471,1.151-.975a27.171,27.171,0,0,0,3.118-3.306,28.352,28.352,0,0,0,3.952-6.7h0a1.257,1.257,0,0,0,.076-.268c0-.013.006-.026.008-.04a1.226,1.226,0,0,0,.008-.251l0-.047a1.187,1.187,0,0,0-.05-.237c0-.012-.008-.023-.013-.034a1.188,1.188,0,0,0-.106-.225v0a1.121,1.121,0,0,0-.154-.193l-.025-.026a1.084,1.084,0,0,0-.186-.143l-.037-.022a1.042,1.042,0,0,0-.221-.093l-.034-.008a1.065,1.065,0,0,0-.257-.034h0a1.225,1.225,0,0,0-.146.011l-.027,0a1.22,1.22,0,0,0-.181.042l-2.347.724-.389.12q.7-.86,1.339-1.665t1.214-1.571q.289-.383.564-.758c.5-.687.976-1.356,1.419-2.016.333-.5.65-.985.954-1.475q.342-.551.663-1.1c.643-1.106,1.23-2.225,1.788-3.406q.144-.306.286-.617c.284-.623.561-1.264.836-1.931q.138-.334.274-.676.274-.684.547-1.408c.124-.329.249-.668.375-1.012.151-.412.3-.831.454-1.266q.281-.8.569-1.645a.77.77,0,0,0,.039-.24.778.778,0,0,0-.01-.082.882.882,0,0,0-.023-.158.934.934,0,0,0-.036-.094,1.067,1.067,0,0,0-.057-.136c-.017-.032-.04-.061-.06-.092a1.161,1.161,0,0,0-.084-.117c-.025-.029-.052-.054-.079-.081a1.251,1.251,0,0,0-.1-.1c-.03-.024-.062-.044-.094-.065a1.093,1.093,0,0,0-.118-.069,1.071,1.071,0,0,0-.1-.042.906.906,0,0,0-.127-.037.849.849,0,0,0-.108-.016.785.785,0,0,0-.19,0h0a.41.41,0,0,1-.068.006,8.079,8.079,0,0,1-.127-.033.284.284,0,0,1-.068-.05.338.338,0,0,1-.052-.052.54.54,0,0,1-.047-.09.579.579,0,0,1-.035-.079c-.012-.038-.02-.081-.03-.124s-.016-.064-.02-.1-.011-.1-.016-.156c0-.037-.008-.072-.01-.112,0-.061,0-.127,0-.192,0-.036,0-.071,0-.108,0-.081,0-.166,0-.25,0-.024,0-.047,0-.072.006-.169.013-.341.02-.512,0-.051,0-.1.006-.153s0-.079,0-.119c0-.069,0-.139,0-.205,0-.043,0-.083,0-.125,0-.06,0-.12,0-.177,0-.041-.006-.078-.01-.118s-.008-.1-.015-.151-.014-.068-.021-.1-.017-.085-.029-.122a.767.767,0,0,0-.035-.08.57.57,0,0,0-.047-.089.4.4,0,0,0-.052-.052.21.21,0,0,0-.14-.069.338.338,0,0,0-.124-.009h0q.375-1.05.692-2.018c.187-.572.356-1.122.512-1.656.284-.974.519-1.891.7-2.756q.082-.4.15-.789c.05-.286.092-.566.128-.842q.072-.535.111-1.048C1354.625,253.2,1352.565,249.695,1347.568,244.478Z" transform="translate(-1019.214 -239.805)" fill="#fd8568"/>
    </g>
  </g>
</svg>
