<svg xmlns="http://www.w3.org/2000/svg" viewBox="0 0 167 167"><defs><style>.cls-1{fill:#142648;}.cls-2{fill:#fd8568;}</style></defs><title>favicon-pomar_1</title><g id="Layer_2" data-name="Layer 2"><g id="Layer_1-2" data-name="Layer 1"><rect class="cls-1" width="167" height="167"/><path class="cls-2" d="M78.5,96.15a46.42,46.42,0,0,0-14,12.59,51.63,51.63,0,0,0-3.88,6.58c-.58,1.11-1.13,2.24-1.68,3.38-1.29,2.69-2.54,5.39-4.08,7.94a40.84,40.84,0,0,1-10.66,11.71,6.11,6.11,0,0,0-1.69,1.74,130.93,130.93,0,0,0,23.74-.86,107,107,0,0,0,58.3-26.66c1.58-1.41,3.15-2.86,4.69-4.38l.44.41a6.57,6.57,0,0,1-.85,2.35c-1,1.06-1.94,2.13-2.92,3.19-2.68,3-5.39,5.88-8.3,8.6a82,82,0,0,1-21,13.78,92.37,92.37,0,0,1-27.56,8.54c-4.45.6-8.93.95-13.39,1.31-1.95.15-3.91.31-5.85.48a6.59,6.59,0,0,0,1.19.58c.72.23,1.44.41,2.16.62a89.45,89.45,0,0,0,17.48,3.24,93.92,93.92,0,0,0,13.08.55,95.77,95.77,0,0,0,13.88-1.94,58.53,58.53,0,0,0,22.09-9.5A61.42,61.42,0,0,0,134,127c.47-.63.93-1.26,1.39-1.9,2.33-3.18,4.6-6.42,6.62-9.79a52,52,0,0,0,4.69-9.82C149,99,150.9,92.29,152.91,85.67a7.46,7.46,0,0,0,.05-2,77.38,77.38,0,0,1-18.86,1.42,173.13,173.13,0,0,0-17.94.08A98.29,98.29,0,0,0,102.45,87,78.16,78.16,0,0,0,78.5,96.15Z"/><path class="cls-2" d="M43.07,88.74a45.13,45.13,0,0,0-.94,7.08c-.17,2.58-.24,5.18-.42,7.74-.43,6.08.56,12,1.82,18,.25,1.2.63,2.36,1.08,4a14.12,14.12,0,0,0,1.33-1.78c1.52-3.1,3-6.23,4.51-9.32.71-1.42,1.49-2.81,2.31-4.17a53.19,53.19,0,0,1,7.92-10.13c7.82-7.81,17.39-12.8,27.9-16.34a10.81,10.81,0,0,0,2.62-.91,5.9,5.9,0,0,0,2.28-2.38c.33-.93.6-1.87.9-2.8a83.83,83.83,0,0,0,3.56-17.95,3.57,3.57,0,0,1,1-2.1,24.33,24.33,0,0,1,.63,4c0,3.52-.07,7-.24,10.57-.11,2.21-.44,4.41-.66,6.61-.16,1.61,1.09,1.63,2.12,1.51,2.42-.26,4.81-.72,7.22-1,2-.26,4-.51,5.94-.61a1.88,1.88,0,0,0,2-1.94,48.94,48.94,0,0,0,.07-6.63,115.33,115.33,0,0,0-3.92-22.47,133.52,133.52,0,0,0-10.35-26.36c-.72-1.37-1.62-1.55-2.71-.44-7.35,7.51-16.2,13.32-24.38,19.9-2.41,1.94-4.76,4-7.06,6q-3.7,3.36-7.21,6.91C50.71,63.56,46.05,75.85,43.07,88.74Z"/><path class="cls-2" d="M30.82,99a46.87,46.87,0,0,0,4.56,5.84c.24.25.52.46,1.06.94a6.57,6.57,0,0,0,.5-2,52.68,52.68,0,0,1-.3-8.67C37,86.85,39.18,78.88,42.27,71a60,60,0,0,1,8-13.76,4.19,4.19,0,0,0,.53-4.43c-.85-2-1.58-4.15-2.3-6.25-.11-.32.09-.74.15-1.12.37.15.89.19,1.07.45,1.06,1.56,2.05,3.16,3.05,4.76,1.15,1.84,1.34,1.87,2.93.4,1.75-1.62,3.51-3.23,5.26-4.86a1.72,1.72,0,0,0,.24-2.66A104,104,0,0,0,47.39,28.44c-2.84-2.59-6-4.83-9.09-7.18-1-.77-1.89-.55-2.34.66-.58,1.53-1.05,3.09-1.68,4.6-3.42,8.19-7,16.34-10.31,24.57a39.36,39.36,0,0,0-3,15A58.5,58.5,0,0,0,25.5,89,61.75,61.75,0,0,0,30.82,99Z"/></g></g></svg>