<svg xmlns="http://www.w3.org/2000/svg" width="78" height="78" viewBox="0 0 78 78">
  <g id="Group_384" data-name="Group 384" transform="translate(-1365 -1348)">
    <circle id="Ellipse_15" data-name="Ellipse 15" cx="39" cy="39" r="39" transform="translate(1365 1348)" fill="#fc8468"/>
    <g id="bike" transform="translate(1377 1272.564)">
      <g id="Group_382" data-name="Group 382" transform="translate(0 96.534)">
        <path id="Path_523" data-name="Path 523" d="M44.69,108.6a11.4,11.4,0,0,0-4.112.764,32.341,32.341,0,0,1-2.3-6.762A7.539,7.539,0,0,0,30.9,96.534a1.645,1.645,0,1,0,0,3.29,4.243,4.243,0,0,1,3.722,2.213,1.637,1.637,0,0,0-.124.177l-.511.86L31.4,107.427H17.587l-.785-1.976h.326a1.645,1.645,0,0,0,0-3.29H11.456a1.645,1.645,0,0,0,0,3.29h1.806l1.435,3.613a11.456,11.456,0,1,0,8.1,12.633h3.021a1.645,1.645,0,0,0,1.414-.8l8.644-14.552a43.859,43.859,0,0,0,1.826,4.644A11.45,11.45,0,1,0,44.69,108.6ZM11.456,121.7h8a8.166,8.166,0,1,1,0-3.29h-8a1.645,1.645,0,1,0,0,3.29Zm13.422-3.29H22.794a11.442,11.442,0,0,0-3.536-6.735,1.646,1.646,0,0,0-.063-.2l-.3-.758H29.446Zm19.812,9.811a8.162,8.162,0,0,1-5.5-14.2,72.832,72.832,0,0,0,4.148,6.964,1.645,1.645,0,0,0,2.707-1.869,71.917,71.917,0,0,1-4.019-6.783,8.166,8.166,0,1,1,2.666,15.884Z" transform="translate(0 -96.534)" fill="#fff"/>
      </g>
    </g>
  </g>
</svg>
