<svg xmlns="http://www.w3.org/2000/svg" xmlns:xlink="http://www.w3.org/1999/xlink" width="78.153" height="78.155" viewBox="0 0 78.153 78.155">
  <defs>
    <clipPath id="clip-path">
      <path id="Path_443" data-name="Path 443" d="M0,0H78.153V-78.155H0Z" fill="none"/>
    </clipPath>
  </defs>
  <g id="Group_265" data-name="Group 265" transform="translate(0 78.155)">
    <g id="Group_267" data-name="Group 267" clip-path="url(#clip-path)">
      <g id="Group_266" data-name="Group 266" transform="translate(39.076 -78.155)">
        <path id="Path_442" data-name="Path 442" d="M0,0A39.077,39.077,0,0,0-39.076,39.076,39.08,39.08,0,0,0,0,78.155,39.079,39.079,0,0,0,39.077,39.076,39.076,39.076,0,0,0,0,0M-28.465,53.795c0-12.206,10.721-12.2,13.1-15.4l.272-1.456c-3.343-1.695-5.7-5.778-5.7-10.554,0-6.293,4.093-11.394,9.142-11.394,3.974,0,7.347,3.169,8.607,7.585-5.058,1.607-8.8,7.089-8.8,13.607A15.146,15.146,0,0,0-7.172,47.421c-.465.239-.984.483-1.431.692-2.34,1.1-5.587,2.625-7.929,5.682ZM.12,63.594v0H-16.811c0-12.207,10.72-12.2,13.1-15.394l.273-1.457c-3.342-1.694-5.7-5.777-5.7-10.554,0-6.293,4.093-11.394,9.141-11.394s9.141,5.1,9.141,11.394c0,4.736-2.316,8.795-5.615,10.515l.31,1.655C6.447,51.4,16.81,51.592,16.81,63.594Zm16.412-9.8h0c-2.344-3.056-5.59-4.582-7.932-5.681-.46-.216-.97-.457-1.427-.691a15.179,15.179,0,0,0,4.672-11.236c0-6.516-3.739-12-8.8-13.606,1.259-4.417,4.632-7.586,8.607-7.586,5.049,0,9.141,5.1,9.141,11.395,0,4.735-2.318,8.794-5.615,10.515l.309,1.653C18.1,41.6,28.467,41.793,28.467,53.8Z" fill="#fc8468"/>
      </g>
    </g>
  </g>
</svg>
