<svg xmlns="http://www.w3.org/2000/svg" width="78" height="78" viewBox="0 0 78 78">
  <g id="Group_383" data-name="Group 383" transform="translate(-960 -1517)">
    <circle id="Ellipse_16" data-name="Ellipse 16" cx="39" cy="39" r="39" transform="translate(960 1517)" fill="#fc8468"/>
    <g id="book" transform="translate(975 1536.384)">
      <path id="Path_524" data-name="Path 524" d="M250.729,34.045V0l-1.3.109A49.959,49.959,0,0,0,234.287,3.8L232,4.75V38.66l1.665-.692a51.971,51.971,0,0,1,15.664-3.809Zm0,0" transform="translate(-207.312)" fill="#fff"/>
      <path id="Path_525" data-name="Path 525" d="M284.153,47.3H281.6v29.8a.851.851,0,0,1-.781.851l-2.18.179q-.944.078-1.882.193c-.2.025-.4.057-.606.085-.422.056-.842.113-1.262.18-.244.039-.487.085-.731.128-.375.066-.752.131-1.126.2-.256.051-.511.108-.771.164-.357.076-.713.153-1.068.237-.266.063-.53.13-.794.2-.345.085-.688.177-1.03.273-.266.073-.533.15-.8.229-.34.1-.676.2-1.012.31l-.789.255q-.505.17-1.006.352c-.255.093-.511.186-.772.284-.117.044-.233.092-.349.137h19.512Zm0,0" transform="translate(-236.479 -42.264)" fill="#fff"/>
      <path id="Path_526" data-name="Path 526" d="M41.3.109,40,0V34.048l1.511.128a51.622,51.622,0,0,1,15.648,3.831l1.57.653V4.75L56.445,3.8A49.957,49.957,0,0,0,41.3.109Zm0,0" transform="translate(-35.743)" fill="#fff"/>
      <path id="Path_527" data-name="Path 527" d="M0,47.3V81.35H19.526c-.1-.041-.21-.085-.315-.124-.244-.093-.489-.181-.735-.271-.346-.126-.691-.248-1.04-.365q-.378-.128-.758-.249-.518-.17-1.039-.32c-.256-.075-.511-.15-.766-.222-.35-.1-.7-.189-1.053-.279-.255-.066-.511-.131-.772-.192-.357-.085-.715-.163-1.074-.24-.255-.055-.511-.111-.766-.163-.371-.073-.744-.139-1.117-.2l-.734-.129c-.412-.065-.824-.121-1.237-.176-.209-.028-.416-.061-.624-.085q-.937-.113-1.873-.193l-2.292-.194a.851.851,0,0,1-.779-.851V47.3Zm0,0" transform="translate(0 -42.264)" fill="#fff"/>
    </g>
  </g>
</svg>
