<svg id="Group_416" data-name="Group 416" xmlns="http://www.w3.org/2000/svg" xmlns:xlink="http://www.w3.org/1999/xlink" width="77.725" height="77.725" viewBox="0 0 77.725 77.725">
  <defs>
    <clipPath id="clip-path">
      <path id="Path_570" data-name="Path 570" d="M0,24.428H77.725V-53.3H0Z" transform="translate(0 53.297)" fill="none"/>
    </clipPath>
  </defs>
  <g id="Group_415" data-name="Group 415" transform="translate(0 0)" clip-path="url(#clip-path)">
    <g id="Group_412" data-name="Group 412" transform="translate(0.001 0.001)">
      <path id="Path_567" data-name="Path 567" d="M12.214,24.428A38.863,38.863,0,0,0,51.076-14.434,38.863,38.863,0,0,0,12.214-53.3,38.862,38.862,0,0,0-26.648-14.434,38.862,38.862,0,0,0,12.214,24.428" transform="translate(26.648 53.297)" fill="#ff8463"/>
    </g>
    <g id="Group_413" data-name="Group 413" transform="translate(12.128 19.625)">
      <path id="Path_568" data-name="Path 568" d="M9.725,8.637a18.548,18.548,0,0,0,7.506-5.364A11.5,11.5,0,0,0,19.98-4.118a11.5,11.5,0,0,0-2.749-7.392,18.571,18.571,0,0,0-7.506-5.364A26.737,26.737,0,0,0-.617-18.844a26.752,26.752,0,0,0-10.345,1.97,18.551,18.551,0,0,0-7.5,5.364,11.494,11.494,0,0,0-2.752,7.392A11.164,11.164,0,0,0-19.14,2.325a16.99,16.99,0,0,0,5.706,5.09c-.2.462-.4.882-.6,1.267a7.45,7.45,0,0,1-.732,1.107c-.284.354-.5.631-.659.834a11,11,0,0,1-.761.847q-.525.547-.674.719c0-.019-.038.025-.115.13s-.123.153-.131.144-.05.038-.118.143l-.1.159-.071.143a.6.6,0,0,0-.06.172,1.249,1.249,0,0,0-.013.187.571.571,0,0,0,.029.188.934.934,0,0,0,.337.6.911.911,0,0,0,.6.23h.087a25.552,25.552,0,0,0,2.517-.461,24.768,24.768,0,0,0,8.133-3.682,29.8,29.8,0,0,0,5.151.461A26.71,26.71,0,0,0,9.725,8.637" transform="translate(21.218 18.844)" fill="#fff"/>
    </g>
    <g id="Group_414" data-name="Group 414" transform="translate(30.151 29.979)">
      <path id="Path_569" data-name="Path 569" d="M10.162,5.718A11.144,11.144,0,0,0,12.241-.738a11.184,11.184,0,0,0-2.2-6.618,17.226,17.226,0,0,0-5.969-5.119A14.589,14.589,0,0,1,4.749-8.1,14.544,14.544,0,0,1,2.788-.8,19.359,19.359,0,0,1-2.83,5.3a26.173,26.173,0,0,1-7.725,3.711A31.489,31.489,0,0,1-19.6,10.3q-.877,0-2.575-.114a24.912,24.912,0,0,0,13.812,3.8,29.817,29.817,0,0,0,5.151-.461,24.8,24.8,0,0,0,8.133,3.682,25.471,25.471,0,0,0,2.517.461.9.9,0,0,0,.643-.2,1.056,1.056,0,0,0,.381-.633c-.009-.114,0-.176.029-.185s.023-.073-.013-.187-.06-.174-.06-.174l-.071-.144a1.745,1.745,0,0,0-.1-.156,1.374,1.374,0,0,0-.118-.144C8.1,15.814,8.057,15.766,8,15.7s-.1-.111-.115-.13q-.149-.173-.674-.719A11.322,11.322,0,0,1,6.447,14c-.156-.2-.375-.48-.658-.836a7.126,7.126,0,0,1-.731-1.108c-.206-.382-.405-.805-.6-1.264a17.078,17.078,0,0,0,5.705-5.076" transform="translate(22.172 12.475)" fill="#fff"/>
    </g>
  </g>
</svg>
